<?xml version="1.0" encoding="UTF-8" standalone="no"?>
<!DOCTYPE svg PUBLIC "-//W3C//DTD SVG 1.1//EN"
 "http://www.w3.org/Graphics/SVG/1.1/DTD/svg11.dtd">
<!-- Generated by graphviz version 2.40.1 (20161225.0304)
 -->
<!-- Title: snakemake_dag Pages: 1 -->
<svg width="1504pt" height="1556pt"
 viewBox="0.00 0.00 1504.00 1556.00" xmlns="http://www.w3.org/2000/svg" xmlns:xlink="http://www.w3.org/1999/xlink">
<g id="graph0" class="graph" transform="scale(1 1) rotate(0) translate(4 1552)">
<title>snakemake_dag</title>
<polygon fill="#ffffff" stroke="transparent" points="-4,4 -4,-1552 1500,-1552 1500,4 -4,4"/>
<!-- 0 -->
<g id="node1" class="node">
<title>0</title>
<path fill="none" stroke="#d8a456" stroke-width="2" d="M763,-540C763,-540 733,-540 733,-540 727,-540 721,-534 721,-528 721,-528 721,-516 721,-516 721,-510 727,-504 733,-504 733,-504 763,-504 763,-504 769,-504 775,-510 775,-516 775,-516 775,-528 775,-528 775,-534 769,-540 763,-540"/>
<text text-anchor="middle" x="748" y="-519.5" font-family="sans" font-size="10.00" fill="#000000">all</text>
</g>
<!-- 1 -->
<g id="node2" class="node">
<title>1</title>
<path fill="none" stroke="#56c1d8" stroke-width="2" d="M186,-1116C186,-1116 40,-1116 40,-1116 34,-1116 28,-1110 28,-1104 28,-1104 28,-1092 28,-1092 28,-1086 34,-1080 40,-1080 40,-1080 186,-1080 186,-1080 192,-1080 198,-1086 198,-1092 198,-1092 198,-1104 198,-1104 198,-1110 192,-1116 186,-1116"/>
<text text-anchor="middle" x="113" y="-1095.5" font-family="sans" font-size="10.00" fill="#000000">collect_assembly_stats_singles</text>
</g>
<!-- 1&#45;&gt;0 -->
<g id="edge1" class="edge">
<title>1&#45;&gt;0</title>
<path fill="none" stroke="#c0c0c0" stroke-width="2" d="M98.1305,-1079.7109C78.3918,-1053.5269 46,-1003.081 46,-954 46,-954 46,-954 46,-810 46,-676.8705 116.0771,-639.6591 233,-576 274.7819,-553.2517 599.5596,-531.2038 710.7817,-524.2504"/>
<polygon fill="#c0c0c0" stroke="#c0c0c0" stroke-width="2" points="711.0977,-527.7376 720.8618,-523.6251 710.6642,-520.751 711.0977,-527.7376"/>
</g>
<!-- 2 -->
<g id="node3" class="node">
<title>2</title>
<path fill="none" stroke="#9fd856" stroke-width="2" d="M1164,-684C1164,-684 1090,-684 1090,-684 1084,-684 1078,-678 1078,-672 1078,-672 1078,-660 1078,-660 1078,-654 1084,-648 1090,-648 1090,-648 1164,-648 1164,-648 1170,-648 1176,-654 1176,-660 1176,-660 1176,-672 1176,-672 1176,-678 1170,-684 1164,-684"/>
<text text-anchor="middle" x="1127" y="-663.5" font-family="sans" font-size="10.00" fill="#000000">BAT_add_names</text>
</g>
<!-- 2&#45;&gt;0 -->
<g id="edge4" class="edge">
<title>2&#45;&gt;0</title>
<path fill="none" stroke="#c0c0c0" stroke-width="2" d="M1096.2541,-647.8612C1061.6454,-628.0442 1003.2786,-596.4085 950,-576 893.9051,-554.5127 825.9285,-538.2414 784.8685,-529.4208"/>
<polygon fill="#c0c0c0" stroke="#c0c0c0" stroke-width="2" points="785.5409,-525.9857 775.033,-527.3402 784.0921,-532.8341 785.5409,-525.9857"/>
</g>
<!-- 42 -->
<g id="node43" class="node">
<title>42</title>
<path fill="none" stroke="#d85e56" stroke-width="2" d="M1188,-612C1188,-612 1054,-612 1054,-612 1048,-612 1042,-606 1042,-600 1042,-600 1042,-588 1042,-588 1042,-582 1048,-576 1054,-576 1054,-576 1188,-576 1188,-576 1194,-576 1200,-582 1200,-588 1200,-588 1200,-600 1200,-600 1200,-606 1194,-612 1188,-612"/>
<text text-anchor="middle" x="1121" y="-591.5" font-family="sans" font-size="10.00" fill="#000000">BAT_filter_contignames_bins</text>
</g>
<!-- 2&#45;&gt;42 -->
<g id="edge75" class="edge">
<title>2&#45;&gt;42</title>
<path fill="none" stroke="#c0c0c0" stroke-width="2" d="M1125.4859,-647.8314C1124.8442,-640.131 1124.0812,-630.9743 1123.3681,-622.4166"/>
<polygon fill="#c0c0c0" stroke="#c0c0c0" stroke-width="2" points="1126.8529,-622.088 1122.5344,-612.4133 1119.8771,-622.6694 1126.8529,-622.088"/>
</g>
<!-- 3 -->
<g id="node4" class="node">
<title>3</title>
<path fill="none" stroke="#d89c56" stroke-width="2" d="M857.5,-612C857.5,-612 826.5,-612 826.5,-612 820.5,-612 814.5,-606 814.5,-600 814.5,-600 814.5,-588 814.5,-588 814.5,-582 820.5,-576 826.5,-576 826.5,-576 857.5,-576 857.5,-576 863.5,-576 869.5,-582 869.5,-588 869.5,-588 869.5,-600 869.5,-600 869.5,-606 863.5,-612 857.5,-612"/>
<text text-anchor="middle" x="842" y="-591.5" font-family="sans" font-size="10.00" fill="#000000">checkm</text>
</g>
<!-- 3&#45;&gt;0 -->
<g id="edge5" class="edge">
<title>3&#45;&gt;0</title>
<path fill="none" stroke="#c0c0c0" stroke-width="2" d="M818.2798,-575.8314C806.5906,-566.8779 792.3312,-555.9558 779.7191,-546.2955"/>
<polygon fill="#c0c0c0" stroke="#c0c0c0" stroke-width="2" points="781.7797,-543.4651 771.7126,-540.1628 777.5231,-549.0222 781.7797,-543.4651"/>
</g>
<!-- 4 -->
<g id="node5" class="node">
<title>4</title>
<path fill="none" stroke="#56d8b1" stroke-width="2" d="M218,-900C218,-900 130,-900 130,-900 124,-900 118,-894 118,-888 118,-888 118,-876 118,-876 118,-870 124,-864 130,-864 130,-864 218,-864 218,-864 224,-864 230,-870 230,-876 230,-876 230,-888 230,-888 230,-894 224,-900 218,-900"/>
<text text-anchor="middle" x="174" y="-879.5" font-family="sans" font-size="10.00" fill="#000000">anvi_run_ncbi_cogs</text>
</g>
<!-- 4&#45;&gt;0 -->
<g id="edge3" class="edge">
<title>4&#45;&gt;0</title>
<path fill="none" stroke="#c0c0c0" stroke-width="2" d="M177.108,-863.8777C181.5016,-836.6417 189,-783.4948 189,-738 189,-738 189,-738 189,-666 189,-558.0313 585.0093,-529.7996 710.402,-523.5665"/>
<polygon fill="#c0c0c0" stroke="#c0c0c0" stroke-width="2" points="710.8384,-527.0498 720.6599,-523.0762 710.5041,-520.0577 710.8384,-527.0498"/>
</g>
<!-- 5 -->
<g id="node6" class="node">
<title>5</title>
<path fill="none" stroke="#56d8c9" stroke-width="2" d="M518,-612C518,-612 392,-612 392,-612 386,-612 380,-606 380,-600 380,-600 380,-588 380,-588 380,-582 386,-576 392,-576 392,-576 518,-576 518,-576 524,-576 530,-582 530,-588 530,-588 530,-600 530,-600 530,-606 524,-612 518,-612"/>
<text text-anchor="middle" x="455" y="-591.5" font-family="sans" font-size="10.00" fill="#000000">anvi_import_cat_taxonomy</text>
</g>
<!-- 5&#45;&gt;0 -->
<g id="edge7" class="edge">
<title>5&#45;&gt;0</title>
<path fill="none" stroke="#c0c0c0" stroke-width="2" d="M528.5581,-575.9243C586.7114,-561.6341 665.4518,-542.2849 711.0842,-531.0715"/>
<polygon fill="#c0c0c0" stroke="#c0c0c0" stroke-width="2" points="711.9706,-534.4579 720.8464,-528.6725 710.3001,-527.6601 711.9706,-534.4579"/>
</g>
<!-- 6 -->
<g id="node7" class="node">
<title>6</title>
<path fill="none" stroke="#56d8c1" stroke-width="2" d="M800,-684C800,-684 696,-684 696,-684 690,-684 684,-678 684,-672 684,-672 684,-660 684,-660 684,-654 690,-648 696,-648 696,-648 800,-648 800,-648 806,-648 812,-654 812,-660 812,-660 812,-672 812,-672 812,-678 806,-684 800,-684"/>
<text text-anchor="middle" x="748" y="-663.5" font-family="sans" font-size="10.00" fill="#000000">anvi_import_metabat2</text>
</g>
<!-- 6&#45;&gt;0 -->
<g id="edge6" class="edge">
<title>6&#45;&gt;0</title>
<path fill="none" stroke="#c0c0c0" stroke-width="2" d="M748,-647.7623C748,-623.201 748,-579.2474 748,-550.3541"/>
<polygon fill="#c0c0c0" stroke="#c0c0c0" stroke-width="2" points="751.5001,-550.0896 748,-540.0896 744.5001,-550.0897 751.5001,-550.0896"/>
</g>
<!-- 7 -->
<g id="node8" class="node">
<title>7</title>
<path fill="none" stroke="#56d8a2" stroke-width="2" d="M918.5,-1260C918.5,-1260 775.5,-1260 775.5,-1260 769.5,-1260 763.5,-1254 763.5,-1248 763.5,-1248 763.5,-1236 763.5,-1236 763.5,-1230 769.5,-1224 775.5,-1224 775.5,-1224 918.5,-1224 918.5,-1224 924.5,-1224 930.5,-1230 930.5,-1236 930.5,-1236 930.5,-1248 930.5,-1248 930.5,-1254 924.5,-1260 918.5,-1260"/>
<text text-anchor="middle" x="847" y="-1239.5" font-family="sans" font-size="10.00" fill="#000000">collect_assembly_stats_hybrid</text>
</g>
<!-- 7&#45;&gt;0 -->
<g id="edge2" class="edge">
<title>7&#45;&gt;0</title>
<path fill="none" stroke="#c0c0c0" stroke-width="2" d="M930.9829,-1224.9144C970.59,-1215.2628 1012.1711,-1202.2842 1026,-1188 1054.7948,-1158.2571 1050,-1139.3978 1050,-1098 1050,-1098 1050,-1098 1050,-738 1050,-633.31 966.873,-632.9063 879,-576 849.4847,-556.886 812.0866,-542.2812 784.8115,-533.1094"/>
<polygon fill="#c0c0c0" stroke="#c0c0c0" stroke-width="2" points="785.8468,-529.7656 775.2541,-529.9778 783.6672,-536.4176 785.8468,-529.7656"/>
</g>
<!-- 8 -->
<g id="node9" class="node">
<title>8</title>
<path fill="none" stroke="#56a2d8" stroke-width="2" d="M586,-1404C586,-1404 460,-1404 460,-1404 454,-1404 448,-1398 448,-1392 448,-1392 448,-1380 448,-1380 448,-1374 454,-1368 460,-1368 460,-1368 586,-1368 586,-1368 592,-1368 598,-1374 598,-1380 598,-1380 598,-1392 598,-1392 598,-1398 592,-1404 586,-1404"/>
<text text-anchor="middle" x="523" y="-1383.5" font-family="sans" font-size="10.00" fill="#000000">CAT_add_names_assembly</text>
</g>
<!-- 8&#45;&gt;1 -->
<g id="edge8" class="edge">
<title>8&#45;&gt;1</title>
<path fill="none" stroke="#c0c0c0" stroke-width="2" d="M447.9428,-1378.1245C378.418,-1369.6036 281.2024,-1354.1913 250,-1332 176.9369,-1280.0373 136.7597,-1175.8781 120.9754,-1125.9462"/>
<polygon fill="#c0c0c0" stroke="#c0c0c0" stroke-width="2" points="124.2507,-1124.6884 117.9744,-1116.1527 117.5579,-1126.7393 124.2507,-1124.6884"/>
</g>
<!-- 8&#45;&gt;7 -->
<g id="edge19" class="edge">
<title>8&#45;&gt;7</title>
<path fill="none" stroke="#c0c0c0" stroke-width="2" d="M587.5555,-1367.9208C618.211,-1358.5367 655.0457,-1346.0878 687,-1332 730.8495,-1312.6679 778.3865,-1284.9966 810.1516,-1265.4516"/>
<polygon fill="#c0c0c0" stroke="#c0c0c0" stroke-width="2" points="812.0205,-1268.411 818.6766,-1260.168 808.3329,-1262.4611 812.0205,-1268.411"/>
</g>
<!-- 14 -->
<g id="node15" class="node">
<title>14</title>
<path fill="none" stroke="#59d856" stroke-width="2" d="M406.5,-684C406.5,-684 237.5,-684 237.5,-684 231.5,-684 225.5,-678 225.5,-672 225.5,-672 225.5,-660 225.5,-660 225.5,-654 231.5,-648 237.5,-648 237.5,-648 406.5,-648 406.5,-648 412.5,-648 418.5,-654 418.5,-660 418.5,-660 418.5,-672 418.5,-672 418.5,-678 412.5,-684 406.5,-684"/>
<text text-anchor="middle" x="322" y="-663.5" font-family="sans" font-size="10.00" fill="#000000">prepare_anvi_import_cat_taxonomy</text>
</g>
<!-- 8&#45;&gt;14 -->
<g id="edge32" class="edge">
<title>8&#45;&gt;14</title>
<path fill="none" stroke="#c0c0c0" stroke-width="2" d="M447.7386,-1376.463C371.2681,-1362.0642 264,-1326.7603 264,-1242 264,-1242 264,-1242 264,-1026 264,-900.886 298.5677,-754.3917 314.3301,-694.0958"/>
<polygon fill="#c0c0c0" stroke="#c0c0c0" stroke-width="2" points="317.7765,-694.7534 316.9543,-684.1906 311.01,-692.9607 317.7765,-694.7534"/>
</g>
<!-- 34 -->
<g id="node35" class="node">
<title>34</title>
<path fill="none" stroke="#56d8a9" stroke-width="2" d="M665.5,-1332C665.5,-1332 380.5,-1332 380.5,-1332 374.5,-1332 368.5,-1326 368.5,-1320 368.5,-1320 368.5,-1308 368.5,-1308 368.5,-1302 374.5,-1296 380.5,-1296 380.5,-1296 665.5,-1296 665.5,-1296 671.5,-1296 677.5,-1302 677.5,-1308 677.5,-1308 677.5,-1320 677.5,-1320 677.5,-1326 671.5,-1332 665.5,-1332"/>
<text text-anchor="middle" x="523" y="-1311.5" font-family="sans" font-size="10.00" fill="#000000">CAT_filter_unclassified_and_eukaryotic_scaffolds_for_anvio</text>
</g>
<!-- 8&#45;&gt;34 -->
<g id="edge64" class="edge">
<title>8&#45;&gt;34</title>
<path fill="none" stroke="#c0c0c0" stroke-width="2" d="M523,-1367.8314C523,-1360.131 523,-1350.9743 523,-1342.4166"/>
<polygon fill="#c0c0c0" stroke="#c0c0c0" stroke-width="2" points="526.5001,-1342.4132 523,-1332.4133 519.5001,-1342.4133 526.5001,-1342.4132"/>
</g>
<!-- 43 -->
<g id="node44" class="node">
<title>43</title>
<path fill="none" stroke="#56b1d8" stroke-width="2" d="M1028,-1332C1028,-1332 802,-1332 802,-1332 796,-1332 790,-1326 790,-1320 790,-1320 790,-1308 790,-1308 790,-1302 796,-1296 802,-1296 802,-1296 1028,-1296 1028,-1296 1034,-1296 1040,-1302 1040,-1308 1040,-1308 1040,-1320 1040,-1320 1040,-1326 1034,-1332 1028,-1332"/>
<text text-anchor="middle" x="915" y="-1311.5" font-family="sans" font-size="10.00" fill="#000000">CAT_filter_contignames_first_spades_assembly</text>
</g>
<!-- 8&#45;&gt;43 -->
<g id="edge76" class="edge">
<title>8&#45;&gt;43</title>
<path fill="none" stroke="#c0c0c0" stroke-width="2" d="M598.1177,-1372.2029C657.22,-1361.3474 740.3811,-1346.0729 806.6815,-1333.8952"/>
<polygon fill="#c0c0c0" stroke="#c0c0c0" stroke-width="2" points="807.55,-1337.2943 816.7532,-1332.0453 806.2854,-1330.4095 807.55,-1337.2943"/>
</g>
<!-- 9 -->
<g id="node10" class="node">
<title>9</title>
<path fill="none" stroke="#d86656" stroke-width="2" d="M1137,-756C1137,-756 1099,-756 1099,-756 1093,-756 1087,-750 1087,-744 1087,-744 1087,-732 1087,-732 1087,-726 1093,-720 1099,-720 1099,-720 1137,-720 1137,-720 1143,-720 1149,-726 1149,-732 1149,-732 1149,-744 1149,-744 1149,-750 1143,-756 1137,-756"/>
<text text-anchor="middle" x="1118" y="-735.5" font-family="sans" font-size="10.00" fill="#000000">CAT_bins</text>
</g>
<!-- 9&#45;&gt;2 -->
<g id="edge9" class="edge">
<title>9&#45;&gt;2</title>
<path fill="none" stroke="#c0c0c0" stroke-width="2" d="M1120.2711,-719.8314C1121.2336,-712.131 1122.3782,-702.9743 1123.4479,-694.4166"/>
<polygon fill="#c0c0c0" stroke="#c0c0c0" stroke-width="2" points="1126.9309,-694.7702 1124.6983,-684.4133 1119.9849,-693.9019 1126.9309,-694.7702"/>
</g>
<!-- 10 -->
<g id="node11" class="node">
<title>10</title>
<path fill="none" stroke="#78d856" stroke-width="2" d="M1198,-1476C1198,-1476 1130,-1476 1130,-1476 1124,-1476 1118,-1470 1118,-1464 1118,-1464 1118,-1452 1118,-1452 1118,-1446 1124,-1440 1130,-1440 1130,-1440 1198,-1440 1198,-1440 1204,-1440 1210,-1446 1210,-1452 1210,-1452 1210,-1464 1210,-1464 1210,-1470 1204,-1476 1198,-1476"/>
<text text-anchor="middle" x="1164" y="-1455.5" font-family="sans" font-size="10.00" fill="#000000">CAT_customise</text>
</g>
<!-- 10&#45;&gt;2 -->
<g id="edge10" class="edge">
<title>10&#45;&gt;2</title>
<path fill="none" stroke="#c0c0c0" stroke-width="2" d="M1164,-1439.8146C1164,-1412.4983 1164,-1359.25 1164,-1314 1164,-1314 1164,-1314 1164,-1026 1164,-889.9739 1194.3312,-851.0845 1158,-720 1155.4132,-710.6668 1150.8401,-701.2523 1145.9878,-692.9565"/>
<polygon fill="#c0c0c0" stroke="#c0c0c0" stroke-width="2" points="1148.9494,-691.0911 1140.6937,-684.4507 1143.0064,-694.79 1148.9494,-691.0911"/>
</g>
<!-- 10&#45;&gt;8 -->
<g id="edge20" class="edge">
<title>10&#45;&gt;8</title>
<path fill="none" stroke="#c0c0c0" stroke-width="2" d="M1117.9009,-1452.8219C1011.1306,-1440.829 745.5404,-1410.9967 608.2253,-1395.5729"/>
<polygon fill="#c0c0c0" stroke="#c0c0c0" stroke-width="2" points="608.4901,-1392.0807 598.1619,-1394.4425 607.7087,-1399.037 608.4901,-1392.0807"/>
</g>
<!-- 10&#45;&gt;9 -->
<g id="edge24" class="edge">
<title>10&#45;&gt;9</title>
<path fill="none" stroke="#c0c0c0" stroke-width="2" d="M1146.7544,-1439.6186C1124.3312,-1413.719 1088,-1364.0348 1088,-1314 1088,-1314 1088,-1314 1088,-882 1088,-841.0614 1099.7646,-794.926 1108.5593,-766.1567"/>
<polygon fill="#c0c0c0" stroke="#c0c0c0" stroke-width="2" points="1111.9711,-766.9746 1111.6378,-756.385 1105.2946,-764.8712 1111.9711,-766.9746"/>
</g>
<!-- 17 -->
<g id="node18" class="node">
<title>17</title>
<path fill="none" stroke="#568ad8" stroke-width="2" d="M1439,-36C1439,-36 1291,-36 1291,-36 1285,-36 1279,-30 1279,-24 1279,-24 1279,-12 1279,-12 1279,-6 1285,0 1291,0 1291,0 1439,0 1439,0 1445,0 1451,-6 1451,-12 1451,-12 1451,-24 1451,-24 1451,-30 1445,-36 1439,-36"/>
<text text-anchor="middle" x="1365" y="-15.5" font-family="sans" font-size="10.00" fill="#000000">CAT_classify_contigs_assembly</text>
</g>
<!-- 10&#45;&gt;17 -->
<g id="edge42" class="edge">
<title>10&#45;&gt;17</title>
<path fill="none" stroke="#c0c0c0" stroke-width="2" d="M1210.1632,-1448.1239C1301.3877,-1427.2713 1496,-1375.5705 1496,-1314 1496,-1314 1496,-1314 1496,-162 1496,-108.6527 1446.1968,-66.3462 1408.0063,-41.7467"/>
<polygon fill="#c0c0c0" stroke="#c0c0c0" stroke-width="2" points="1409.4135,-38.4994 1399.0767,-36.1752 1405.708,-44.4382 1409.4135,-38.4994"/>
</g>
<!-- 18 -->
<g id="node19" class="node">
<title>18</title>
<path fill="none" stroke="#d8ac56" stroke-width="2" d="M1271.5,-828C1271.5,-828 1230.5,-828 1230.5,-828 1224.5,-828 1218.5,-822 1218.5,-816 1218.5,-816 1218.5,-804 1218.5,-804 1218.5,-798 1224.5,-792 1230.5,-792 1230.5,-792 1271.5,-792 1271.5,-792 1277.5,-792 1283.5,-798 1283.5,-804 1283.5,-804 1283.5,-816 1283.5,-816 1283.5,-822 1277.5,-828 1271.5,-828"/>
<text text-anchor="middle" x="1251" y="-807.5" font-family="sans" font-size="10.00" fill="#000000">CAT_build</text>
</g>
<!-- 10&#45;&gt;18 -->
<g id="edge43" class="edge">
<title>10&#45;&gt;18</title>
<path fill="none" stroke="#c0c0c0" stroke-width="2" d="M1172.0588,-1439.7668C1183.2134,-1412.8248 1202,-1360.5405 1202,-1314 1202,-1314 1202,-1314 1202,-1098 1202,-1001.2029 1229.2338,-888.6652 1243.095,-837.6555"/>
<polygon fill="#c0c0c0" stroke="#c0c0c0" stroke-width="2" points="1246.4693,-838.5849 1245.7561,-828.0141 1239.7216,-836.7224 1246.4693,-838.5849"/>
</g>
<!-- 11 -->
<g id="node12" class="node">
<title>11</title>
<path fill="none" stroke="#56d87b" stroke-width="2" d="M972,-828C972,-828 932,-828 932,-828 926,-828 920,-822 920,-816 920,-816 920,-804 920,-804 920,-798 926,-792 932,-792 932,-792 972,-792 972,-792 978,-792 984,-798 984,-804 984,-804 984,-816 984,-816 984,-822 978,-828 972,-828"/>
<text text-anchor="middle" x="952" y="-807.5" font-family="sans" font-size="10.00" fill="#000000">metabat2</text>
</g>
<!-- 11&#45;&gt;3 -->
<g id="edge11" class="edge">
<title>11&#45;&gt;3</title>
<path fill="none" stroke="#c0c0c0" stroke-width="2" d="M956.6497,-791.7284C960.4908,-773.0439 963.9969,-743.5073 955,-720 938.9404,-678.0392 901.7519,-641.2528 874.404,-618.4292"/>
<polygon fill="#c0c0c0" stroke="#c0c0c0" stroke-width="2" points="876.5855,-615.6919 866.6228,-612.087 872.1629,-621.1179 876.5855,-615.6919"/>
</g>
<!-- 11&#45;&gt;9 -->
<g id="edge22" class="edge">
<title>11&#45;&gt;9</title>
<path fill="none" stroke="#c0c0c0" stroke-width="2" d="M984.0065,-796.1177C1010.6698,-784.5528 1048.7962,-768.0161 1077.5667,-755.5373"/>
<polygon fill="#c0c0c0" stroke="#c0c0c0" stroke-width="2" points="1079.1534,-758.6642 1086.9349,-751.474 1076.368,-752.2423 1079.1534,-758.6642"/>
</g>
<!-- 16 -->
<g id="node17" class="node">
<title>16</title>
<path fill="none" stroke="#80d856" stroke-width="2" d="M934,-756C934,-756 788,-756 788,-756 782,-756 776,-750 776,-744 776,-744 776,-732 776,-732 776,-726 782,-720 788,-720 788,-720 934,-720 934,-720 940,-720 946,-726 946,-732 946,-732 946,-744 946,-744 946,-750 940,-756 934,-756"/>
<text text-anchor="middle" x="861" y="-735.5" font-family="sans" font-size="10.00" fill="#000000">prepare_anvi_import_metabat2</text>
</g>
<!-- 11&#45;&gt;16 -->
<g id="edge36" class="edge">
<title>11&#45;&gt;16</title>
<path fill="none" stroke="#c0c0c0" stroke-width="2" d="M929.0369,-791.8314C917.8285,-782.9632 904.1791,-772.1637 892.0561,-762.5718"/>
<polygon fill="#c0c0c0" stroke="#c0c0c0" stroke-width="2" points="893.9697,-759.6229 883.9558,-756.1628 889.6263,-765.1125 893.9697,-759.6229"/>
</g>
<!-- 12 -->
<g id="node13" class="node">
<title>12</title>
<path fill="none" stroke="#61d856" stroke-width="2" d="M508,-972C508,-972 380,-972 380,-972 374,-972 368,-966 368,-960 368,-960 368,-948 368,-948 368,-942 374,-936 380,-936 380,-936 508,-936 508,-936 514,-936 520,-942 520,-948 520,-948 520,-960 520,-960 520,-966 514,-972 508,-972"/>
<text text-anchor="middle" x="444" y="-951.5" font-family="sans" font-size="10.00" fill="#000000">anvi_gen_contigs_database</text>
</g>
<!-- 12&#45;&gt;4 -->
<g id="edge12" class="edge">
<title>12&#45;&gt;4</title>
<path fill="none" stroke="#c0c0c0" stroke-width="2" d="M376.2161,-935.9243C334.5668,-924.8178 281.4579,-910.6554 240.1192,-899.6318"/>
<polygon fill="#c0c0c0" stroke="#c0c0c0" stroke-width="2" points="240.9801,-896.2391 230.4159,-897.0442 239.1764,-903.0028 240.9801,-896.2391"/>
</g>
<!-- 12&#45;&gt;6 -->
<g id="edge16" class="edge">
<title>12&#45;&gt;6</title>
<path fill="none" stroke="#c0c0c0" stroke-width="2" d="M520.0129,-944.1878C615.6988,-931.4707 768.6856,-909.7713 777,-900 790.1113,-884.5913 765.6777,-753.4316 753.8679,-694.487"/>
<polygon fill="#c0c0c0" stroke="#c0c0c0" stroke-width="2" points="757.2339,-693.4734 751.8216,-684.3653 750.3727,-694.8606 757.2339,-693.4734"/>
</g>
<!-- 15 -->
<g id="node16" class="node">
<title>15</title>
<path fill="none" stroke="#5682d8" stroke-width="2" d="M480,-756C480,-756 430,-756 430,-756 424,-756 418,-750 418,-744 418,-744 418,-732 418,-732 418,-726 424,-720 430,-720 430,-720 480,-720 480,-720 486,-720 492,-726 492,-732 492,-732 492,-744 492,-744 492,-750 486,-756 480,-756"/>
<text text-anchor="middle" x="455" y="-735.5" font-family="sans" font-size="10.00" fill="#000000">anvi_merge</text>
</g>
<!-- 12&#45;&gt;15 -->
<g id="edge34" class="edge">
<title>12&#45;&gt;15</title>
<path fill="none" stroke="#c0c0c0" stroke-width="2" d="M393.4559,-935.8142C377.6473,-927.4611 361.9992,-915.8046 353,-900 345.083,-886.096 348.1473,-879.2463 353,-864 366.0734,-822.9256 400.0122,-785.8998 425.171,-762.7798"/>
<polygon fill="#c0c0c0" stroke="#c0c0c0" stroke-width="2" points="427.5547,-765.3434 432.6642,-756.062 422.882,-760.1313 427.5547,-765.3434"/>
</g>
<!-- 24 -->
<g id="node25" class="node">
<title>24</title>
<path fill="none" stroke="#d8d356" stroke-width="2" d="M546.5,-828C546.5,-828 425.5,-828 425.5,-828 419.5,-828 413.5,-822 413.5,-816 413.5,-816 413.5,-804 413.5,-804 413.5,-798 419.5,-792 425.5,-792 425.5,-792 546.5,-792 546.5,-792 552.5,-792 558.5,-798 558.5,-804 558.5,-804 558.5,-816 558.5,-816 558.5,-822 552.5,-828 546.5,-828"/>
<text text-anchor="middle" x="486" y="-807.5" font-family="sans" font-size="10.00" fill="#000000">anvi_profile_binningsignal</text>
</g>
<!-- 12&#45;&gt;24 -->
<g id="edge47" class="edge">
<title>12&#45;&gt;24</title>
<path fill="none" stroke="#c0c0c0" stroke-width="2" d="M452.7834,-935.8405C457.5081,-925.5181 463.1401,-912.2454 467,-900 473.3912,-879.7242 478.2733,-856.1982 481.4875,-838.2853"/>
<polygon fill="#c0c0c0" stroke="#c0c0c0" stroke-width="2" points="484.977,-838.6455 483.2289,-828.1959 478.079,-837.4549 484.977,-838.6455"/>
</g>
<!-- 30 -->
<g id="node31" class="node">
<title>30</title>
<path fill="none" stroke="#567bd8" stroke-width="2" d="M445.5,-900C445.5,-900 374.5,-900 374.5,-900 368.5,-900 362.5,-894 362.5,-888 362.5,-888 362.5,-876 362.5,-876 362.5,-870 368.5,-864 374.5,-864 374.5,-864 445.5,-864 445.5,-864 451.5,-864 457.5,-870 457.5,-876 457.5,-876 457.5,-888 457.5,-888 457.5,-894 451.5,-900 445.5,-900"/>
<text text-anchor="middle" x="410" y="-879.5" font-family="sans" font-size="10.00" fill="#000000">anvi_run_hmms</text>
</g>
<!-- 12&#45;&gt;30 -->
<g id="edge60" class="edge">
<title>12&#45;&gt;30</title>
<path fill="none" stroke="#c0c0c0" stroke-width="2" d="M435.4204,-935.8314C431.6642,-927.8771 427.1743,-918.369 423.0202,-909.5723"/>
<polygon fill="#c0c0c0" stroke="#c0c0c0" stroke-width="2" points="426.1301,-907.9612 418.6952,-900.4133 419.8004,-910.9503 426.1301,-907.9612"/>
</g>
<!-- 13 -->
<g id="node14" class="node">
<title>13</title>
<path fill="none" stroke="#bed856" stroke-width="2" d="M223.5,-972C223.5,-972 124.5,-972 124.5,-972 118.5,-972 112.5,-966 112.5,-960 112.5,-960 112.5,-948 112.5,-948 112.5,-942 118.5,-936 124.5,-936 124.5,-936 223.5,-936 223.5,-936 229.5,-936 235.5,-942 235.5,-948 235.5,-948 235.5,-960 235.5,-960 235.5,-966 229.5,-972 223.5,-972"/>
<text text-anchor="middle" x="174" y="-951.5" font-family="sans" font-size="10.00" fill="#000000">anvi_setup_ncbi_cogs</text>
</g>
<!-- 13&#45;&gt;4 -->
<g id="edge13" class="edge">
<title>13&#45;&gt;4</title>
<path fill="none" stroke="#c0c0c0" stroke-width="2" d="M174,-935.8314C174,-928.131 174,-918.9743 174,-910.4166"/>
<polygon fill="#c0c0c0" stroke="#c0c0c0" stroke-width="2" points="177.5001,-910.4132 174,-900.4133 170.5001,-910.4133 177.5001,-910.4132"/>
</g>
<!-- 14&#45;&gt;5 -->
<g id="edge14" class="edge">
<title>14&#45;&gt;5</title>
<path fill="none" stroke="#c0c0c0" stroke-width="2" d="M355.5615,-647.8314C372.8881,-638.4516 394.2058,-626.9112 412.6536,-616.9244"/>
<polygon fill="#c0c0c0" stroke="#c0c0c0" stroke-width="2" points="414.3214,-620.0015 421.4492,-612.1628 410.9889,-613.8457 414.3214,-620.0015"/>
</g>
<!-- 15&#45;&gt;5 -->
<g id="edge15" class="edge">
<title>15&#45;&gt;5</title>
<path fill="none" stroke="#c0c0c0" stroke-width="2" d="M455,-719.7623C455,-695.201 455,-651.2474 455,-622.3541"/>
<polygon fill="#c0c0c0" stroke="#c0c0c0" stroke-width="2" points="458.5001,-622.0896 455,-612.0896 451.5001,-622.0897 458.5001,-622.0896"/>
</g>
<!-- 15&#45;&gt;6 -->
<g id="edge18" class="edge">
<title>15&#45;&gt;6</title>
<path fill="none" stroke="#c0c0c0" stroke-width="2" d="M492.1087,-728.8812C537.6713,-717.6849 616.0314,-698.4291 674.0657,-684.1681"/>
<polygon fill="#c0c0c0" stroke="#c0c0c0" stroke-width="2" points="675.0476,-687.5311 683.9234,-681.7458 673.3771,-680.7333 675.0476,-687.5311"/>
</g>
<!-- 15&#45;&gt;14 -->
<g id="edge33" class="edge">
<title>15&#45;&gt;14</title>
<path fill="none" stroke="#c0c0c0" stroke-width="2" d="M421.4385,-719.8314C404.1119,-710.4516 382.7942,-698.9112 364.3464,-688.9244"/>
<polygon fill="#c0c0c0" stroke="#c0c0c0" stroke-width="2" points="366.0111,-685.8457 355.5508,-684.1628 362.6786,-692.0015 366.0111,-685.8457"/>
</g>
<!-- 16&#45;&gt;6 -->
<g id="edge17" class="edge">
<title>16&#45;&gt;6</title>
<path fill="none" stroke="#c0c0c0" stroke-width="2" d="M832.4853,-719.8314C818.1658,-710.7074 800.6376,-699.539 785.2662,-689.7449"/>
<polygon fill="#c0c0c0" stroke="#c0c0c0" stroke-width="2" points="786.8199,-686.5847 776.5055,-684.1628 783.0583,-692.4882 786.8199,-686.5847"/>
</g>
<!-- 17&#45;&gt;8 -->
<g id="edge21" class="edge">
<title>17&#45;&gt;8</title>
<path fill="none" stroke="#c0c0c0" stroke-width="2" d="M1278.837,-22.5498C979.0872,-38.9399 0,-97.4185 0,-162 0,-1242 0,-1242 0,-1242 0,-1331.703 289.6025,-1367.6418 437.8022,-1380.1602"/>
<polygon fill="#c0c0c0" stroke="#c0c0c0" stroke-width="2" points="437.534,-1383.6498 447.7886,-1380.9863 438.1112,-1376.6737 437.534,-1383.6498"/>
</g>
<!-- 18&#45;&gt;9 -->
<g id="edge23" class="edge">
<title>18&#45;&gt;9</title>
<path fill="none" stroke="#c0c0c0" stroke-width="2" d="M1218.4645,-792.3868C1200.2739,-782.5393 1177.4484,-770.1826 1158.1531,-759.737"/>
<polygon fill="#c0c0c0" stroke="#c0c0c0" stroke-width="2" points="1159.7441,-756.6184 1149.2837,-754.9355 1156.4115,-762.7742 1159.7441,-756.6184"/>
</g>
<!-- 18&#45;&gt;17 -->
<g id="edge41" class="edge">
<title>18&#45;&gt;17</title>
<path fill="none" stroke="#c0c0c0" stroke-width="2" d="M1262.8564,-791.7399C1295.1033,-740.2605 1382,-588.672 1382,-450 1382,-450 1382,-450 1382,-378 1382,-254.3412 1371.8681,-107.0552 1367.2481,-46.3227"/>
<polygon fill="#c0c0c0" stroke="#c0c0c0" stroke-width="2" points="1370.7371,-46.0447 1366.4789,-36.3432 1363.7578,-46.5827 1370.7371,-46.0447"/>
</g>
<!-- 19 -->
<g id="node20" class="node">
<title>19</title>
<path fill="none" stroke="#5673d8" stroke-width="2" d="M1129.5,-1548C1129.5,-1548 1064.5,-1548 1064.5,-1548 1058.5,-1548 1052.5,-1542 1052.5,-1536 1052.5,-1536 1052.5,-1524 1052.5,-1524 1052.5,-1518 1058.5,-1512 1064.5,-1512 1064.5,-1512 1129.5,-1512 1129.5,-1512 1135.5,-1512 1141.5,-1518 1141.5,-1524 1141.5,-1524 1141.5,-1536 1141.5,-1536 1141.5,-1542 1135.5,-1548 1129.5,-1548"/>
<text text-anchor="middle" x="1097" y="-1527.5" font-family="sans" font-size="10.00" fill="#000000">CAT_download</text>
</g>
<!-- 19&#45;&gt;10 -->
<g id="edge25" class="edge">
<title>19&#45;&gt;10</title>
<path fill="none" stroke="#c0c0c0" stroke-width="2" d="M1113.9069,-1511.8314C1121.7813,-1503.3694 1131.292,-1493.1489 1139.9013,-1483.8971"/>
<polygon fill="#c0c0c0" stroke="#c0c0c0" stroke-width="2" points="1142.6153,-1486.1183 1146.8654,-1476.4133 1137.4908,-1481.3497 1142.6153,-1486.1183"/>
</g>
<!-- 20 -->
<g id="node21" class="node">
<title>20</title>
<path fill="none" stroke="#565bd8" stroke-width="2" d="M1290.5,-1548C1290.5,-1548 1171.5,-1548 1171.5,-1548 1165.5,-1548 1159.5,-1542 1159.5,-1536 1159.5,-1536 1159.5,-1524 1159.5,-1524 1159.5,-1518 1165.5,-1512 1171.5,-1512 1171.5,-1512 1290.5,-1512 1290.5,-1512 1296.5,-1512 1302.5,-1518 1302.5,-1524 1302.5,-1524 1302.5,-1536 1302.5,-1536 1302.5,-1542 1296.5,-1548 1290.5,-1548"/>
<text text-anchor="middle" x="1231" y="-1527.5" font-family="sans" font-size="10.00" fill="#000000">download_azolla_proteins</text>
</g>
<!-- 20&#45;&gt;10 -->
<g id="edge26" class="edge">
<title>20&#45;&gt;10</title>
<path fill="none" stroke="#c0c0c0" stroke-width="2" d="M1214.0931,-1511.8314C1206.2187,-1503.3694 1196.708,-1493.1489 1188.0987,-1483.8971"/>
<polygon fill="#c0c0c0" stroke="#c0c0c0" stroke-width="2" points="1190.5092,-1481.3497 1181.1346,-1476.4133 1185.3847,-1486.1183 1190.5092,-1481.3497"/>
</g>
<!-- 21 -->
<g id="node22" class="node">
<title>21</title>
<path fill="none" stroke="#d89556" stroke-width="2" d="M592,-1188C592,-1188 454,-1188 454,-1188 448,-1188 442,-1182 442,-1176 442,-1176 442,-1164 442,-1164 442,-1158 448,-1152 454,-1152 454,-1152 592,-1152 592,-1152 598,-1152 604,-1158 604,-1164 604,-1164 604,-1176 604,-1176 604,-1182 598,-1188 592,-1188"/>
<text text-anchor="middle" x="523" y="-1167.5" font-family="sans" font-size="10.00" fill="#000000">shorten_scaffold_names_anvi</text>
</g>
<!-- 21&#45;&gt;11 -->
<g id="edge27" class="edge">
<title>21&#45;&gt;11</title>
<path fill="none" stroke="#c0c0c0" stroke-width="2" d="M604.1506,-1160.9373C733.9964,-1144.1525 974,-1102.7476 974,-1026 974,-1026 974,-1026 974,-954 974,-913.2316 965.2765,-866.7078 958.8159,-837.8425"/>
<polygon fill="#c0c0c0" stroke="#c0c0c0" stroke-width="2" points="962.2155,-837.0083 956.5584,-828.0502 955.3944,-838.5809 962.2155,-837.0083"/>
</g>
<!-- 21&#45;&gt;12 -->
<g id="edge30" class="edge">
<title>21&#45;&gt;12</title>
<path fill="none" stroke="#c0c0c0" stroke-width="2" d="M516.4004,-1151.9555C502.5754,-1114.1556 470.4981,-1026.4506 454.0785,-981.5564"/>
<polygon fill="#c0c0c0" stroke="#c0c0c0" stroke-width="2" points="457.3584,-980.3344 450.6364,-972.1451 450.7843,-982.7389 457.3584,-980.3344"/>
</g>
<!-- 21&#45;&gt;14 -->
<g id="edge31" class="edge">
<title>21&#45;&gt;14</title>
<path fill="none" stroke="#c0c0c0" stroke-width="2" d="M502.3121,-1151.8253C466.8922,-1119.4588 394.982,-1048.0553 359,-972 314.5893,-878.1288 316.2482,-750.7341 319.6506,-694.5844"/>
<polygon fill="#c0c0c0" stroke="#c0c0c0" stroke-width="2" points="323.1609,-694.5482 320.3412,-684.3354 316.1767,-694.0775 323.1609,-694.5482"/>
</g>
<!-- 39 -->
<g id="node40" class="node">
<title>39</title>
<path fill="none" stroke="#d8cb56" stroke-width="2" d="M754.5,-1116C754.5,-1116 607.5,-1116 607.5,-1116 601.5,-1116 595.5,-1110 595.5,-1104 595.5,-1104 595.5,-1092 595.5,-1092 595.5,-1086 601.5,-1080 607.5,-1080 607.5,-1080 754.5,-1080 754.5,-1080 760.5,-1080 766.5,-1086 766.5,-1092 766.5,-1092 766.5,-1104 766.5,-1104 766.5,-1110 760.5,-1116 754.5,-1116"/>
<text text-anchor="middle" x="681" y="-1095.5" font-family="sans" font-size="10.00" fill="#000000">bwa_index_assembly_scaffolds</text>
</g>
<!-- 21&#45;&gt;39 -->
<g id="edge69" class="edge">
<title>21&#45;&gt;39</title>
<path fill="none" stroke="#c0c0c0" stroke-width="2" d="M562.8701,-1151.8314C583.9077,-1142.2446 609.8983,-1130.4008 632.1396,-1120.2655"/>
<polygon fill="#c0c0c0" stroke="#c0c0c0" stroke-width="2" points="633.7683,-1123.3697 641.4166,-1116.038 630.8655,-1116.9999 633.7683,-1123.3697"/>
</g>
<!-- 22 -->
<g id="node23" class="node">
<title>22</title>
<path fill="none" stroke="#68d856" stroke-width="2" d="M933.5,-900C933.5,-900 836.5,-900 836.5,-900 830.5,-900 824.5,-894 824.5,-888 824.5,-888 824.5,-876 824.5,-876 824.5,-870 830.5,-864 836.5,-864 836.5,-864 933.5,-864 933.5,-864 939.5,-864 945.5,-870 945.5,-876 945.5,-876 945.5,-888 945.5,-888 945.5,-894 939.5,-900 933.5,-900"/>
<text text-anchor="middle" x="885" y="-879.5" font-family="sans" font-size="10.00" fill="#000000">jgi_summarize_script</text>
</g>
<!-- 22&#45;&gt;11 -->
<g id="edge29" class="edge">
<title>22&#45;&gt;11</title>
<path fill="none" stroke="#c0c0c0" stroke-width="2" d="M901.9069,-863.8314C909.7813,-855.3694 919.292,-845.1489 927.9013,-835.8971"/>
<polygon fill="#c0c0c0" stroke="#c0c0c0" stroke-width="2" points="930.6153,-838.1183 934.8654,-828.4133 925.4908,-833.3497 930.6153,-838.1183"/>
</g>
<!-- 23 -->
<g id="node24" class="node">
<title>23</title>
<path fill="none" stroke="#ced856" stroke-width="2" d="M1379.5,-1188C1379.5,-1188 1242.5,-1188 1242.5,-1188 1236.5,-1188 1230.5,-1182 1230.5,-1176 1230.5,-1176 1230.5,-1164 1230.5,-1164 1230.5,-1158 1236.5,-1152 1242.5,-1152 1242.5,-1152 1379.5,-1152 1379.5,-1152 1385.5,-1152 1391.5,-1158 1391.5,-1164 1391.5,-1164 1391.5,-1176 1391.5,-1176 1391.5,-1182 1385.5,-1188 1379.5,-1188"/>
<text text-anchor="middle" x="1311" y="-1167.5" font-family="sans" font-size="10.00" fill="#000000">shorten_scaffold_names_awk</text>
</g>
<!-- 23&#45;&gt;11 -->
<g id="edge28" class="edge">
<title>23&#45;&gt;11</title>
<path fill="none" stroke="#c0c0c0" stroke-width="2" d="M1292.7036,-1151.6526C1233.4054,-1092.1893 1046.3926,-904.6555 977.6647,-835.7362"/>
<polygon fill="#c0c0c0" stroke="#c0c0c0" stroke-width="2" points="979.7992,-832.9199 970.2596,-828.3104 974.8425,-837.8628 979.7992,-832.9199"/>
</g>
<!-- 23&#45;&gt;39 -->
<g id="edge70" class="edge">
<title>23&#45;&gt;39</title>
<path fill="none" stroke="#c0c0c0" stroke-width="2" d="M1230.2495,-1160.7714C1114.2309,-1147.5121 900.7472,-1123.114 776.8714,-1108.9567"/>
<polygon fill="#c0c0c0" stroke="#c0c0c0" stroke-width="2" points="776.9734,-1105.4457 766.6406,-1107.7875 776.1785,-1112.4004 776.9734,-1105.4457"/>
</g>
<!-- 40 -->
<g id="node41" class="node">
<title>40</title>
<path fill="none" stroke="#56a9d8" stroke-width="2" d="M1328.5,-468C1328.5,-468 1129.5,-468 1129.5,-468 1123.5,-468 1117.5,-462 1117.5,-456 1117.5,-456 1117.5,-444 1117.5,-444 1117.5,-438 1123.5,-432 1129.5,-432 1129.5,-432 1328.5,-432 1328.5,-432 1334.5,-432 1340.5,-438 1340.5,-444 1340.5,-444 1340.5,-456 1340.5,-456 1340.5,-462 1334.5,-468 1328.5,-468"/>
<text text-anchor="middle" x="1229" y="-447.5" font-family="sans" font-size="10.00" fill="#000000">create_filter_fasta_first_spades_assembly</text>
</g>
<!-- 23&#45;&gt;40 -->
<g id="edge71" class="edge">
<title>23&#45;&gt;40</title>
<path fill="none" stroke="#c0c0c0" stroke-width="2" d="M1317.9985,-1151.6679C1327.6853,-1124.6028 1344,-1072.1665 1344,-1026 1344,-1026 1344,-1026 1344,-594 1344,-551.9747 1340.7967,-537.1761 1315,-504 1305.4125,-491.6699 1292.1612,-481.4067 1278.9301,-473.2565"/>
<polygon fill="#c0c0c0" stroke="#c0c0c0" stroke-width="2" points="1280.6778,-470.224 1270.2771,-468.2053 1277.1488,-476.2694 1280.6778,-470.224"/>
</g>
<!-- 24&#45;&gt;15 -->
<g id="edge35" class="edge">
<title>24&#45;&gt;15</title>
<path fill="none" stroke="#c0c0c0" stroke-width="2" d="M478.1774,-791.8314C474.7891,-783.9617 470.7459,-774.5712 466.9924,-765.8533"/>
<polygon fill="#c0c0c0" stroke="#c0c0c0" stroke-width="2" points="470.0973,-764.214 462.9279,-756.4133 463.6679,-766.9822 470.0973,-764.214"/>
</g>
<!-- 25 -->
<g id="node26" class="node">
<title>25</title>
<path fill="none" stroke="#56d873" stroke-width="2" d="M1341.5,-180C1341.5,-180 1222.5,-180 1222.5,-180 1216.5,-180 1210.5,-174 1210.5,-168 1210.5,-168 1210.5,-156 1210.5,-156 1210.5,-150 1216.5,-144 1222.5,-144 1222.5,-144 1341.5,-144 1341.5,-144 1347.5,-144 1353.5,-150 1353.5,-156 1353.5,-156 1353.5,-168 1353.5,-168 1353.5,-174 1347.5,-180 1341.5,-180"/>
<text text-anchor="middle" x="1282" y="-159.5" font-family="sans" font-size="10.00" fill="#000000">spades_second_assembly</text>
</g>
<!-- 25&#45;&gt;17 -->
<g id="edge37" class="edge">
<title>25&#45;&gt;17</title>
<path fill="none" stroke="#c0c0c0" stroke-width="2" d="M1311.0487,-143.9588C1323.6322,-134.7025 1337.4188,-122.3482 1346,-108 1357.2209,-89.2382 1361.8742,-64.8063 1363.7753,-46.1334"/>
<polygon fill="#c0c0c0" stroke="#c0c0c0" stroke-width="2" points="1367.2643,-46.4098 1364.5891,-36.1583 1360.2875,-45.8405 1367.2643,-46.4098"/>
</g>
<!-- 26 -->
<g id="node27" class="node">
<title>26</title>
<path fill="none" stroke="#569ad8" stroke-width="2" d="M1325,-108C1325,-108 1239,-108 1239,-108 1233,-108 1227,-102 1227,-96 1227,-96 1227,-84 1227,-84 1227,-78 1233,-72 1239,-72 1239,-72 1325,-72 1325,-72 1331,-72 1337,-78 1337,-84 1337,-84 1337,-96 1337,-96 1337,-102 1331,-108 1325,-108"/>
<text text-anchor="middle" x="1282" y="-87.5" font-family="sans" font-size="10.00" fill="#000000">CAT_prepare_ORFS</text>
</g>
<!-- 25&#45;&gt;26 -->
<g id="edge52" class="edge">
<title>25&#45;&gt;26</title>
<path fill="none" stroke="#c0c0c0" stroke-width="2" d="M1282,-143.8314C1282,-136.131 1282,-126.9743 1282,-118.4166"/>
<polygon fill="#c0c0c0" stroke="#c0c0c0" stroke-width="2" points="1285.5001,-118.4132 1282,-108.4133 1278.5001,-118.4133 1285.5001,-118.4132"/>
</g>
<!-- 28 -->
<g id="node29" class="node">
<title>28</title>
<path fill="none" stroke="#d8b456" stroke-width="2" d="M604,-1260C604,-1260 442,-1260 442,-1260 436,-1260 430,-1254 430,-1248 430,-1248 430,-1236 430,-1236 430,-1230 436,-1224 442,-1224 442,-1224 604,-1224 604,-1224 610,-1224 616,-1230 616,-1236 616,-1236 616,-1248 616,-1248 616,-1254 610,-1260 604,-1260"/>
<text text-anchor="middle" x="523" y="-1239.5" font-family="sans" font-size="10.00" fill="#000000">filter_unclassfied_filter_eukaryotic</text>
</g>
<!-- 25&#45;&gt;28 -->
<g id="edge55" class="edge">
<title>25&#45;&gt;28</title>
<path fill="none" stroke="#c0c0c0" stroke-width="2" d="M1210.4815,-178.1431C1207.6176,-178.7732 1204.782,-179.3942 1202,-180 1126.1124,-196.5247 1085.9335,-161.0973 1031,-216 1002.0842,-244.8996 1012,-265.1184 1012,-306 1012,-1098 1012,-1098 1012,-1098 1012,-1177.7281 769.7734,-1216.5596 626.2841,-1232.5681"/>
<polygon fill="#c0c0c0" stroke="#c0c0c0" stroke-width="2" points="625.6871,-1229.1125 616.1282,-1233.6815 626.4501,-1236.0708 625.6871,-1229.1125"/>
</g>
<!-- 26&#45;&gt;17 -->
<g id="edge40" class="edge">
<title>26&#45;&gt;17</title>
<path fill="none" stroke="#c0c0c0" stroke-width="2" d="M1302.9444,-71.8314C1313.0691,-63.0485 1325.3777,-52.3712 1336.3548,-42.8489"/>
<polygon fill="#c0c0c0" stroke="#c0c0c0" stroke-width="2" points="1338.8019,-45.3595 1344.0623,-36.1628 1334.2149,-40.0718 1338.8019,-45.3595"/>
</g>
<!-- 27 -->
<g id="node28" class="node">
<title>27</title>
<path fill="none" stroke="#56d89a" stroke-width="2" d="M1456,-1260C1456,-1260 1352,-1260 1352,-1260 1346,-1260 1340,-1254 1340,-1248 1340,-1248 1340,-1236 1340,-1236 1340,-1230 1346,-1224 1352,-1224 1352,-1224 1456,-1224 1456,-1224 1462,-1224 1468,-1230 1468,-1236 1468,-1236 1468,-1248 1468,-1248 1468,-1254 1462,-1260 1456,-1260"/>
<text text-anchor="middle" x="1404" y="-1239.5" font-family="sans" font-size="10.00" fill="#000000">spades_first_assembly</text>
</g>
<!-- 27&#45;&gt;17 -->
<g id="edge39" class="edge">
<title>27&#45;&gt;17</title>
<path fill="none" stroke="#c0c0c0" stroke-width="2" d="M1415.7172,-1223.7256C1431.599,-1197.1531 1458,-1145.793 1458,-1098 1458,-1098 1458,-1098 1458,-162 1458,-114.1228 1421.2734,-69.5525 1393.9796,-43.04"/>
<polygon fill="#c0c0c0" stroke="#c0c0c0" stroke-width="2" points="1396.2467,-40.3671 1386.5698,-36.0532 1391.4444,-45.4601 1396.2467,-40.3671"/>
</g>
<!-- 27&#45;&gt;23 -->
<g id="edge46" class="edge">
<title>27&#45;&gt;23</title>
<path fill="none" stroke="#c0c0c0" stroke-width="2" d="M1380.5322,-1223.8314C1368.9673,-1214.8779 1354.8596,-1203.9558 1342.3817,-1194.2955"/>
<polygon fill="#c0c0c0" stroke="#c0c0c0" stroke-width="2" points="1344.5102,-1191.5171 1334.4603,-1188.1628 1340.225,-1197.0521 1344.5102,-1191.5171"/>
</g>
<!-- 27&#45;&gt;26 -->
<g id="edge53" class="edge">
<title>27&#45;&gt;26</title>
<path fill="none" stroke="#c0c0c0" stroke-width="2" d="M1407.3152,-1223.8863C1412.0017,-1196.6615 1420,-1143.5285 1420,-1098 1420,-1098 1420,-1098 1420,-378 1420,-270.959 1424.3962,-231.6829 1363,-144 1354.4147,-131.739 1342.0755,-121.4986 1329.6072,-113.3482"/>
<polygon fill="#c0c0c0" stroke="#c0c0c0" stroke-width="2" points="1331.3481,-110.3098 1320.9992,-108.0403 1327.6741,-116.2681 1331.3481,-110.3098"/>
</g>
<!-- 28&#45;&gt;21 -->
<g id="edge44" class="edge">
<title>28&#45;&gt;21</title>
<path fill="none" stroke="#c0c0c0" stroke-width="2" d="M523,-1223.8314C523,-1216.131 523,-1206.9743 523,-1198.4166"/>
<polygon fill="#c0c0c0" stroke="#c0c0c0" stroke-width="2" points="526.5001,-1198.4132 523,-1188.4133 519.5001,-1198.4133 526.5001,-1198.4132"/>
</g>
<!-- 29 -->
<g id="node30" class="node">
<title>29</title>
<path fill="none" stroke="#d6d856" stroke-width="2" d="M716,-972C716,-972 604,-972 604,-972 598,-972 592,-966 592,-960 592,-960 592,-948 592,-948 592,-942 598,-936 604,-936 604,-936 716,-936 716,-936 722,-936 728,-942 728,-948 728,-948 728,-960 728,-960 728,-966 722,-972 716,-972"/>
<text text-anchor="middle" x="660" y="-951.5" font-family="sans" font-size="10.00" fill="#000000">backmap_samtools_sort</text>
</g>
<!-- 29&#45;&gt;22 -->
<g id="edge45" class="edge">
<title>29&#45;&gt;22</title>
<path fill="none" stroke="#c0c0c0" stroke-width="2" d="M716.4866,-935.9243C747.5129,-925.9959 786.1703,-913.6255 818.6306,-903.2382"/>
<polygon fill="#c0c0c0" stroke="#c0c0c0" stroke-width="2" points="820.0327,-906.4645 828.4902,-900.0831 817.8992,-899.7975 820.0327,-906.4645"/>
</g>
<!-- 29&#45;&gt;24 -->
<g id="edge49" class="edge">
<title>29&#45;&gt;24</title>
<path fill="none" stroke="#c0c0c0" stroke-width="2" d="M605.1808,-935.9221C584.4713,-927.2786 561.6653,-915.4005 544,-900 524.0116,-882.5743 508.2897,-856.622 498.2862,-837.0572"/>
<polygon fill="#c0c0c0" stroke="#c0c0c0" stroke-width="2" points="501.3991,-835.4559 493.8411,-828.0311 495.1193,-838.5486 501.3991,-835.4559"/>
</g>
<!-- 31 -->
<g id="node32" class="node">
<title>31</title>
<path fill="none" stroke="#56d0d8" stroke-width="2" d="M755.5,-900C755.5,-900 564.5,-900 564.5,-900 558.5,-900 552.5,-894 552.5,-888 552.5,-888 552.5,-876 552.5,-876 552.5,-870 558.5,-864 564.5,-864 564.5,-864 755.5,-864 755.5,-864 761.5,-864 767.5,-870 767.5,-876 767.5,-876 767.5,-888 767.5,-888 767.5,-894 761.5,-900 755.5,-900"/>
<text text-anchor="middle" x="660" y="-879.5" font-family="sans" font-size="10.00" fill="#000000">backmap_samtools_index_binningsignal</text>
</g>
<!-- 29&#45;&gt;31 -->
<g id="edge61" class="edge">
<title>29&#45;&gt;31</title>
<path fill="none" stroke="#c0c0c0" stroke-width="2" d="M660,-935.8314C660,-928.131 660,-918.9743 660,-910.4166"/>
<polygon fill="#c0c0c0" stroke="#c0c0c0" stroke-width="2" points="663.5001,-910.4132 660,-900.4133 656.5001,-910.4133 663.5001,-910.4132"/>
</g>
<!-- 30&#45;&gt;24 -->
<g id="edge48" class="edge">
<title>30&#45;&gt;24</title>
<path fill="none" stroke="#c0c0c0" stroke-width="2" d="M429.178,-863.8314C438.3588,-855.1337 449.5006,-844.5783 459.4776,-835.1265"/>
<polygon fill="#c0c0c0" stroke="#c0c0c0" stroke-width="2" points="461.9757,-837.5811 466.8281,-828.1628 457.1615,-832.4995 461.9757,-837.5811"/>
</g>
<!-- 31&#45;&gt;24 -->
<g id="edge50" class="edge">
<title>31&#45;&gt;24</title>
<path fill="none" stroke="#c0c0c0" stroke-width="2" d="M616.0925,-863.8314C592.7176,-854.159 563.7903,-842.1891 539.1532,-831.9944"/>
<polygon fill="#c0c0c0" stroke="#c0c0c0" stroke-width="2" points="540.1702,-828.6275 529.5918,-828.038 537.4937,-835.0956 540.1702,-828.6275"/>
</g>
<!-- 32 -->
<g id="node33" class="node">
<title>32</title>
<path fill="none" stroke="#afd856" stroke-width="2" d="M1180.5,-180C1180.5,-180 1061.5,-180 1061.5,-180 1055.5,-180 1049.5,-174 1049.5,-168 1049.5,-168 1049.5,-156 1049.5,-156 1049.5,-150 1055.5,-144 1061.5,-144 1061.5,-144 1180.5,-144 1180.5,-144 1186.5,-144 1192.5,-150 1192.5,-156 1192.5,-156 1192.5,-168 1192.5,-168 1192.5,-174 1186.5,-180 1180.5,-180"/>
<text text-anchor="middle" x="1121" y="-159.5" font-family="sans" font-size="10.00" fill="#000000">SPADES_hybrid_assembly</text>
</g>
<!-- 32&#45;&gt;17 -->
<g id="edge38" class="edge">
<title>32&#45;&gt;17</title>
<path fill="none" stroke="#c0c0c0" stroke-width="2" d="M1136.4824,-143.8412C1154.3556,-123.8576 1185.4898,-91.9328 1218,-72 1239.8996,-58.5728 1265.6576,-47.7013 1289.443,-39.3279"/>
<polygon fill="#c0c0c0" stroke="#c0c0c0" stroke-width="2" points="1290.8174,-42.5569 1299.1466,-36.009 1288.5521,-35.9336 1290.8174,-42.5569"/>
</g>
<!-- 32&#45;&gt;26 -->
<g id="edge54" class="edge">
<title>32&#45;&gt;26</title>
<path fill="none" stroke="#c0c0c0" stroke-width="2" d="M1161.6271,-143.8314C1183.1599,-134.2018 1209.7849,-122.295 1232.5152,-112.1299"/>
<polygon fill="#c0c0c0" stroke="#c0c0c0" stroke-width="2" points="1233.9652,-115.3155 1241.665,-108.038 1231.1074,-108.9254 1233.9652,-115.3155"/>
</g>
<!-- 32&#45;&gt;28 -->
<g id="edge57" class="edge">
<title>32&#45;&gt;28</title>
<path fill="none" stroke="#c0c0c0" stroke-width="2" d="M1049.3136,-164.3952C814.5848,-173.1787 84,-208.3596 84,-306 84,-882 84,-882 84,-882 84,-1088.2897 258.2191,-1078.4232 433,-1188 449.2611,-1198.1947 467.3767,-1209.1416 483.068,-1218.496"/>
<polygon fill="#c0c0c0" stroke="#c0c0c0" stroke-width="2" points="481.6099,-1221.7009 491.9943,-1223.802 485.1866,-1215.6837 481.6099,-1221.7009"/>
</g>
<!-- 33 -->
<g id="node34" class="node">
<title>33</title>
<path fill="none" stroke="#56d8d0" stroke-width="2" d="M1272.5,-324C1272.5,-324 1185.5,-324 1185.5,-324 1179.5,-324 1173.5,-318 1173.5,-312 1173.5,-312 1173.5,-300 1173.5,-300 1173.5,-294 1179.5,-288 1185.5,-288 1185.5,-288 1272.5,-288 1272.5,-288 1278.5,-288 1284.5,-294 1284.5,-300 1284.5,-300 1284.5,-312 1284.5,-312 1284.5,-318 1278.5,-324 1272.5,-324"/>
<text text-anchor="middle" x="1229" y="-303.5" font-family="sans" font-size="10.00" fill="#000000">filter_for_assembly</text>
</g>
<!-- 33&#45;&gt;25 -->
<g id="edge51" class="edge">
<title>33&#45;&gt;25</title>
<path fill="none" stroke="#c0c0c0" stroke-width="2" d="M1242.6817,-287.8898C1249.7027,-277.7991 1257.841,-264.7318 1263,-252 1271.0715,-232.0806 1275.9076,-208.2306 1278.6793,-190.0883"/>
<polygon fill="#c0c0c0" stroke="#c0c0c0" stroke-width="2" points="1282.1516,-190.5294 1280.0815,-180.1388 1275.2201,-189.5525 1282.1516,-190.5294"/>
</g>
<!-- 37 -->
<g id="node38" class="node">
<title>37</title>
<path fill="none" stroke="#d8c356" stroke-width="2" d="M1242,-252C1242,-252 1052,-252 1052,-252 1046,-252 1040,-246 1040,-240 1040,-240 1040,-228 1040,-228 1040,-222 1046,-216 1052,-216 1052,-216 1242,-216 1242,-216 1248,-216 1254,-222 1254,-228 1254,-228 1254,-240 1254,-240 1254,-246 1248,-252 1242,-252"/>
<text text-anchor="middle" x="1147" y="-231.5" font-family="sans" font-size="10.00" fill="#000000">concatenate_fastq_for_hybrid_assembly</text>
</g>
<!-- 33&#45;&gt;37 -->
<g id="edge67" class="edge">
<title>33&#45;&gt;37</title>
<path fill="none" stroke="#c0c0c0" stroke-width="2" d="M1208.3079,-287.8314C1198.3052,-279.0485 1186.145,-268.3712 1175.3001,-258.8489"/>
<polygon fill="#c0c0c0" stroke="#c0c0c0" stroke-width="2" points="1177.5092,-256.1308 1167.6854,-252.1628 1172.8906,-261.3909 1177.5092,-256.1308"/>
</g>
<!-- 34&#45;&gt;28 -->
<g id="edge56" class="edge">
<title>34&#45;&gt;28</title>
<path fill="none" stroke="#c0c0c0" stroke-width="2" d="M523,-1295.8314C523,-1288.131 523,-1278.9743 523,-1270.4166"/>
<polygon fill="#c0c0c0" stroke="#c0c0c0" stroke-width="2" points="526.5001,-1270.4132 523,-1260.4133 519.5001,-1270.4133 526.5001,-1270.4132"/>
</g>
<!-- 35 -->
<g id="node36" class="node">
<title>35</title>
<path fill="none" stroke="#d85656" stroke-width="2" d="M860.5,-1044C860.5,-1044 681.5,-1044 681.5,-1044 675.5,-1044 669.5,-1038 669.5,-1032 669.5,-1032 669.5,-1020 669.5,-1020 669.5,-1014 675.5,-1008 681.5,-1008 681.5,-1008 860.5,-1008 860.5,-1008 866.5,-1008 872.5,-1014 872.5,-1020 872.5,-1020 872.5,-1032 872.5,-1032 872.5,-1038 866.5,-1044 860.5,-1044"/>
<text text-anchor="middle" x="771" y="-1023.5" font-family="sans" font-size="10.00" fill="#000000">backmap_bwa_mem_assemblysource</text>
</g>
<!-- 35&#45;&gt;29 -->
<g id="edge59" class="edge">
<title>35&#45;&gt;29</title>
<path fill="none" stroke="#c0c0c0" stroke-width="2" d="M742.99,-1007.8314C728.9239,-998.7074 711.706,-987.539 696.6067,-977.7449"/>
<polygon fill="#c0c0c0" stroke="#c0c0c0" stroke-width="2" points="698.2953,-974.6684 688.001,-972.1628 694.486,-980.5412 698.2953,-974.6684"/>
</g>
<!-- 36 -->
<g id="node37" class="node">
<title>36</title>
<path fill="none" stroke="#c6d856" stroke-width="2" d="M639,-1044C639,-1044 545,-1044 545,-1044 539,-1044 533,-1038 533,-1032 533,-1032 533,-1020 533,-1020 533,-1014 539,-1008 545,-1008 545,-1008 639,-1008 639,-1008 645,-1008 651,-1014 651,-1020 651,-1020 651,-1032 651,-1032 651,-1038 645,-1044 639,-1044"/>
<text text-anchor="middle" x="592" y="-1023.5" font-family="sans" font-size="10.00" fill="#000000">backmap_bwa_mem</text>
</g>
<!-- 36&#45;&gt;29 -->
<g id="edge58" class="edge">
<title>36&#45;&gt;29</title>
<path fill="none" stroke="#c0c0c0" stroke-width="2" d="M609.1593,-1007.8314C617.1511,-999.3694 626.8038,-989.1489 635.5416,-979.8971"/>
<polygon fill="#c0c0c0" stroke="#c0c0c0" stroke-width="2" points="638.288,-982.0866 642.6097,-972.4133 633.1989,-977.2802 638.288,-982.0866"/>
</g>
<!-- 37&#45;&gt;32 -->
<g id="edge62" class="edge">
<title>37&#45;&gt;32</title>
<path fill="none" stroke="#c0c0c0" stroke-width="2" d="M1140.4391,-215.8314C1137.5973,-207.9617 1134.2063,-198.5712 1131.0581,-189.8533"/>
<polygon fill="#c0c0c0" stroke="#c0c0c0" stroke-width="2" points="1134.3377,-188.63 1127.6492,-180.4133 1127.7538,-191.0076 1134.3377,-188.63"/>
</g>
<!-- 38 -->
<g id="node39" class="node">
<title>38</title>
<path fill="none" stroke="#5663d8" stroke-width="2" d="M1340,-396C1340,-396 1118,-396 1118,-396 1112,-396 1106,-390 1106,-384 1106,-384 1106,-372 1106,-372 1106,-366 1112,-360 1118,-360 1118,-360 1340,-360 1340,-360 1346,-360 1352,-366 1352,-372 1352,-372 1352,-384 1352,-384 1352,-390 1346,-396 1340,-396"/>
<text text-anchor="middle" x="1229" y="-375.5" font-family="sans" font-size="10.00" fill="#000000">create_first_spades_assembly_filter_bt2_index</text>
</g>
<!-- 38&#45;&gt;33 -->
<g id="edge63" class="edge">
<title>38&#45;&gt;33</title>
<path fill="none" stroke="#c0c0c0" stroke-width="2" d="M1229,-359.8314C1229,-352.131 1229,-342.9743 1229,-334.4166"/>
<polygon fill="#c0c0c0" stroke="#c0c0c0" stroke-width="2" points="1232.5001,-334.4132 1229,-324.4133 1225.5001,-334.4133 1232.5001,-334.4132"/>
</g>
<!-- 39&#45;&gt;35 -->
<g id="edge65" class="edge">
<title>39&#45;&gt;35</title>
<path fill="none" stroke="#c0c0c0" stroke-width="2" d="M703.7108,-1079.8314C714.796,-1070.9632 728.2954,-1060.1637 740.2852,-1050.5718"/>
<polygon fill="#c0c0c0" stroke="#c0c0c0" stroke-width="2" points="742.6742,-1053.1429 748.2965,-1044.1628 738.3013,-1047.6768 742.6742,-1053.1429"/>
</g>
<!-- 39&#45;&gt;36 -->
<g id="edge66" class="edge">
<title>39&#45;&gt;36</title>
<path fill="none" stroke="#c0c0c0" stroke-width="2" d="M658.5415,-1079.8314C647.5795,-1070.9632 634.2301,-1060.1637 622.3735,-1050.5718"/>
<polygon fill="#c0c0c0" stroke="#c0c0c0" stroke-width="2" points="624.4271,-1047.7313 614.4513,-1044.1628 620.0245,-1053.1734 624.4271,-1047.7313"/>
</g>
<!-- 40&#45;&gt;38 -->
<g id="edge68" class="edge">
<title>40&#45;&gt;38</title>
<path fill="none" stroke="#c0c0c0" stroke-width="2" d="M1229,-431.8314C1229,-424.131 1229,-414.9743 1229,-406.4166"/>
<polygon fill="#c0c0c0" stroke="#c0c0c0" stroke-width="2" points="1232.5001,-406.4132 1229,-396.4133 1225.5001,-406.4133 1232.5001,-406.4132"/>
</g>
<!-- 41 -->
<g id="node42" class="node">
<title>41</title>
<path fill="none" stroke="#56d85b" stroke-width="2" d="M1293.5,-540C1293.5,-540 1162.5,-540 1162.5,-540 1156.5,-540 1150.5,-534 1150.5,-528 1150.5,-528 1150.5,-516 1150.5,-516 1150.5,-510 1156.5,-504 1162.5,-504 1162.5,-504 1293.5,-504 1293.5,-504 1299.5,-504 1305.5,-510 1305.5,-516 1305.5,-516 1305.5,-528 1305.5,-528 1305.5,-534 1299.5,-540 1293.5,-540"/>
<text text-anchor="middle" x="1228" y="-519.5" font-family="sans" font-size="10.00" fill="#000000">combine_filter_contignames</text>
</g>
<!-- 41&#45;&gt;40 -->
<g id="edge72" class="edge">
<title>41&#45;&gt;40</title>
<path fill="none" stroke="#c0c0c0" stroke-width="2" d="M1228.2523,-503.8314C1228.3593,-496.131 1228.4865,-486.9743 1228.6053,-478.4166"/>
<polygon fill="#c0c0c0" stroke="#c0c0c0" stroke-width="2" points="1232.1049,-478.4609 1228.7443,-468.4133 1225.1056,-478.3637 1232.1049,-478.4609"/>
</g>
<!-- 42&#45;&gt;41 -->
<g id="edge73" class="edge">
<title>42&#45;&gt;41</title>
<path fill="none" stroke="#c0c0c0" stroke-width="2" d="M1148.0006,-575.8314C1161.4331,-566.7927 1177.8473,-555.7476 1192.3039,-546.0198"/>
<polygon fill="#c0c0c0" stroke="#c0c0c0" stroke-width="2" points="1194.6654,-548.6494 1201.008,-540.1628 1190.7575,-542.8418 1194.6654,-548.6494"/>
</g>
<!-- 43&#45;&gt;41 -->
<g id="edge74" class="edge">
<title>43&#45;&gt;41</title>
<path fill="none" stroke="#c0c0c0" stroke-width="2" d="M989.3907,-1295.9717C1050.1389,-1276.2872 1126,-1238.0768 1126,-1170 1126,-1170 1126,-1170 1126,-954 1126,-797.5878 1174.3975,-764.5367 1209,-612 1213.6518,-591.4938 1218.5448,-568.2726 1222.2002,-550.5543"/>
<polygon fill="#c0c0c0" stroke="#c0c0c0" stroke-width="2" points="1225.7214,-550.8061 1224.3031,-540.3066 1218.8643,-549.3989 1225.7214,-550.8061"/>
</g>
</g>
</svg>
