<?xml version="1.0" encoding="UTF-8" standalone="no"?>
<!DOCTYPE svg PUBLIC "-//W3C//DTD SVG 1.1//EN"
 "http://www.w3.org/Graphics/SVG/1.1/DTD/svg11.dtd">
<!-- Generated by graphviz version 2.40.1 (20161225.0304)
 -->
<!-- Title: snakemake_dag Pages: 1 -->
<svg width="1700pt" height="2060pt"
 viewBox="0.00 0.00 1700.00 2060.00" xmlns="http://www.w3.org/2000/svg" xmlns:xlink="http://www.w3.org/1999/xlink">
<g id="graph0" class="graph" transform="scale(1 1) rotate(0) translate(4 2056)">
<title>snakemake_dag</title>
<polygon fill="#ffffff" stroke="transparent" points="-4,4 -4,-2056 1696,-2056 1696,4 -4,4"/>
<!-- 0 -->
<g id="node1" class="node">
<title>0</title>
<path fill="none" stroke="#88d856" stroke-width="2" d="M1150,-540C1150,-540 1120,-540 1120,-540 1114,-540 1108,-534 1108,-528 1108,-528 1108,-516 1108,-516 1108,-510 1114,-504 1120,-504 1120,-504 1150,-504 1150,-504 1156,-504 1162,-510 1162,-516 1162,-516 1162,-528 1162,-528 1162,-534 1156,-540 1150,-540"/>
<text text-anchor="middle" x="1135" y="-519.5" font-family="sans" font-size="10.00" fill="#000000">all</text>
</g>
<!-- 1 -->
<g id="node2" class="node">
<title>1</title>
<path fill="none" stroke="#d85656" stroke-width="2" d="M834,-1116C834,-1116 688,-1116 688,-1116 682,-1116 676,-1110 676,-1104 676,-1104 676,-1092 676,-1092 676,-1086 682,-1080 688,-1080 688,-1080 834,-1080 834,-1080 840,-1080 846,-1086 846,-1092 846,-1092 846,-1104 846,-1104 846,-1110 840,-1116 834,-1116"/>
<text text-anchor="middle" x="761" y="-1095.5" font-family="sans" font-size="10.00" fill="#000000">collect_assembly_stats_singles</text>
</g>
<!-- 1&#45;&gt;0 -->
<g id="edge1" class="edge">
<title>1&#45;&gt;0</title>
<path fill="none" stroke="#c0c0c0" stroke-width="2" d="M753.4596,-1079.7188C737.7325,-1038.5535 705.8484,-936.5285 743,-864 780.4519,-790.885 829.9741,-808.6895 893,-756 977.3856,-685.4539 1068.4882,-592.1661 1110.825,-547.701"/>
<polygon fill="#c0c0c0" stroke="#c0c0c0" stroke-width="2" points="1113.5655,-549.8978 1117.9115,-540.2353 1108.4885,-545.0787 1113.5655,-549.8978"/>
</g>
<!-- 2 -->
<g id="node3" class="node">
<title>2</title>
<path fill="none" stroke="#97d856" stroke-width="2" d="M403,-684C403,-684 329,-684 329,-684 323,-684 317,-678 317,-672 317,-672 317,-660 317,-660 317,-654 323,-648 329,-648 329,-648 403,-648 403,-648 409,-648 415,-654 415,-660 415,-660 415,-672 415,-672 415,-678 409,-684 403,-684"/>
<text text-anchor="middle" x="366" y="-663.5" font-family="sans" font-size="10.00" fill="#000000">BAT_add_names</text>
</g>
<!-- 2&#45;&gt;0 -->
<g id="edge3" class="edge">
<title>2&#45;&gt;0</title>
<path fill="none" stroke="#c0c0c0" stroke-width="2" d="M415.2573,-654.1537C492.3257,-635.8652 646.2448,-600.3289 778,-576 893.907,-554.5975 1032.1449,-535.5028 1097.3787,-526.8722"/>
<polygon fill="#c0c0c0" stroke="#c0c0c0" stroke-width="2" points="1098.1206,-530.3048 1107.5782,-525.5295 1097.2069,-523.3647 1098.1206,-530.3048"/>
</g>
<!-- 47 -->
<g id="node48" class="node">
<title>47</title>
<path fill="none" stroke="#56c9d8" stroke-width="2" d="M418,-612C418,-612 284,-612 284,-612 278,-612 272,-606 272,-600 272,-600 272,-588 272,-588 272,-582 278,-576 284,-576 284,-576 418,-576 418,-576 424,-576 430,-582 430,-588 430,-588 430,-600 430,-600 430,-606 424,-612 418,-612"/>
<text text-anchor="middle" x="351" y="-591.5" font-family="sans" font-size="10.00" fill="#000000">BAT_filter_contignames_bins</text>
</g>
<!-- 2&#45;&gt;47 -->
<g id="edge84" class="edge">
<title>2&#45;&gt;47</title>
<path fill="none" stroke="#c0c0c0" stroke-width="2" d="M362.2149,-647.8314C360.6106,-640.131 358.703,-630.9743 356.9201,-622.4166"/>
<polygon fill="#c0c0c0" stroke="#c0c0c0" stroke-width="2" points="360.3021,-621.4892 354.8361,-612.4133 353.4493,-622.9169 360.3021,-621.4892"/>
</g>
<!-- 3 -->
<g id="node4" class="node">
<title>3</title>
<path fill="none" stroke="#68d856" stroke-width="2" d="M830.5,-612C830.5,-612 799.5,-612 799.5,-612 793.5,-612 787.5,-606 787.5,-600 787.5,-600 787.5,-588 787.5,-588 787.5,-582 793.5,-576 799.5,-576 799.5,-576 830.5,-576 830.5,-576 836.5,-576 842.5,-582 842.5,-588 842.5,-588 842.5,-600 842.5,-600 842.5,-606 836.5,-612 830.5,-612"/>
<text text-anchor="middle" x="815" y="-591.5" font-family="sans" font-size="10.00" fill="#000000">checkm</text>
</g>
<!-- 3&#45;&gt;0 -->
<g id="edge5" class="edge">
<title>3&#45;&gt;0</title>
<path fill="none" stroke="#c0c0c0" stroke-width="2" d="M842.56,-587.799C900.1215,-574.8477 1033.1339,-544.9199 1098.0367,-530.3167"/>
<polygon fill="#c0c0c0" stroke="#c0c0c0" stroke-width="2" points="1098.8586,-533.7194 1107.8464,-528.1096 1097.322,-526.8901 1098.8586,-533.7194"/>
</g>
<!-- 4 -->
<g id="node5" class="node">
<title>4</title>
<path fill="none" stroke="#d89556" stroke-width="2" d="M1567,-900C1567,-900 1479,-900 1479,-900 1473,-900 1467,-894 1467,-888 1467,-888 1467,-876 1467,-876 1467,-870 1473,-864 1479,-864 1479,-864 1567,-864 1567,-864 1573,-864 1579,-870 1579,-876 1579,-876 1579,-888 1579,-888 1579,-894 1573,-900 1567,-900"/>
<text text-anchor="middle" x="1523" y="-879.5" font-family="sans" font-size="10.00" fill="#000000">anvi_run_ncbi_cogs</text>
</g>
<!-- 4&#45;&gt;0 -->
<g id="edge2" class="edge">
<title>4&#45;&gt;0</title>
<path fill="none" stroke="#c0c0c0" stroke-width="2" d="M1522.3784,-863.8172C1521.4997,-836.504 1520,-783.2598 1520,-738 1520,-738 1520,-738 1520,-666 1520,-592.1543 1268.3776,-543.594 1171.9727,-527.6989"/>
<polygon fill="#c0c0c0" stroke="#c0c0c0" stroke-width="2" points="1172.5041,-524.2394 1162.0725,-526.0918 1171.3824,-531.1489 1172.5041,-524.2394"/>
</g>
<!-- 5 -->
<g id="node6" class="node">
<title>5</title>
<path fill="none" stroke="#59d856" stroke-width="2" d="M1324,-612C1324,-612 1198,-612 1198,-612 1192,-612 1186,-606 1186,-600 1186,-600 1186,-588 1186,-588 1186,-582 1192,-576 1198,-576 1198,-576 1324,-576 1324,-576 1330,-576 1336,-582 1336,-588 1336,-588 1336,-600 1336,-600 1336,-606 1330,-612 1324,-612"/>
<text text-anchor="middle" x="1261" y="-591.5" font-family="sans" font-size="10.00" fill="#000000">anvi_import_cat_taxonomy</text>
</g>
<!-- 5&#45;&gt;0 -->
<g id="edge6" class="edge">
<title>5&#45;&gt;0</title>
<path fill="none" stroke="#c0c0c0" stroke-width="2" d="M1229.2049,-575.8314C1211.4119,-565.664 1189.1762,-552.9578 1170.7764,-542.4437"/>
<polygon fill="#c0c0c0" stroke="#c0c0c0" stroke-width="2" points="1172.5071,-539.4016 1162.0882,-537.479 1169.0341,-545.4793 1172.5071,-539.4016"/>
</g>
<!-- 6 -->
<g id="node7" class="node">
<title>6</title>
<path fill="none" stroke="#56d882" stroke-width="2" d="M1187,-684C1187,-684 1083,-684 1083,-684 1077,-684 1071,-678 1071,-672 1071,-672 1071,-660 1071,-660 1071,-654 1077,-648 1083,-648 1083,-648 1187,-648 1187,-648 1193,-648 1199,-654 1199,-660 1199,-660 1199,-672 1199,-672 1199,-678 1193,-684 1187,-684"/>
<text text-anchor="middle" x="1135" y="-663.5" font-family="sans" font-size="10.00" fill="#000000">anvi_import_metabat2</text>
</g>
<!-- 6&#45;&gt;0 -->
<g id="edge7" class="edge">
<title>6&#45;&gt;0</title>
<path fill="none" stroke="#c0c0c0" stroke-width="2" d="M1135,-647.7623C1135,-623.201 1135,-579.2474 1135,-550.3541"/>
<polygon fill="#c0c0c0" stroke="#c0c0c0" stroke-width="2" points="1138.5001,-550.0896 1135,-540.0896 1131.5001,-550.0897 1138.5001,-550.0896"/>
</g>
<!-- 7 -->
<g id="node8" class="node">
<title>7</title>
<path fill="none" stroke="#70d856" stroke-width="2" d="M1635.5,-1260C1635.5,-1260 1492.5,-1260 1492.5,-1260 1486.5,-1260 1480.5,-1254 1480.5,-1248 1480.5,-1248 1480.5,-1236 1480.5,-1236 1480.5,-1230 1486.5,-1224 1492.5,-1224 1492.5,-1224 1635.5,-1224 1635.5,-1224 1641.5,-1224 1647.5,-1230 1647.5,-1236 1647.5,-1236 1647.5,-1248 1647.5,-1248 1647.5,-1254 1641.5,-1260 1635.5,-1260"/>
<text text-anchor="middle" x="1564" y="-1239.5" font-family="sans" font-size="10.00" fill="#000000">collect_assembly_stats_hybrid</text>
</g>
<!-- 7&#45;&gt;0 -->
<g id="edge4" class="edge">
<title>7&#45;&gt;0</title>
<path fill="none" stroke="#c0c0c0" stroke-width="2" d="M1593.6117,-1223.9221C1606.516,-1214.658 1620.7718,-1202.3078 1630,-1188 1652.4383,-1153.2106 1654,-1139.3978 1654,-1098 1654,-1098 1654,-1098 1654,-954 1654,-852.231 1578,-839.769 1578,-738 1578,-738 1578,-738 1578,-666 1578,-595.3613 1512.4234,-602.6384 1447,-576 1353.1021,-537.7677 1232.5673,-526.5958 1172.508,-523.3373"/>
<polygon fill="#c0c0c0" stroke="#c0c0c0" stroke-width="2" points="1172.5246,-519.8339 1162.3628,-522.8318 1172.1762,-526.8252 1172.5246,-519.8339"/>
</g>
<!-- 8 -->
<g id="node9" class="node">
<title>8</title>
<path fill="none" stroke="#56d0d8" stroke-width="2" d="M1317,-1404C1317,-1404 1191,-1404 1191,-1404 1185,-1404 1179,-1398 1179,-1392 1179,-1392 1179,-1380 1179,-1380 1179,-1374 1185,-1368 1191,-1368 1191,-1368 1317,-1368 1317,-1368 1323,-1368 1329,-1374 1329,-1380 1329,-1380 1329,-1392 1329,-1392 1329,-1398 1323,-1404 1317,-1404"/>
<text text-anchor="middle" x="1254" y="-1383.5" font-family="sans" font-size="10.00" fill="#000000">CAT_add_names_assembly</text>
</g>
<!-- 8&#45;&gt;1 -->
<g id="edge8" class="edge">
<title>8&#45;&gt;1</title>
<path fill="none" stroke="#c0c0c0" stroke-width="2" d="M1184.3758,-1367.9082C1154.7817,-1358.9643 1120.3939,-1346.8703 1091,-1332 970.5878,-1271.0837 845.033,-1169.7944 789.8834,-1123.0489"/>
<polygon fill="#c0c0c0" stroke="#c0c0c0" stroke-width="2" points="791.8383,-1120.1164 781.957,-1116.294 787.2979,-1125.4442 791.8383,-1120.1164"/>
</g>
<!-- 8&#45;&gt;7 -->
<g id="edge19" class="edge">
<title>8&#45;&gt;7</title>
<path fill="none" stroke="#c0c0c0" stroke-width="2" d="M1329.1798,-1372.6671C1366.7821,-1364.1884 1412.2104,-1351.1277 1450,-1332 1483.4626,-1315.0625 1516.5232,-1287.4263 1538.3535,-1267.2405"/>
<polygon fill="#c0c0c0" stroke="#c0c0c0" stroke-width="2" points="1540.9806,-1269.5746 1545.8681,-1260.1744 1536.1853,-1264.475 1540.9806,-1269.5746"/>
</g>
<!-- 14 -->
<g id="node15" class="node">
<title>14</title>
<path fill="none" stroke="#56a9d8" stroke-width="2" d="M1476.5,-684C1476.5,-684 1307.5,-684 1307.5,-684 1301.5,-684 1295.5,-678 1295.5,-672 1295.5,-672 1295.5,-660 1295.5,-660 1295.5,-654 1301.5,-648 1307.5,-648 1307.5,-648 1476.5,-648 1476.5,-648 1482.5,-648 1488.5,-654 1488.5,-660 1488.5,-660 1488.5,-672 1488.5,-672 1488.5,-678 1482.5,-684 1476.5,-684"/>
<text text-anchor="middle" x="1392" y="-663.5" font-family="sans" font-size="10.00" fill="#000000">prepare_anvi_import_cat_taxonomy</text>
</g>
<!-- 8&#45;&gt;14 -->
<g id="edge31" class="edge">
<title>8&#45;&gt;14</title>
<path fill="none" stroke="#c0c0c0" stroke-width="2" d="M1329.0517,-1368.8443C1365.7418,-1358.9852 1404.6319,-1345.835 1417,-1332 1444.2466,-1301.5217 1436,-1282.8816 1436,-1242 1436,-1242 1436,-1242 1436,-1026 1436,-889.4318 1433.7455,-854.1195 1408,-720 1406.3488,-711.3982 1403.8941,-702.2044 1401.4004,-693.8862"/>
<polygon fill="#c0c0c0" stroke="#c0c0c0" stroke-width="2" points="1404.7186,-692.7701 1398.3907,-684.2726 1398.0383,-694.8615 1404.7186,-692.7701"/>
</g>
<!-- 35 -->
<g id="node36" class="node">
<title>35</title>
<path fill="none" stroke="#5673d8" stroke-width="2" d="M1396.5,-1332C1396.5,-1332 1111.5,-1332 1111.5,-1332 1105.5,-1332 1099.5,-1326 1099.5,-1320 1099.5,-1320 1099.5,-1308 1099.5,-1308 1099.5,-1302 1105.5,-1296 1111.5,-1296 1111.5,-1296 1396.5,-1296 1396.5,-1296 1402.5,-1296 1408.5,-1302 1408.5,-1308 1408.5,-1308 1408.5,-1320 1408.5,-1320 1408.5,-1326 1402.5,-1332 1396.5,-1332"/>
<text text-anchor="middle" x="1254" y="-1311.5" font-family="sans" font-size="10.00" fill="#000000">CAT_filter_unclassified_and_eukaryotic_scaffolds_for_anvio</text>
</g>
<!-- 8&#45;&gt;35 -->
<g id="edge67" class="edge">
<title>8&#45;&gt;35</title>
<path fill="none" stroke="#c0c0c0" stroke-width="2" d="M1254,-1367.8314C1254,-1360.131 1254,-1350.9743 1254,-1342.4166"/>
<polygon fill="#c0c0c0" stroke="#c0c0c0" stroke-width="2" points="1257.5001,-1342.4132 1254,-1332.4133 1250.5001,-1342.4133 1257.5001,-1342.4132"/>
</g>
<!-- 48 -->
<g id="node49" class="node">
<title>48</title>
<path fill="none" stroke="#d8a456" stroke-width="2" d="M304,-1188C304,-1188 78,-1188 78,-1188 72,-1188 66,-1182 66,-1176 66,-1176 66,-1164 66,-1164 66,-1158 72,-1152 78,-1152 78,-1152 304,-1152 304,-1152 310,-1152 316,-1158 316,-1164 316,-1164 316,-1176 316,-1176 316,-1182 310,-1188 304,-1188"/>
<text text-anchor="middle" x="191" y="-1167.5" font-family="sans" font-size="10.00" fill="#000000">CAT_filter_contignames_first_spades_assembly</text>
</g>
<!-- 8&#45;&gt;48 -->
<g id="edge85" class="edge">
<title>8&#45;&gt;48</title>
<path fill="none" stroke="#c0c0c0" stroke-width="2" d="M1178.9189,-1382.2818C1034.1149,-1374.6762 721.2594,-1356.0145 616,-1332 472.9591,-1299.3659 313.6745,-1228.7652 237.076,-1192.5007"/>
<polygon fill="#c0c0c0" stroke="#c0c0c0" stroke-width="2" points="238.2427,-1189.1798 227.7092,-1188.0417 235.2339,-1195.5002 238.2427,-1189.1798"/>
</g>
<!-- 9 -->
<g id="node10" class="node">
<title>9</title>
<path fill="none" stroke="#8fd856" stroke-width="2" d="M418,-756C418,-756 380,-756 380,-756 374,-756 368,-750 368,-744 368,-744 368,-732 368,-732 368,-726 374,-720 380,-720 380,-720 418,-720 418,-720 424,-720 430,-726 430,-732 430,-732 430,-744 430,-744 430,-750 424,-756 418,-756"/>
<text text-anchor="middle" x="399" y="-735.5" font-family="sans" font-size="10.00" fill="#000000">CAT_bins</text>
</g>
<!-- 9&#45;&gt;2 -->
<g id="edge9" class="edge">
<title>9&#45;&gt;2</title>
<path fill="none" stroke="#c0c0c0" stroke-width="2" d="M390.6727,-719.8314C387.027,-711.8771 382.6691,-702.369 378.6373,-693.5723"/>
<polygon fill="#c0c0c0" stroke="#c0c0c0" stroke-width="2" points="381.7877,-692.0456 374.4394,-684.4133 375.4243,-694.9622 381.7877,-692.0456"/>
</g>
<!-- 10 -->
<g id="node11" class="node">
<title>10</title>
<path fill="none" stroke="#5682d8" stroke-width="2" d="M454,-1980C454,-1980 386,-1980 386,-1980 380,-1980 374,-1974 374,-1968 374,-1968 374,-1956 374,-1956 374,-1950 380,-1944 386,-1944 386,-1944 454,-1944 454,-1944 460,-1944 466,-1950 466,-1956 466,-1956 466,-1968 466,-1968 466,-1974 460,-1980 454,-1980"/>
<text text-anchor="middle" x="420" y="-1959.5" font-family="sans" font-size="10.00" fill="#000000">CAT_customise</text>
</g>
<!-- 10&#45;&gt;2 -->
<g id="edge10" class="edge">
<title>10&#45;&gt;2</title>
<path fill="none" stroke="#c0c0c0" stroke-width="2" d="M391.8202,-1943.8002C358.0616,-1919.5315 306,-1873.1626 306,-1818 306,-1818 306,-1818 306,-1530 306,-1273.5278 341,-1210.4722 341,-954 341,-954 341,-954 341,-882 341,-814.2522 353.286,-735.3397 360.6323,-694.2099"/>
<polygon fill="#c0c0c0" stroke="#c0c0c0" stroke-width="2" points="364.1208,-694.5893 362.4711,-684.1237 357.2343,-693.3338 364.1208,-694.5893"/>
</g>
<!-- 10&#45;&gt;8 -->
<g id="edge20" class="edge">
<title>10&#45;&gt;8</title>
<path fill="none" stroke="#c0c0c0" stroke-width="2" d="M466.0393,-1945.2622C491.557,-1935.433 523.5759,-1922.1782 551,-1908 604.2325,-1880.4789 615.8085,-1870.2244 665,-1836 885.5616,-1682.5466 1138.155,-1480.059 1223.8058,-1410.6043"/>
<polygon fill="#c0c0c0" stroke="#c0c0c0" stroke-width="2" points="1226.2416,-1413.1351 1231.7996,-1404.1151 1221.8298,-1407.7004 1226.2416,-1413.1351"/>
</g>
<!-- 10&#45;&gt;9 -->
<g id="edge23" class="edge">
<title>10&#45;&gt;9</title>
<path fill="none" stroke="#c0c0c0" stroke-width="2" d="M402.7544,-1943.6186C380.3312,-1917.719 344,-1868.0348 344,-1818 344,-1818 344,-1818 344,-1746 344,-1648.5257 382,-1627.4743 382,-1530 382,-1530 382,-1530 382,-882 382,-841.5973 388.6819,-795.2552 393.6674,-766.3013"/>
<polygon fill="#c0c0c0" stroke="#c0c0c0" stroke-width="2" points="397.1757,-766.5623 395.4776,-756.1045 390.2835,-765.3387 397.1757,-766.5623"/>
</g>
<!-- 17 -->
<g id="node18" class="node">
<title>17</title>
<path fill="none" stroke="#56d88a" stroke-width="2" d="M578,-36C578,-36 430,-36 430,-36 424,-36 418,-30 418,-24 418,-24 418,-12 418,-12 418,-6 424,0 430,0 430,0 578,0 578,0 584,0 590,-6 590,-12 590,-12 590,-24 590,-24 590,-30 584,-36 578,-36"/>
<text text-anchor="middle" x="504" y="-15.5" font-family="sans" font-size="10.00" fill="#000000">CAT_classify_contigs_assembly</text>
</g>
<!-- 10&#45;&gt;17 -->
<g id="edge38" class="edge">
<title>10&#45;&gt;17</title>
<path fill="none" stroke="#c0c0c0" stroke-width="2" d="M373.8512,-1956.1556C264.7466,-1941.0533 0,-1896.3359 0,-1818 0,-1818 0,-1818 0,-162 0,-107.5869 34.6533,-96.9676 83,-72 137.8649,-43.6662 301.3275,-29.2871 407.6838,-22.7348"/>
<polygon fill="#c0c0c0" stroke="#c0c0c0" stroke-width="2" points="408.0215,-26.2209 417.7925,-22.1249 407.5998,-19.2336 408.0215,-26.2209"/>
</g>
<!-- 18 -->
<g id="node19" class="node">
<title>18</title>
<path fill="none" stroke="#56d873" stroke-width="2" d="M440.5,-1908C440.5,-1908 399.5,-1908 399.5,-1908 393.5,-1908 387.5,-1902 387.5,-1896 387.5,-1896 387.5,-1884 387.5,-1884 387.5,-1878 393.5,-1872 399.5,-1872 399.5,-1872 440.5,-1872 440.5,-1872 446.5,-1872 452.5,-1878 452.5,-1884 452.5,-1884 452.5,-1896 452.5,-1896 452.5,-1902 446.5,-1908 440.5,-1908"/>
<text text-anchor="middle" x="420" y="-1887.5" font-family="sans" font-size="10.00" fill="#000000">CAT_build</text>
</g>
<!-- 10&#45;&gt;18 -->
<g id="edge43" class="edge">
<title>10&#45;&gt;18</title>
<path fill="none" stroke="#c0c0c0" stroke-width="2" d="M420,-1943.8314C420,-1936.131 420,-1926.9743 420,-1918.4166"/>
<polygon fill="#c0c0c0" stroke="#c0c0c0" stroke-width="2" points="423.5001,-1918.4132 420,-1908.4133 416.5001,-1918.4133 423.5001,-1918.4132"/>
</g>
<!-- 52 -->
<g id="node53" class="node">
<title>52</title>
<path fill="none" stroke="#d8ac56" stroke-width="2" d="M641,-1764C641,-1764 567,-1764 567,-1764 561,-1764 555,-1758 555,-1752 555,-1752 555,-1740 555,-1740 555,-1734 561,-1728 567,-1728 567,-1728 641,-1728 641,-1728 647,-1728 653,-1734 653,-1740 653,-1740 653,-1752 653,-1752 653,-1758 647,-1764 641,-1764"/>
<text text-anchor="middle" x="604" y="-1743.5" font-family="sans" font-size="10.00" fill="#000000">CAT_add_names</text>
</g>
<!-- 10&#45;&gt;52 -->
<g id="edge90" class="edge">
<title>10&#45;&gt;52</title>
<path fill="none" stroke="#c0c0c0" stroke-width="2" d="M434.069,-1943.5261C441.9944,-1933.1053 452.0661,-1919.8389 461,-1908 497.1414,-1860.1064 501.151,-1843.9472 542,-1800 551.5253,-1789.7523 562.8453,-1779.4358 573.1894,-1770.6054"/>
<polygon fill="#c0c0c0" stroke="#c0c0c0" stroke-width="2" points="575.4514,-1773.2763 580.8635,-1764.1681 570.9527,-1767.9133 575.4514,-1773.2763"/>
</g>
<!-- 53 -->
<g id="node54" class="node">
<title>53</title>
<path fill="none" stroke="#56d863" stroke-width="2" d="M644.5,-1836C644.5,-1836 563.5,-1836 563.5,-1836 557.5,-1836 551.5,-1830 551.5,-1824 551.5,-1824 551.5,-1812 551.5,-1812 551.5,-1806 557.5,-1800 563.5,-1800 563.5,-1800 644.5,-1800 644.5,-1800 650.5,-1800 656.5,-1806 656.5,-1812 656.5,-1812 656.5,-1824 656.5,-1824 656.5,-1830 650.5,-1836 644.5,-1836"/>
<text text-anchor="middle" x="604" y="-1815.5" font-family="sans" font-size="10.00" fill="#000000">CAT_classify_host</text>
</g>
<!-- 10&#45;&gt;53 -->
<g id="edge93" class="edge">
<title>10&#45;&gt;53</title>
<path fill="none" stroke="#c0c0c0" stroke-width="2" d="M458.4504,-1943.9226C476.9478,-1934.4128 498.9657,-1921.8572 517,-1908 541.7284,-1888.9992 566.0705,-1863.021 582.6893,-1843.8579"/>
<polygon fill="#c0c0c0" stroke="#c0c0c0" stroke-width="2" points="585.4811,-1845.9785 589.3175,-1836.1026 580.1597,-1841.4306 585.4811,-1845.9785"/>
</g>
<!-- 11 -->
<g id="node12" class="node">
<title>11</title>
<path fill="none" stroke="#61d856" stroke-width="2" d="M706,-828C706,-828 666,-828 666,-828 660,-828 654,-822 654,-816 654,-816 654,-804 654,-804 654,-798 660,-792 666,-792 666,-792 706,-792 706,-792 712,-792 718,-798 718,-804 718,-804 718,-816 718,-816 718,-822 712,-828 706,-828"/>
<text text-anchor="middle" x="686" y="-807.5" font-family="sans" font-size="10.00" fill="#000000">metabat2</text>
</g>
<!-- 11&#45;&gt;3 -->
<g id="edge11" class="edge">
<title>11&#45;&gt;3</title>
<path fill="none" stroke="#c0c0c0" stroke-width="2" d="M687.1314,-791.8709C688.908,-773.04 693.4481,-743.1481 705,-720 724.9763,-679.9706 760.7477,-642.4876 786.0682,-618.9835"/>
<polygon fill="#c0c0c0" stroke="#c0c0c0" stroke-width="2" points="788.5306,-621.4748 793.5617,-612.1506 783.8141,-616.3023 788.5306,-621.4748"/>
</g>
<!-- 11&#45;&gt;9 -->
<g id="edge22" class="edge">
<title>11&#45;&gt;9</title>
<path fill="none" stroke="#c0c0c0" stroke-width="2" d="M653.9129,-801.9503C601.4775,-788.7958 497.5067,-762.7125 439.8697,-748.253"/>
<polygon fill="#c0c0c0" stroke="#c0c0c0" stroke-width="2" points="440.5613,-744.8181 430.0102,-745.7796 438.8579,-751.6077 440.5613,-744.8181"/>
</g>
<!-- 16 -->
<g id="node17" class="node">
<title>16</title>
<path fill="none" stroke="#567bd8" stroke-width="2" d="M872,-756C872,-756 726,-756 726,-756 720,-756 714,-750 714,-744 714,-744 714,-732 714,-732 714,-726 720,-720 726,-720 726,-720 872,-720 872,-720 878,-720 884,-726 884,-732 884,-732 884,-744 884,-744 884,-750 878,-756 872,-756"/>
<text text-anchor="middle" x="799" y="-735.5" font-family="sans" font-size="10.00" fill="#000000">prepare_anvi_import_metabat2</text>
</g>
<!-- 11&#45;&gt;16 -->
<g id="edge36" class="edge">
<title>11&#45;&gt;16</title>
<path fill="none" stroke="#c0c0c0" stroke-width="2" d="M714.5147,-791.8314C728.8342,-782.7074 746.3624,-771.539 761.7338,-761.7449"/>
<polygon fill="#c0c0c0" stroke="#c0c0c0" stroke-width="2" points="763.9417,-764.4882 770.4945,-756.1628 760.1801,-758.5847 763.9417,-764.4882"/>
</g>
<!-- 12 -->
<g id="node13" class="node">
<title>12</title>
<path fill="none" stroke="#569ad8" stroke-width="2" d="M1347,-972C1347,-972 1219,-972 1219,-972 1213,-972 1207,-966 1207,-960 1207,-960 1207,-948 1207,-948 1207,-942 1213,-936 1219,-936 1219,-936 1347,-936 1347,-936 1353,-936 1359,-942 1359,-948 1359,-948 1359,-960 1359,-960 1359,-966 1353,-972 1347,-972"/>
<text text-anchor="middle" x="1283" y="-951.5" font-family="sans" font-size="10.00" fill="#000000">anvi_gen_contigs_database</text>
</g>
<!-- 12&#45;&gt;4 -->
<g id="edge13" class="edge">
<title>12&#45;&gt;4</title>
<path fill="none" stroke="#c0c0c0" stroke-width="2" d="M1343.2523,-935.9243C1377.9015,-925.5295 1421.4733,-912.458 1457.0397,-901.7881"/>
<polygon fill="#c0c0c0" stroke="#c0c0c0" stroke-width="2" points="1458.2724,-905.0725 1466.8449,-898.8465 1456.2609,-898.3677 1458.2724,-905.0725"/>
</g>
<!-- 12&#45;&gt;6 -->
<g id="edge18" class="edge">
<title>12&#45;&gt;6</title>
<path fill="none" stroke="#c0c0c0" stroke-width="2" d="M1239.0376,-935.8891C1222.3692,-927.1578 1204.432,-915.2261 1192,-900 1142.4419,-839.3039 1134.8955,-742.0751 1134.4097,-694.3265"/>
<polygon fill="#c0c0c0" stroke="#c0c0c0" stroke-width="2" points="1137.9097,-694.1092 1134.4081,-684.1097 1130.9097,-694.1103 1137.9097,-694.1092"/>
</g>
<!-- 15 -->
<g id="node16" class="node">
<title>15</title>
<path fill="none" stroke="#56d8d0" stroke-width="2" d="M1286,-756C1286,-756 1236,-756 1236,-756 1230,-756 1224,-750 1224,-744 1224,-744 1224,-732 1224,-732 1224,-726 1230,-720 1236,-720 1236,-720 1286,-720 1286,-720 1292,-720 1298,-726 1298,-732 1298,-732 1298,-744 1298,-744 1298,-750 1292,-756 1286,-756"/>
<text text-anchor="middle" x="1261" y="-735.5" font-family="sans" font-size="10.00" fill="#000000">anvi_merge</text>
</g>
<!-- 12&#45;&gt;15 -->
<g id="edge35" class="edge">
<title>12&#45;&gt;15</title>
<path fill="none" stroke="#c0c0c0" stroke-width="2" d="M1299.1179,-935.7971C1306.9988,-925.8845 1315.8696,-913.0106 1321,-900 1338.6835,-855.1553 1352.265,-835.2615 1331,-792 1325.1766,-780.1528 1315.3649,-770.171 1304.9022,-762.1383"/>
<polygon fill="#c0c0c0" stroke="#c0c0c0" stroke-width="2" points="1306.6129,-759.0601 1296.4354,-756.1158 1302.5555,-764.7642 1306.6129,-759.0601"/>
</g>
<!-- 24 -->
<g id="node25" class="node">
<title>24</title>
<path fill="none" stroke="#56d85b" stroke-width="2" d="M1309.5,-828C1309.5,-828 1188.5,-828 1188.5,-828 1182.5,-828 1176.5,-822 1176.5,-816 1176.5,-816 1176.5,-804 1176.5,-804 1176.5,-798 1182.5,-792 1188.5,-792 1188.5,-792 1309.5,-792 1309.5,-792 1315.5,-792 1321.5,-798 1321.5,-804 1321.5,-804 1321.5,-816 1321.5,-816 1321.5,-822 1315.5,-828 1309.5,-828"/>
<text text-anchor="middle" x="1249" y="-807.5" font-family="sans" font-size="10.00" fill="#000000">anvi_profile_binningsignal</text>
</g>
<!-- 12&#45;&gt;24 -->
<g id="edge50" class="edge">
<title>12&#45;&gt;24</title>
<path fill="none" stroke="#c0c0c0" stroke-width="2" d="M1294.3898,-935.8707C1304.5174,-917.2996 1316.2594,-887.8518 1306,-864 1301.2509,-852.9589 1293.0115,-843.1176 1284.2494,-834.9593"/>
<polygon fill="#c0c0c0" stroke="#c0c0c0" stroke-width="2" points="1286.339,-832.1388 1276.4894,-828.2354 1281.755,-837.4291 1286.339,-832.1388"/>
</g>
<!-- 30 -->
<g id="node31" class="node">
<title>30</title>
<path fill="none" stroke="#56d8b9" stroke-width="2" d="M1284.5,-900C1284.5,-900 1213.5,-900 1213.5,-900 1207.5,-900 1201.5,-894 1201.5,-888 1201.5,-888 1201.5,-876 1201.5,-876 1201.5,-870 1207.5,-864 1213.5,-864 1213.5,-864 1284.5,-864 1284.5,-864 1290.5,-864 1296.5,-870 1296.5,-876 1296.5,-876 1296.5,-888 1296.5,-888 1296.5,-894 1290.5,-900 1284.5,-900"/>
<text text-anchor="middle" x="1249" y="-879.5" font-family="sans" font-size="10.00" fill="#000000">anvi_run_hmms</text>
</g>
<!-- 12&#45;&gt;30 -->
<g id="edge61" class="edge">
<title>12&#45;&gt;30</title>
<path fill="none" stroke="#c0c0c0" stroke-width="2" d="M1274.4204,-935.8314C1270.6642,-927.8771 1266.1743,-918.369 1262.0202,-909.5723"/>
<polygon fill="#c0c0c0" stroke="#c0c0c0" stroke-width="2" points="1265.1301,-907.9612 1257.6952,-900.4133 1258.8004,-910.9503 1265.1301,-907.9612"/>
</g>
<!-- 13 -->
<g id="node14" class="node">
<title>13</title>
<path fill="none" stroke="#ced856" stroke-width="2" d="M1575.5,-972C1575.5,-972 1476.5,-972 1476.5,-972 1470.5,-972 1464.5,-966 1464.5,-960 1464.5,-960 1464.5,-948 1464.5,-948 1464.5,-942 1470.5,-936 1476.5,-936 1476.5,-936 1575.5,-936 1575.5,-936 1581.5,-936 1587.5,-942 1587.5,-948 1587.5,-948 1587.5,-960 1587.5,-960 1587.5,-966 1581.5,-972 1575.5,-972"/>
<text text-anchor="middle" x="1526" y="-951.5" font-family="sans" font-size="10.00" fill="#000000">anvi_setup_ncbi_cogs</text>
</g>
<!-- 13&#45;&gt;4 -->
<g id="edge12" class="edge">
<title>13&#45;&gt;4</title>
<path fill="none" stroke="#c0c0c0" stroke-width="2" d="M1525.243,-935.8314C1524.9221,-928.131 1524.5406,-918.9743 1524.184,-910.4166"/>
<polygon fill="#c0c0c0" stroke="#c0c0c0" stroke-width="2" points="1527.6806,-910.2589 1523.7672,-900.4133 1520.6867,-910.5503 1527.6806,-910.2589"/>
</g>
<!-- 14&#45;&gt;5 -->
<g id="edge14" class="edge">
<title>14&#45;&gt;5</title>
<path fill="none" stroke="#c0c0c0" stroke-width="2" d="M1358.9432,-647.8314C1342.0323,-638.5368 1321.2615,-627.1208 1303.2059,-617.1971"/>
<polygon fill="#c0c0c0" stroke="#c0c0c0" stroke-width="2" points="1304.4957,-613.9122 1294.0463,-612.1628 1301.124,-620.0468 1304.4957,-613.9122"/>
</g>
<!-- 15&#45;&gt;5 -->
<g id="edge15" class="edge">
<title>15&#45;&gt;5</title>
<path fill="none" stroke="#c0c0c0" stroke-width="2" d="M1261,-719.7623C1261,-695.201 1261,-651.2474 1261,-622.3541"/>
<polygon fill="#c0c0c0" stroke="#c0c0c0" stroke-width="2" points="1264.5001,-622.0896 1261,-612.0896 1257.5001,-622.0897 1264.5001,-622.0896"/>
</g>
<!-- 15&#45;&gt;6 -->
<g id="edge17" class="edge">
<title>15&#45;&gt;6</title>
<path fill="none" stroke="#c0c0c0" stroke-width="2" d="M1229.2049,-719.8314C1212.9395,-710.5368 1192.9614,-699.1208 1175.5949,-689.1971"/>
<polygon fill="#c0c0c0" stroke="#c0c0c0" stroke-width="2" points="1177.2039,-686.0854 1166.7849,-684.1628 1173.7309,-692.1631 1177.2039,-686.0854"/>
</g>
<!-- 15&#45;&gt;14 -->
<g id="edge32" class="edge">
<title>15&#45;&gt;14</title>
<path fill="none" stroke="#c0c0c0" stroke-width="2" d="M1294.0568,-719.8314C1310.9677,-710.5368 1331.7385,-699.1208 1349.7941,-689.1971"/>
<polygon fill="#c0c0c0" stroke="#c0c0c0" stroke-width="2" points="1351.876,-692.0468 1358.9537,-684.1628 1348.5043,-685.9122 1351.876,-692.0468"/>
</g>
<!-- 16&#45;&gt;6 -->
<g id="edge16" class="edge">
<title>16&#45;&gt;6</title>
<path fill="none" stroke="#c0c0c0" stroke-width="2" d="M883.3533,-719.9243C937.9579,-708.2233 1008.3907,-693.1306 1060.8488,-681.8895"/>
<polygon fill="#c0c0c0" stroke="#c0c0c0" stroke-width="2" points="1061.7137,-685.2837 1070.7584,-679.7661 1060.247,-678.4391 1061.7137,-685.2837"/>
</g>
<!-- 17&#45;&gt;8 -->
<g id="edge21" class="edge">
<title>17&#45;&gt;8</title>
<path fill="none" stroke="#c0c0c0" stroke-width="2" d="M590.395,-19.4001C863.7742,-24.9632 1692,-50.9784 1692,-162 1692,-1242 1692,-1242 1692,-1242 1692,-1315.454 1466.8835,-1357.5986 1339.4285,-1375.5733"/>
<polygon fill="#c0c0c0" stroke="#c0c0c0" stroke-width="2" points="1338.7184,-1372.1382 1329.2949,-1376.9806 1339.6813,-1379.0717 1338.7184,-1372.1382"/>
</g>
<!-- 18&#45;&gt;9 -->
<g id="edge24" class="edge">
<title>18&#45;&gt;9</title>
<path fill="none" stroke="#c0c0c0" stroke-width="2" d="M420,-1871.8146C420,-1844.4983 420,-1791.25 420,-1746 420,-1746 420,-1746 420,-882 420,-841.2729 411.673,-794.7384 405.5061,-765.8595"/>
<polygon fill="#c0c0c0" stroke="#c0c0c0" stroke-width="2" points="408.9177,-765.0768 403.3512,-756.0621 402.0811,-766.5806 408.9177,-765.0768"/>
</g>
<!-- 18&#45;&gt;17 -->
<g id="edge42" class="edge">
<title>18&#45;&gt;17</title>
<path fill="none" stroke="#c0c0c0" stroke-width="2" d="M415.8725,-1871.7527C404.5227,-1823.2732 370.31,-1687.8699 320,-1584 211.1395,-1359.2471 38,-1347.7287 38,-1098 38,-1098 38,-1098 38,-162 38,-85.2759 271.5042,-45.0176 407.9307,-28.044"/>
<polygon fill="#c0c0c0" stroke="#c0c0c0" stroke-width="2" points="408.4847,-31.5024 417.9854,-26.8132 407.6342,-24.5542 408.4847,-31.5024"/>
</g>
<!-- 18&#45;&gt;53 -->
<g id="edge94" class="edge">
<title>18&#45;&gt;53</title>
<path fill="none" stroke="#c0c0c0" stroke-width="2" d="M452.8955,-1877.1278C479.4064,-1866.754 517.2725,-1851.9369 548.4657,-1839.7308"/>
<polygon fill="#c0c0c0" stroke="#c0c0c0" stroke-width="2" points="549.8752,-1842.9378 557.9122,-1836.0344 547.3243,-1836.4191 549.8752,-1842.9378"/>
</g>
<!-- 19 -->
<g id="node20" class="node">
<title>19</title>
<path fill="none" stroke="#d87556" stroke-width="2" d="M385.5,-2052C385.5,-2052 320.5,-2052 320.5,-2052 314.5,-2052 308.5,-2046 308.5,-2040 308.5,-2040 308.5,-2028 308.5,-2028 308.5,-2022 314.5,-2016 320.5,-2016 320.5,-2016 385.5,-2016 385.5,-2016 391.5,-2016 397.5,-2022 397.5,-2028 397.5,-2028 397.5,-2040 397.5,-2040 397.5,-2046 391.5,-2052 385.5,-2052"/>
<text text-anchor="middle" x="353" y="-2031.5" font-family="sans" font-size="10.00" fill="#000000">CAT_download</text>
</g>
<!-- 19&#45;&gt;10 -->
<g id="edge25" class="edge">
<title>19&#45;&gt;10</title>
<path fill="none" stroke="#c0c0c0" stroke-width="2" d="M369.9069,-2015.8314C377.7813,-2007.3694 387.292,-1997.1489 395.9013,-1987.8971"/>
<polygon fill="#c0c0c0" stroke="#c0c0c0" stroke-width="2" points="398.6153,-1990.1183 402.8654,-1980.4133 393.4908,-1985.3497 398.6153,-1990.1183"/>
</g>
<!-- 20 -->
<g id="node21" class="node">
<title>20</title>
<path fill="none" stroke="#568ad8" stroke-width="2" d="M546.5,-2052C546.5,-2052 427.5,-2052 427.5,-2052 421.5,-2052 415.5,-2046 415.5,-2040 415.5,-2040 415.5,-2028 415.5,-2028 415.5,-2022 421.5,-2016 427.5,-2016 427.5,-2016 546.5,-2016 546.5,-2016 552.5,-2016 558.5,-2022 558.5,-2028 558.5,-2028 558.5,-2040 558.5,-2040 558.5,-2046 552.5,-2052 546.5,-2052"/>
<text text-anchor="middle" x="487" y="-2031.5" font-family="sans" font-size="10.00" fill="#000000">download_azolla_proteins</text>
</g>
<!-- 20&#45;&gt;10 -->
<g id="edge26" class="edge">
<title>20&#45;&gt;10</title>
<path fill="none" stroke="#c0c0c0" stroke-width="2" d="M470.0931,-2015.8314C462.2187,-2007.3694 452.708,-1997.1489 444.0987,-1987.8971"/>
<polygon fill="#c0c0c0" stroke="#c0c0c0" stroke-width="2" points="446.5092,-1985.3497 437.1346,-1980.4133 441.3847,-1990.1183 446.5092,-1985.3497"/>
</g>
<!-- 21 -->
<g id="node22" class="node">
<title>21</title>
<path fill="none" stroke="#80d856" stroke-width="2" d="M1330,-1188C1330,-1188 1192,-1188 1192,-1188 1186,-1188 1180,-1182 1180,-1176 1180,-1176 1180,-1164 1180,-1164 1180,-1158 1186,-1152 1192,-1152 1192,-1152 1330,-1152 1330,-1152 1336,-1152 1342,-1158 1342,-1164 1342,-1164 1342,-1176 1342,-1176 1342,-1182 1336,-1188 1330,-1188"/>
<text text-anchor="middle" x="1261" y="-1167.5" font-family="sans" font-size="10.00" fill="#000000">shorten_scaffold_names_anvi</text>
</g>
<!-- 21&#45;&gt;11 -->
<g id="edge27" class="edge">
<title>21&#45;&gt;11</title>
<path fill="none" stroke="#c0c0c0" stroke-width="2" d="M1179.6843,-1165.675C1111.4363,-1159.9522 1012.3383,-1146.6893 931,-1116 874.5802,-1094.7126 857.5109,-1087.74 816,-1044 755.9439,-980.719 714.0611,-884.4167 695.9927,-837.5506"/>
<polygon fill="#c0c0c0" stroke="#c0c0c0" stroke-width="2" points="699.2158,-836.1786 692.4023,-828.0653 692.6691,-838.6567 699.2158,-836.1786"/>
</g>
<!-- 21&#45;&gt;12 -->
<g id="edge30" class="edge">
<title>21&#45;&gt;12</title>
<path fill="none" stroke="#c0c0c0" stroke-width="2" d="M1262.8379,-1151.9555C1266.6717,-1114.3144 1275.5458,-1027.1867 1280.1355,-982.1246"/>
<polygon fill="#c0c0c0" stroke="#c0c0c0" stroke-width="2" points="1283.6205,-982.4483 1281.1519,-972.1451 1276.6565,-981.7389 1283.6205,-982.4483"/>
</g>
<!-- 21&#45;&gt;14 -->
<g id="edge33" class="edge">
<title>21&#45;&gt;14</title>
<path fill="none" stroke="#c0c0c0" stroke-width="2" d="M1274.2934,-1151.7682C1297.9722,-1118.1747 1346.9394,-1043.393 1368,-972 1397.1281,-873.2591 1395.9611,-749.2818 1393.635,-694.3901"/>
<polygon fill="#c0c0c0" stroke="#c0c0c0" stroke-width="2" points="1397.1151,-693.8834 1393.1473,-684.0596 1390.1229,-694.2135 1397.1151,-693.8834"/>
</g>
<!-- 41 -->
<g id="node42" class="node">
<title>41</title>
<path fill="none" stroke="#c6d856" stroke-width="2" d="M1099.5,-1116C1099.5,-1116 952.5,-1116 952.5,-1116 946.5,-1116 940.5,-1110 940.5,-1104 940.5,-1104 940.5,-1092 940.5,-1092 940.5,-1086 946.5,-1080 952.5,-1080 952.5,-1080 1099.5,-1080 1099.5,-1080 1105.5,-1080 1111.5,-1086 1111.5,-1092 1111.5,-1092 1111.5,-1104 1111.5,-1104 1111.5,-1110 1105.5,-1116 1099.5,-1116"/>
<text text-anchor="middle" x="1026" y="-1095.5" font-family="sans" font-size="10.00" fill="#000000">bwa_index_assembly_scaffolds</text>
</g>
<!-- 21&#45;&gt;41 -->
<g id="edge75" class="edge">
<title>21&#45;&gt;41</title>
<path fill="none" stroke="#c0c0c0" stroke-width="2" d="M1202.0029,-1151.9243C1169.458,-1141.9531 1128.8739,-1129.5188 1094.8811,-1119.104"/>
<polygon fill="#c0c0c0" stroke="#c0c0c0" stroke-width="2" points="1095.608,-1115.6662 1085.0214,-1116.0831 1093.5574,-1122.3591 1095.608,-1115.6662"/>
</g>
<!-- 22 -->
<g id="node23" class="node">
<title>22</title>
<path fill="none" stroke="#d86656" stroke-width="2" d="M861.5,-900C861.5,-900 764.5,-900 764.5,-900 758.5,-900 752.5,-894 752.5,-888 752.5,-888 752.5,-876 752.5,-876 752.5,-870 758.5,-864 764.5,-864 764.5,-864 861.5,-864 861.5,-864 867.5,-864 873.5,-870 873.5,-876 873.5,-876 873.5,-888 873.5,-888 873.5,-894 867.5,-900 861.5,-900"/>
<text text-anchor="middle" x="813" y="-879.5" font-family="sans" font-size="10.00" fill="#000000">jgi_summarize_script</text>
</g>
<!-- 22&#45;&gt;11 -->
<g id="edge29" class="edge">
<title>22&#45;&gt;11</title>
<path fill="none" stroke="#c0c0c0" stroke-width="2" d="M780.9525,-863.8314C764.558,-854.5368 744.4214,-843.1208 726.9171,-833.1971"/>
<polygon fill="#c0c0c0" stroke="#c0c0c0" stroke-width="2" points="728.4626,-830.05 718.0372,-828.1628 725.0103,-836.1395 728.4626,-830.05"/>
</g>
<!-- 23 -->
<g id="node24" class="node">
<title>23</title>
<path fill="none" stroke="#d89c56" stroke-width="2" d="M749.5,-1188C749.5,-1188 612.5,-1188 612.5,-1188 606.5,-1188 600.5,-1182 600.5,-1176 600.5,-1176 600.5,-1164 600.5,-1164 600.5,-1158 606.5,-1152 612.5,-1152 612.5,-1152 749.5,-1152 749.5,-1152 755.5,-1152 761.5,-1158 761.5,-1164 761.5,-1164 761.5,-1176 761.5,-1176 761.5,-1182 755.5,-1188 749.5,-1188"/>
<text text-anchor="middle" x="681" y="-1167.5" font-family="sans" font-size="10.00" fill="#000000">shorten_scaffold_names_awk</text>
</g>
<!-- 23&#45;&gt;11 -->
<g id="edge28" class="edge">
<title>23&#45;&gt;11</title>
<path fill="none" stroke="#c0c0c0" stroke-width="2" d="M674.0015,-1151.6679C664.3147,-1124.6028 648,-1072.1665 648,-1026 648,-1026 648,-1026 648,-954 648,-912.3681 663.0328,-866.14 674.1881,-837.567"/>
<polygon fill="#c0c0c0" stroke="#c0c0c0" stroke-width="2" points="677.4578,-838.817 677.9412,-828.2332 670.9632,-836.2055 677.4578,-838.817"/>
</g>
<!-- 23&#45;&gt;41 -->
<g id="edge76" class="edge">
<title>23&#45;&gt;41</title>
<path fill="none" stroke="#c0c0c0" stroke-width="2" d="M761.8872,-1153.1192C812.2183,-1142.6153 877.208,-1129.0522 930.1242,-1118.0089"/>
<polygon fill="#c0c0c0" stroke="#c0c0c0" stroke-width="2" points="931.1238,-1121.3757 940.1978,-1115.9065 929.6937,-1114.5234 931.1238,-1121.3757"/>
</g>
<!-- 42 -->
<g id="node43" class="node">
<title>42</title>
<path fill="none" stroke="#d8b456" stroke-width="2" d="M684.5,-468C684.5,-468 485.5,-468 485.5,-468 479.5,-468 473.5,-462 473.5,-456 473.5,-456 473.5,-444 473.5,-444 473.5,-438 479.5,-432 485.5,-432 485.5,-432 684.5,-432 684.5,-432 690.5,-432 696.5,-438 696.5,-444 696.5,-444 696.5,-456 696.5,-456 696.5,-462 690.5,-468 684.5,-468"/>
<text text-anchor="middle" x="585" y="-447.5" font-family="sans" font-size="10.00" fill="#000000">create_filter_fasta_first_spades_assembly</text>
</g>
<!-- 23&#45;&gt;42 -->
<g id="edge78" class="edge">
<title>23&#45;&gt;42</title>
<path fill="none" stroke="#c0c0c0" stroke-width="2" d="M665.2428,-1151.8597C644.3256,-1125.8524 610,-1075.6151 610,-1026 610,-1026 610,-1026 610,-594 610,-553.0964 600.087,-506.6076 592.7454,-477.7868"/>
<polygon fill="#c0c0c0" stroke="#c0c0c0" stroke-width="2" points="596.1037,-476.7952 590.18,-468.0111 589.333,-478.572 596.1037,-476.7952"/>
</g>
<!-- 24&#45;&gt;15 -->
<g id="edge34" class="edge">
<title>24&#45;&gt;15</title>
<path fill="none" stroke="#c0c0c0" stroke-width="2" d="M1252.0281,-791.8314C1253.3115,-784.131 1254.8376,-774.9743 1256.2639,-766.4166"/>
<polygon fill="#c0c0c0" stroke="#c0c0c0" stroke-width="2" points="1259.7394,-766.8526 1257.9311,-756.4133 1252.8347,-765.7018 1259.7394,-766.8526"/>
</g>
<!-- 25 -->
<g id="node26" class="node">
<title>25</title>
<path fill="none" stroke="#56c1d8" stroke-width="2" d="M563.5,-180C563.5,-180 444.5,-180 444.5,-180 438.5,-180 432.5,-174 432.5,-168 432.5,-168 432.5,-156 432.5,-156 432.5,-150 438.5,-144 444.5,-144 444.5,-144 563.5,-144 563.5,-144 569.5,-144 575.5,-150 575.5,-156 575.5,-156 575.5,-168 575.5,-168 575.5,-174 569.5,-180 563.5,-180"/>
<text text-anchor="middle" x="504" y="-159.5" font-family="sans" font-size="10.00" fill="#000000">spades_second_assembly</text>
</g>
<!-- 25&#45;&gt;17 -->
<g id="edge40" class="edge">
<title>25&#45;&gt;17</title>
<path fill="none" stroke="#c0c0c0" stroke-width="2" d="M504,-143.7623C504,-119.201 504,-75.2474 504,-46.3541"/>
<polygon fill="#c0c0c0" stroke="#c0c0c0" stroke-width="2" points="507.5001,-46.0896 504,-36.0896 500.5001,-46.0897 507.5001,-46.0896"/>
</g>
<!-- 26 -->
<g id="node27" class="node">
<title>26</title>
<path fill="none" stroke="#5692d8" stroke-width="2" d="M724,-108C724,-108 638,-108 638,-108 632,-108 626,-102 626,-96 626,-96 626,-84 626,-84 626,-78 632,-72 638,-72 638,-72 724,-72 724,-72 730,-72 736,-78 736,-84 736,-84 736,-96 736,-96 736,-102 730,-108 724,-108"/>
<text text-anchor="middle" x="681" y="-87.5" font-family="sans" font-size="10.00" fill="#000000">CAT_prepare_ORFS</text>
</g>
<!-- 25&#45;&gt;26 -->
<g id="edge52" class="edge">
<title>25&#45;&gt;26</title>
<path fill="none" stroke="#c0c0c0" stroke-width="2" d="M548.6646,-143.8314C572.5477,-134.1162 602.129,-122.0831 627.2628,-111.8592"/>
<polygon fill="#c0c0c0" stroke="#c0c0c0" stroke-width="2" points="628.7125,-115.0481 636.6566,-108.038 626.0748,-108.564 628.7125,-115.0481"/>
</g>
<!-- 28 -->
<g id="node29" class="node">
<title>28</title>
<path fill="none" stroke="#9fd856" stroke-width="2" d="M1342,-1260C1342,-1260 1180,-1260 1180,-1260 1174,-1260 1168,-1254 1168,-1248 1168,-1248 1168,-1236 1168,-1236 1168,-1230 1174,-1224 1180,-1224 1180,-1224 1342,-1224 1342,-1224 1348,-1224 1354,-1230 1354,-1236 1354,-1236 1354,-1248 1354,-1248 1354,-1254 1348,-1260 1342,-1260"/>
<text text-anchor="middle" x="1261" y="-1239.5" font-family="sans" font-size="10.00" fill="#000000">filter_unclassfied_filter_eukaryotic</text>
</g>
<!-- 25&#45;&gt;28 -->
<g id="edge56" class="edge">
<title>25&#45;&gt;28</title>
<path fill="none" stroke="#c0c0c0" stroke-width="2" d="M497.6377,-180.26C485.9715,-214.8182 461.568,-292.3865 453,-360 446.9345,-407.8655 449.908,-421.8555 464,-468 469.168,-484.9227 473.9138,-487.7867 481,-504 494.8158,-535.6109 499.1169,-543.2635 510,-576 543.941,-678.0946 572,-702.4114 572,-810 572,-1098 572,-1098 572,-1098 572,-1138.8816 560.3076,-1160.9947 591,-1188 632.5481,-1224.5569 980.394,-1236.5868 1157.8001,-1240.366"/>
<polygon fill="#c0c0c0" stroke="#c0c0c0" stroke-width="2" points="1157.865,-1243.868 1167.9357,-1240.5769 1158.0107,-1236.8695 1157.865,-1243.868"/>
</g>
<!-- 26&#45;&gt;17 -->
<g id="edge37" class="edge">
<title>26&#45;&gt;17</title>
<path fill="none" stroke="#c0c0c0" stroke-width="2" d="M636.3354,-71.8314C612.4523,-62.1162 582.871,-50.0831 557.7372,-39.8592"/>
<polygon fill="#c0c0c0" stroke="#c0c0c0" stroke-width="2" points="558.9252,-36.564 548.3434,-36.038 556.2875,-43.0481 558.9252,-36.564"/>
</g>
<!-- 27 -->
<g id="node28" class="node">
<title>27</title>
<path fill="none" stroke="#78d856" stroke-width="2" d="M667,-1260C667,-1260 563,-1260 563,-1260 557,-1260 551,-1254 551,-1248 551,-1248 551,-1236 551,-1236 551,-1230 557,-1224 563,-1224 563,-1224 667,-1224 667,-1224 673,-1224 679,-1230 679,-1236 679,-1236 679,-1248 679,-1248 679,-1254 673,-1260 667,-1260"/>
<text text-anchor="middle" x="615" y="-1239.5" font-family="sans" font-size="10.00" fill="#000000">spades_first_assembly</text>
</g>
<!-- 27&#45;&gt;17 -->
<g id="edge39" class="edge">
<title>27&#45;&gt;17</title>
<path fill="none" stroke="#c0c0c0" stroke-width="2" d="M585.2782,-1223.8898C550.0313,-1199.8777 496,-1153.9449 496,-1098 496,-1098 496,-1098 496,-666 496,-499.9419 396,-472.0581 396,-306 396,-306 396,-306 396,-162 396,-112.0854 438.0434,-68.3996 469.6658,-42.6011"/>
<polygon fill="#c0c0c0" stroke="#c0c0c0" stroke-width="2" points="472.185,-45.071 477.8562,-36.1217 467.842,-39.5811 472.185,-45.071"/>
</g>
<!-- 27&#45;&gt;23 -->
<g id="edge46" class="edge">
<title>27&#45;&gt;23</title>
<path fill="none" stroke="#c0c0c0" stroke-width="2" d="M631.6546,-1223.8314C639.4114,-1215.3694 648.7802,-1205.1489 657.261,-1195.8971"/>
<polygon fill="#c0c0c0" stroke="#c0c0c0" stroke-width="2" points="659.9439,-1198.1499 664.1212,-1188.4133 654.7838,-1193.4198 659.9439,-1198.1499"/>
</g>
<!-- 27&#45;&gt;26 -->
<g id="edge54" class="edge">
<title>27&#45;&gt;26</title>
<path fill="none" stroke="#c0c0c0" stroke-width="2" d="M595.7704,-1223.8977C586.1248,-1214.0126 574.8552,-1201.1329 567,-1188 545.1306,-1151.4371 534,-1140.6041 534,-1098 534,-1098 534,-1098 534,-810 534,-635.248 660.5395,-629.2059 728,-468 756.8933,-398.9554 774,-380.8463 774,-306 774,-306 774,-306 774,-234 774,-186.1228 737.2734,-141.5525 709.9796,-115.04"/>
<polygon fill="#c0c0c0" stroke="#c0c0c0" stroke-width="2" points="712.2467,-112.3671 702.5698,-108.0532 707.4444,-117.4601 712.2467,-112.3671"/>
</g>
<!-- 28&#45;&gt;21 -->
<g id="edge44" class="edge">
<title>28&#45;&gt;21</title>
<path fill="none" stroke="#c0c0c0" stroke-width="2" d="M1261,-1223.8314C1261,-1216.131 1261,-1206.9743 1261,-1198.4166"/>
<polygon fill="#c0c0c0" stroke="#c0c0c0" stroke-width="2" points="1264.5001,-1198.4132 1261,-1188.4133 1257.5001,-1198.4133 1264.5001,-1198.4132"/>
</g>
<!-- 29 -->
<g id="node30" class="node">
<title>29</title>
<path fill="none" stroke="#d88556" stroke-width="2" d="M1055,-972C1055,-972 943,-972 943,-972 937,-972 931,-966 931,-960 931,-960 931,-948 931,-948 931,-942 937,-936 943,-936 943,-936 1055,-936 1055,-936 1061,-936 1067,-942 1067,-948 1067,-948 1067,-960 1067,-960 1067,-966 1061,-972 1055,-972"/>
<text text-anchor="middle" x="999" y="-951.5" font-family="sans" font-size="10.00" fill="#000000">backmap_samtools_sort</text>
</g>
<!-- 29&#45;&gt;22 -->
<g id="edge45" class="edge">
<title>29&#45;&gt;22</title>
<path fill="none" stroke="#c0c0c0" stroke-width="2" d="M952.0643,-935.8314C926.8563,-926.0734 895.6074,-913.977 869.1209,-903.7242"/>
<polygon fill="#c0c0c0" stroke="#c0c0c0" stroke-width="2" points="870.1873,-900.384 859.5981,-900.038 867.6603,-906.912 870.1873,-900.384"/>
</g>
<!-- 29&#45;&gt;24 -->
<g id="edge48" class="edge">
<title>29&#45;&gt;24</title>
<path fill="none" stroke="#c0c0c0" stroke-width="2" d="M1041.9467,-935.9256C1064.1683,-926.0968 1091.4916,-913.2598 1115,-900 1150.9012,-879.7502 1189.7819,-853.0604 1216.3676,-834.0151"/>
<polygon fill="#c0c0c0" stroke="#c0c0c0" stroke-width="2" points="1218.4827,-836.805 1224.5479,-828.118 1214.3892,-831.1266 1218.4827,-836.805"/>
</g>
<!-- 31 -->
<g id="node32" class="node">
<title>31</title>
<path fill="none" stroke="#d86e56" stroke-width="2" d="M1094.5,-900C1094.5,-900 903.5,-900 903.5,-900 897.5,-900 891.5,-894 891.5,-888 891.5,-888 891.5,-876 891.5,-876 891.5,-870 897.5,-864 903.5,-864 903.5,-864 1094.5,-864 1094.5,-864 1100.5,-864 1106.5,-870 1106.5,-876 1106.5,-876 1106.5,-888 1106.5,-888 1106.5,-894 1100.5,-900 1094.5,-900"/>
<text text-anchor="middle" x="999" y="-879.5" font-family="sans" font-size="10.00" fill="#000000">backmap_samtools_index_binningsignal</text>
</g>
<!-- 29&#45;&gt;31 -->
<g id="edge62" class="edge">
<title>29&#45;&gt;31</title>
<path fill="none" stroke="#c0c0c0" stroke-width="2" d="M999,-935.8314C999,-928.131 999,-918.9743 999,-910.4166"/>
<polygon fill="#c0c0c0" stroke="#c0c0c0" stroke-width="2" points="1002.5001,-910.4132 999,-900.4133 995.5001,-910.4133 1002.5001,-910.4132"/>
</g>
<!-- 30&#45;&gt;24 -->
<g id="edge49" class="edge">
<title>30&#45;&gt;24</title>
<path fill="none" stroke="#c0c0c0" stroke-width="2" d="M1249,-863.8314C1249,-856.131 1249,-846.9743 1249,-838.4166"/>
<polygon fill="#c0c0c0" stroke="#c0c0c0" stroke-width="2" points="1252.5001,-838.4132 1249,-828.4133 1245.5001,-838.4133 1252.5001,-838.4132"/>
</g>
<!-- 31&#45;&gt;24 -->
<g id="edge47" class="edge">
<title>31&#45;&gt;24</title>
<path fill="none" stroke="#c0c0c0" stroke-width="2" d="M1061.7629,-863.9243C1096.5337,-853.9103 1139.9304,-841.412 1176.1874,-830.97"/>
<polygon fill="#c0c0c0" stroke="#c0c0c0" stroke-width="2" points="1177.5705,-834.214 1186.2113,-828.0831 1175.6332,-827.4874 1177.5705,-834.214"/>
</g>
<!-- 32 -->
<g id="node33" class="node">
<title>32</title>
<path fill="none" stroke="#56a2d8" stroke-width="2" d="M933.5,-180C933.5,-180 814.5,-180 814.5,-180 808.5,-180 802.5,-174 802.5,-168 802.5,-168 802.5,-156 802.5,-156 802.5,-150 808.5,-144 814.5,-144 814.5,-144 933.5,-144 933.5,-144 939.5,-144 945.5,-150 945.5,-156 945.5,-156 945.5,-168 945.5,-168 945.5,-174 939.5,-180 933.5,-180"/>
<text text-anchor="middle" x="874" y="-159.5" font-family="sans" font-size="10.00" fill="#000000">SPADES_hybrid_assembly</text>
</g>
<!-- 32&#45;&gt;17 -->
<g id="edge41" class="edge">
<title>32&#45;&gt;17</title>
<path fill="none" stroke="#c0c0c0" stroke-width="2" d="M853.6341,-143.9611C829.4215,-123.4706 786.9866,-90.4885 745,-72 699.3969,-51.919 645.534,-38.9417 600.3077,-30.7568"/>
<polygon fill="#c0c0c0" stroke="#c0c0c0" stroke-width="2" points="600.6567,-27.2646 590.2018,-28.981 599.4451,-34.1589 600.6567,-27.2646"/>
</g>
<!-- 32&#45;&gt;26 -->
<g id="edge53" class="edge">
<title>32&#45;&gt;26</title>
<path fill="none" stroke="#c0c0c0" stroke-width="2" d="M825.298,-143.8314C799.0264,-134.0306 766.4317,-121.8709 738.8716,-111.5894"/>
<polygon fill="#c0c0c0" stroke="#c0c0c0" stroke-width="2" points="739.9445,-108.2541 729.3518,-108.038 737.4977,-114.8126 739.9445,-108.2541"/>
</g>
<!-- 32&#45;&gt;28 -->
<g id="edge57" class="edge">
<title>32&#45;&gt;28</title>
<path fill="none" stroke="#c0c0c0" stroke-width="2" d="M945.8203,-168.4072C1132.0338,-185.9796 1616,-238.1742 1616,-306 1616,-1098 1616,-1098 1616,-1098 1616,-1153.2495 1466.4797,-1197.4371 1361.5125,-1221.6506"/>
<polygon fill="#c0c0c0" stroke="#c0c0c0" stroke-width="2" points="1360.473,-1218.2977 1351.5,-1223.9312 1362.0276,-1225.1229 1360.473,-1218.2977"/>
</g>
<!-- 33 -->
<g id="node34" class="node">
<title>33</title>
<path fill="none" stroke="#d8c356" stroke-width="2" d="M655.5,-324C655.5,-324 568.5,-324 568.5,-324 562.5,-324 556.5,-318 556.5,-312 556.5,-312 556.5,-300 556.5,-300 556.5,-294 562.5,-288 568.5,-288 568.5,-288 655.5,-288 655.5,-288 661.5,-288 667.5,-294 667.5,-300 667.5,-300 667.5,-312 667.5,-312 667.5,-318 661.5,-324 655.5,-324"/>
<text text-anchor="middle" x="612" y="-303.5" font-family="sans" font-size="10.00" fill="#000000">filter_for_assembly</text>
</g>
<!-- 33&#45;&gt;25 -->
<g id="edge51" class="edge">
<title>33&#45;&gt;25</title>
<path fill="none" stroke="#c0c0c0" stroke-width="2" d="M567.0909,-287.9588C550.9203,-279.3465 533.9758,-267.4806 523,-252 510.2783,-234.057 505.7458,-209.3692 504.2731,-190.3883"/>
<polygon fill="#c0c0c0" stroke="#c0c0c0" stroke-width="2" points="507.7594,-190.0366 503.7289,-180.2384 500.7694,-190.4115 507.7594,-190.0366"/>
</g>
<!-- 38 -->
<g id="node39" class="node">
<title>38</title>
<path fill="none" stroke="#d8cb56" stroke-width="2" d="M734,-252C734,-252 544,-252 544,-252 538,-252 532,-246 532,-240 532,-240 532,-228 532,-228 532,-222 538,-216 544,-216 544,-216 734,-216 734,-216 740,-216 746,-222 746,-228 746,-228 746,-240 746,-240 746,-246 740,-252 734,-252"/>
<text text-anchor="middle" x="639" y="-231.5" font-family="sans" font-size="10.00" fill="#000000">concatenate_fastq_for_hybrid_assembly</text>
</g>
<!-- 33&#45;&gt;38 -->
<g id="edge72" class="edge">
<title>33&#45;&gt;38</title>
<path fill="none" stroke="#c0c0c0" stroke-width="2" d="M618.8132,-287.8314C621.7644,-279.9617 625.2858,-270.5712 628.555,-261.8533"/>
<polygon fill="#c0c0c0" stroke="#c0c0c0" stroke-width="2" points="631.8609,-263.0055 632.095,-252.4133 625.3066,-260.5476 631.8609,-263.0055"/>
</g>
<!-- 34 -->
<g id="node35" class="node">
<title>34</title>
<path fill="none" stroke="#56d8b1" stroke-width="2" d="M711,-1332C711,-1332 637,-1332 637,-1332 631,-1332 625,-1326 625,-1320 625,-1320 625,-1308 625,-1308 625,-1302 631,-1296 637,-1296 637,-1296 711,-1296 711,-1296 717,-1296 723,-1302 723,-1308 723,-1308 723,-1320 723,-1320 723,-1326 717,-1332 711,-1332"/>
<text text-anchor="middle" x="674" y="-1311.5" font-family="sans" font-size="10.00" fill="#000000">spades_hammer</text>
</g>
<!-- 34&#45;&gt;27 -->
<g id="edge55" class="edge">
<title>34&#45;&gt;27</title>
<path fill="none" stroke="#c0c0c0" stroke-width="2" d="M659.1118,-1295.8314C652.247,-1287.454 643.9699,-1277.3531 636.4489,-1268.1749"/>
<polygon fill="#c0c0c0" stroke="#c0c0c0" stroke-width="2" points="639.1341,-1265.9297 630.0886,-1260.4133 633.7197,-1270.3665 639.1341,-1265.9297"/>
</g>
<!-- 34&#45;&gt;33 -->
<g id="edge65" class="edge">
<title>34&#45;&gt;33</title>
<path fill="none" stroke="#c0c0c0" stroke-width="2" d="M624.9863,-1304.1145C561.2572,-1288.0729 458,-1249.7728 458,-1170 458,-1170 458,-1170 458,-738 458,-575.3619 633.8125,-614.231 705,-468 726.1391,-424.5767 742.1566,-401.2261 717,-360 707.7619,-344.8607 692.7748,-333.7866 676.98,-325.7591"/>
<polygon fill="#c0c0c0" stroke="#c0c0c0" stroke-width="2" points="678.1646,-322.4492 667.6242,-321.377 675.1955,-328.7883 678.1646,-322.4492"/>
</g>
<!-- 36 -->
<g id="node37" class="node">
<title>36</title>
<path fill="none" stroke="#56d89a" stroke-width="2" d="M1016.5,-1044C1016.5,-1044 837.5,-1044 837.5,-1044 831.5,-1044 825.5,-1038 825.5,-1032 825.5,-1032 825.5,-1020 825.5,-1020 825.5,-1014 831.5,-1008 837.5,-1008 837.5,-1008 1016.5,-1008 1016.5,-1008 1022.5,-1008 1028.5,-1014 1028.5,-1020 1028.5,-1020 1028.5,-1032 1028.5,-1032 1028.5,-1038 1022.5,-1044 1016.5,-1044"/>
<text text-anchor="middle" x="927" y="-1023.5" font-family="sans" font-size="10.00" fill="#000000">backmap_bwa_mem_assemblysource</text>
</g>
<!-- 34&#45;&gt;36 -->
<g id="edge69" class="edge">
<title>34&#45;&gt;36</title>
<path fill="none" stroke="#c0c0c0" stroke-width="2" d="M691.3821,-1295.8031C724.1232,-1261.3499 796.8714,-1183.9498 855,-1116 872.8852,-1095.0929 892.3289,-1070.6808 906.4971,-1052.5603"/>
<polygon fill="#c0c0c0" stroke="#c0c0c0" stroke-width="2" points="909.6151,-1054.2531 912.9988,-1044.2131 904.0926,-1049.9516 909.6151,-1054.2531"/>
</g>
<!-- 37 -->
<g id="node38" class="node">
<title>37</title>
<path fill="none" stroke="#56b1d8" stroke-width="2" d="M1153,-1044C1153,-1044 1059,-1044 1059,-1044 1053,-1044 1047,-1038 1047,-1032 1047,-1032 1047,-1020 1047,-1020 1047,-1014 1053,-1008 1059,-1008 1059,-1008 1153,-1008 1153,-1008 1159,-1008 1165,-1014 1165,-1020 1165,-1020 1165,-1032 1165,-1032 1165,-1038 1159,-1044 1153,-1044"/>
<text text-anchor="middle" x="1106" y="-1023.5" font-family="sans" font-size="10.00" fill="#000000">backmap_bwa_mem</text>
</g>
<!-- 34&#45;&gt;37 -->
<g id="edge71" class="edge">
<title>34&#45;&gt;37</title>
<path fill="none" stroke="#c0c0c0" stroke-width="2" d="M723.3014,-1309.1272C819.3947,-1296.6687 1030.1824,-1254.1451 1120,-1116 1132.0376,-1097.4855 1126.7749,-1072.387 1119.5052,-1053.3981"/>
<polygon fill="#c0c0c0" stroke="#c0c0c0" stroke-width="2" points="1122.6975,-1051.96 1115.6017,-1044.0923 1116.2424,-1054.6677 1122.6975,-1051.96"/>
</g>
<!-- 35&#45;&gt;28 -->
<g id="edge58" class="edge">
<title>35&#45;&gt;28</title>
<path fill="none" stroke="#c0c0c0" stroke-width="2" d="M1255.7664,-1295.8314C1256.515,-1288.131 1257.4053,-1278.9743 1258.2373,-1270.4166"/>
<polygon fill="#c0c0c0" stroke="#c0c0c0" stroke-width="2" points="1261.7256,-1270.7051 1259.2098,-1260.4133 1254.7585,-1270.0276 1261.7256,-1270.7051"/>
</g>
<!-- 36&#45;&gt;29 -->
<g id="edge59" class="edge">
<title>36&#45;&gt;29</title>
<path fill="none" stroke="#c0c0c0" stroke-width="2" d="M945.1686,-1007.8314C953.7152,-999.2848 964.0557,-988.9443 973.3802,-979.6198"/>
<polygon fill="#c0c0c0" stroke="#c0c0c0" stroke-width="2" points="975.9905,-981.9592 980.5867,-972.4133 971.0408,-977.0095 975.9905,-981.9592"/>
</g>
<!-- 37&#45;&gt;29 -->
<g id="edge60" class="edge">
<title>37&#45;&gt;29</title>
<path fill="none" stroke="#c0c0c0" stroke-width="2" d="M1078.9994,-1007.8314C1065.5669,-998.7927 1049.1527,-987.7476 1034.6961,-978.0198"/>
<polygon fill="#c0c0c0" stroke="#c0c0c0" stroke-width="2" points="1036.2425,-974.8418 1025.992,-972.1628 1032.3346,-980.6494 1036.2425,-974.8418"/>
</g>
<!-- 38&#45;&gt;32 -->
<g id="edge63" class="edge">
<title>38&#45;&gt;32</title>
<path fill="none" stroke="#c0c0c0" stroke-width="2" d="M697.9971,-215.9243C730.542,-205.9531 771.1261,-193.5188 805.1189,-183.104"/>
<polygon fill="#c0c0c0" stroke="#c0c0c0" stroke-width="2" points="806.4426,-186.3591 814.9786,-180.0831 804.392,-179.6662 806.4426,-186.3591"/>
</g>
<!-- 39 -->
<g id="node40" class="node">
<title>39</title>
<path fill="none" stroke="#56d892" stroke-width="2" d="M696,-396C696,-396 474,-396 474,-396 468,-396 462,-390 462,-384 462,-384 462,-372 462,-372 462,-366 468,-360 474,-360 474,-360 696,-360 696,-360 702,-360 708,-366 708,-372 708,-372 708,-384 708,-384 708,-390 702,-396 696,-396"/>
<text text-anchor="middle" x="585" y="-375.5" font-family="sans" font-size="10.00" fill="#000000">create_first_spades_assembly_filter_bt2_index</text>
</g>
<!-- 39&#45;&gt;33 -->
<g id="edge64" class="edge">
<title>39&#45;&gt;33</title>
<path fill="none" stroke="#c0c0c0" stroke-width="2" d="M591.8132,-359.8314C594.7644,-351.9617 598.2858,-342.5712 601.555,-333.8533"/>
<polygon fill="#c0c0c0" stroke="#c0c0c0" stroke-width="2" points="604.8609,-335.0055 605.095,-324.4133 598.3066,-332.5476 604.8609,-335.0055"/>
</g>
<!-- 40 -->
<g id="node41" class="node">
<title>40</title>
<path fill="none" stroke="#5663d8" stroke-width="2" d="M726,-1404C726,-1404 622,-1404 622,-1404 616,-1404 610,-1398 610,-1392 610,-1392 610,-1380 610,-1380 610,-1374 616,-1368 622,-1368 622,-1368 726,-1368 726,-1368 732,-1368 738,-1374 738,-1380 738,-1380 738,-1392 738,-1392 738,-1398 732,-1404 726,-1404"/>
<text text-anchor="middle" x="674" y="-1383.5" font-family="sans" font-size="10.00" fill="#000000">filter_for_host_rename</text>
</g>
<!-- 40&#45;&gt;34 -->
<g id="edge66" class="edge">
<title>40&#45;&gt;34</title>
<path fill="none" stroke="#c0c0c0" stroke-width="2" d="M674,-1367.8314C674,-1360.131 674,-1350.9743 674,-1342.4166"/>
<polygon fill="#c0c0c0" stroke="#c0c0c0" stroke-width="2" points="677.5001,-1342.4132 674,-1332.4133 670.5001,-1342.4133 677.5001,-1342.4132"/>
</g>
<!-- 41&#45;&gt;36 -->
<g id="edge68" class="edge">
<title>41&#45;&gt;36</title>
<path fill="none" stroke="#c0c0c0" stroke-width="2" d="M1001.0181,-1079.8314C988.7072,-1070.8779 973.6893,-1059.9558 960.4063,-1050.2955"/>
<polygon fill="#c0c0c0" stroke="#c0c0c0" stroke-width="2" points="962.1199,-1047.214 951.9739,-1044.1628 958.0027,-1052.8752 962.1199,-1047.214"/>
</g>
<!-- 41&#45;&gt;37 -->
<g id="edge70" class="edge">
<title>41&#45;&gt;37</title>
<path fill="none" stroke="#c0c0c0" stroke-width="2" d="M1046.1874,-1079.8314C1055.8514,-1071.1337 1067.5796,-1060.5783 1078.0816,-1051.1265"/>
<polygon fill="#c0c0c0" stroke="#c0c0c0" stroke-width="2" points="1080.7275,-1053.454 1085.8191,-1044.1628 1076.0447,-1048.251 1080.7275,-1053.454"/>
</g>
<!-- 42&#45;&gt;39 -->
<g id="edge73" class="edge">
<title>42&#45;&gt;39</title>
<path fill="none" stroke="#c0c0c0" stroke-width="2" d="M585,-431.8314C585,-424.131 585,-414.9743 585,-406.4166"/>
<polygon fill="#c0c0c0" stroke="#c0c0c0" stroke-width="2" points="588.5001,-406.4132 585,-396.4133 581.5001,-406.4133 588.5001,-406.4132"/>
</g>
<!-- 43 -->
<g id="node44" class="node">
<title>43</title>
<path fill="none" stroke="#d87d56" stroke-width="2" d="M704.5,-1476C704.5,-1476 643.5,-1476 643.5,-1476 637.5,-1476 631.5,-1470 631.5,-1464 631.5,-1464 631.5,-1452 631.5,-1452 631.5,-1446 637.5,-1440 643.5,-1440 643.5,-1440 704.5,-1440 704.5,-1440 710.5,-1440 716.5,-1446 716.5,-1452 716.5,-1452 716.5,-1464 716.5,-1464 716.5,-1470 710.5,-1476 704.5,-1476"/>
<text text-anchor="middle" x="674" y="-1455.5" font-family="sans" font-size="10.00" fill="#000000">filter_for_host</text>
</g>
<!-- 43&#45;&gt;40 -->
<g id="edge74" class="edge">
<title>43&#45;&gt;40</title>
<path fill="none" stroke="#c0c0c0" stroke-width="2" d="M674,-1439.8314C674,-1432.131 674,-1422.9743 674,-1414.4166"/>
<polygon fill="#c0c0c0" stroke="#c0c0c0" stroke-width="2" points="677.5001,-1414.4132 674,-1404.4133 670.5001,-1414.4133 677.5001,-1414.4132"/>
</g>
<!-- 44 -->
<g id="node45" class="node">
<title>44</title>
<path fill="none" stroke="#afd856" stroke-width="2" d="M416.5,-540C416.5,-540 285.5,-540 285.5,-540 279.5,-540 273.5,-534 273.5,-528 273.5,-528 273.5,-516 273.5,-516 273.5,-510 279.5,-504 285.5,-504 285.5,-504 416.5,-504 416.5,-504 422.5,-504 428.5,-510 428.5,-516 428.5,-516 428.5,-528 428.5,-528 428.5,-534 422.5,-540 416.5,-540"/>
<text text-anchor="middle" x="351" y="-519.5" font-family="sans" font-size="10.00" fill="#000000">combine_filter_contignames</text>
</g>
<!-- 44&#45;&gt;42 -->
<g id="edge77" class="edge">
<title>44&#45;&gt;42</title>
<path fill="none" stroke="#c0c0c0" stroke-width="2" d="M409.746,-503.9243C442.1525,-493.9531 482.5639,-481.5188 516.412,-471.104"/>
<polygon fill="#c0c0c0" stroke="#c0c0c0" stroke-width="2" points="517.7013,-474.3693 526.2298,-468.0831 515.6427,-467.6788 517.7013,-474.3693"/>
</g>
<!-- 45 -->
<g id="node46" class="node">
<title>45</title>
<path fill="none" stroke="#56d8c1" stroke-width="2" d="M797.5,-1548C797.5,-1548 666.5,-1548 666.5,-1548 660.5,-1548 654.5,-1542 654.5,-1536 654.5,-1536 654.5,-1524 654.5,-1524 654.5,-1518 660.5,-1512 666.5,-1512 666.5,-1512 797.5,-1512 797.5,-1512 803.5,-1512 809.5,-1518 809.5,-1524 809.5,-1524 809.5,-1536 809.5,-1536 809.5,-1542 803.5,-1548 797.5,-1548"/>
<text text-anchor="middle" x="732" y="-1527.5" font-family="sans" font-size="10.00" fill="#000000">create_host_filter_bt2_index</text>
</g>
<!-- 45&#45;&gt;43 -->
<g id="edge79" class="edge">
<title>45&#45;&gt;43</title>
<path fill="none" stroke="#c0c0c0" stroke-width="2" d="M717.3642,-1511.8314C710.6839,-1503.5386 702.6432,-1493.557 695.3096,-1484.4533"/>
<polygon fill="#c0c0c0" stroke="#c0c0c0" stroke-width="2" points="697.8319,-1482.0052 688.8329,-1476.4133 692.3806,-1486.3965 697.8319,-1482.0052"/>
</g>
<!-- 46 -->
<g id="node47" class="node">
<title>46</title>
<path fill="none" stroke="#56d8a9" stroke-width="2" d="M624,-1548C624,-1548 460,-1548 460,-1548 454,-1548 448,-1542 448,-1536 448,-1536 448,-1524 448,-1524 448,-1518 454,-1512 460,-1512 460,-1512 624,-1512 624,-1512 630,-1512 636,-1518 636,-1524 636,-1524 636,-1536 636,-1536 636,-1542 630,-1548 624,-1548"/>
<text text-anchor="middle" x="542" y="-1527.5" font-family="sans" font-size="10.00" fill="#000000">trimmomatic_genomic_sequencing</text>
</g>
<!-- 46&#45;&gt;43 -->
<g id="edge80" class="edge">
<title>46&#45;&gt;43</title>
<path fill="none" stroke="#c0c0c0" stroke-width="2" d="M575.3092,-1511.8314C592.4273,-1502.4942 613.4706,-1491.016 631.7222,-1481.0606"/>
<polygon fill="#c0c0c0" stroke="#c0c0c0" stroke-width="2" points="633.5985,-1484.024 640.7015,-1476.1628 630.2465,-1477.8788 633.5985,-1484.024"/>
</g>
<!-- 47&#45;&gt;44 -->
<g id="edge81" class="edge">
<title>47&#45;&gt;44</title>
<path fill="none" stroke="#c0c0c0" stroke-width="2" d="M351,-575.8314C351,-568.131 351,-558.9743 351,-550.4166"/>
<polygon fill="#c0c0c0" stroke="#c0c0c0" stroke-width="2" points="354.5001,-550.4132 351,-540.4133 347.5001,-550.4133 354.5001,-550.4132"/>
</g>
<!-- 48&#45;&gt;44 -->
<g id="edge82" class="edge">
<title>48&#45;&gt;44</title>
<path fill="none" stroke="#c0c0c0" stroke-width="2" d="M196.5139,-1151.5519C204.146,-1124.3422 217,-1071.7276 217,-1026 217,-1026 217,-1026 217,-666 217,-621.0781 232.4963,-608.9772 263,-576 274.1827,-563.9105 288.6732,-553.5433 302.6568,-545.2193"/>
<polygon fill="#c0c0c0" stroke="#c0c0c0" stroke-width="2" points="304.7779,-548.0391 311.733,-540.0468 301.3119,-541.9574 304.7779,-548.0391"/>
</g>
<!-- 49 -->
<g id="node50" class="node">
<title>49</title>
<path fill="none" stroke="#56d8c9" stroke-width="2" d="M786,-1620C786,-1620 678,-1620 678,-1620 672,-1620 666,-1614 666,-1608 666,-1608 666,-1596 666,-1596 666,-1590 672,-1584 678,-1584 678,-1584 786,-1584 786,-1584 792,-1584 798,-1590 798,-1596 798,-1596 798,-1608 798,-1608 798,-1614 792,-1620 786,-1620"/>
<text text-anchor="middle" x="732" y="-1599.5" font-family="sans" font-size="10.00" fill="#000000">create_host_filter_fasta</text>
</g>
<!-- 49&#45;&gt;45 -->
<g id="edge83" class="edge">
<title>49&#45;&gt;45</title>
<path fill="none" stroke="#c0c0c0" stroke-width="2" d="M732,-1583.8314C732,-1576.131 732,-1566.9743 732,-1558.4166"/>
<polygon fill="#c0c0c0" stroke="#c0c0c0" stroke-width="2" points="735.5001,-1558.4132 732,-1548.4133 728.5001,-1558.4133 735.5001,-1558.4132"/>
</g>
<!-- 50 -->
<g id="node51" class="node">
<title>50</title>
<path fill="none" stroke="#d8d356" stroke-width="2" d="M723.5,-1692C723.5,-1692 614.5,-1692 614.5,-1692 608.5,-1692 602.5,-1686 602.5,-1680 602.5,-1680 602.5,-1668 602.5,-1668 602.5,-1662 608.5,-1656 614.5,-1656 614.5,-1656 723.5,-1656 723.5,-1656 729.5,-1656 735.5,-1662 735.5,-1668 735.5,-1668 735.5,-1680 735.5,-1680 735.5,-1686 729.5,-1692 723.5,-1692"/>
<text text-anchor="middle" x="669" y="-1671.5" font-family="sans" font-size="10.00" fill="#000000">CAT_filter_contignames</text>
</g>
<!-- 50&#45;&gt;49 -->
<g id="edge86" class="edge">
<title>50&#45;&gt;49</title>
<path fill="none" stroke="#c0c0c0" stroke-width="2" d="M684.8976,-1655.8314C692.2278,-1647.454 701.066,-1637.3531 709.0969,-1628.1749"/>
<polygon fill="#c0c0c0" stroke="#c0c0c0" stroke-width="2" points="711.9373,-1630.2438 715.8884,-1620.4133 706.6693,-1625.6343 711.9373,-1630.2438"/>
</g>
<!-- 51 -->
<g id="node52" class="node">
<title>51</title>
<path fill="none" stroke="#d6d856" stroke-width="2" d="M829.5,-1980C829.5,-1980 710.5,-1980 710.5,-1980 704.5,-1980 698.5,-1974 698.5,-1968 698.5,-1968 698.5,-1956 698.5,-1956 698.5,-1950 704.5,-1944 710.5,-1944 710.5,-1944 829.5,-1944 829.5,-1944 835.5,-1944 841.5,-1950 841.5,-1956 841.5,-1956 841.5,-1968 841.5,-1968 841.5,-1974 835.5,-1980 829.5,-1980"/>
<text text-anchor="middle" x="770" y="-1959.5" font-family="sans" font-size="10.00" fill="#000000">download_azolla_genome</text>
</g>
<!-- 51&#45;&gt;49 -->
<g id="edge87" class="edge">
<title>51&#45;&gt;49</title>
<path fill="none" stroke="#c0c0c0" stroke-width="2" d="M806.9101,-1943.9666C821.4944,-1935.0652 837.1028,-1922.9875 847,-1908 869.528,-1873.8855 866,-1858.8816 866,-1818 866,-1818 866,-1818 866,-1746 866,-1692.0273 814.9264,-1649.8118 775.8418,-1625.408"/>
<polygon fill="#c0c0c0" stroke="#c0c0c0" stroke-width="2" points="777.5738,-1622.3651 767.2069,-1620.1792 773.948,-1628.3529 777.5738,-1622.3651"/>
</g>
<!-- 51&#45;&gt;53 -->
<g id="edge92" class="edge">
<title>51&#45;&gt;53</title>
<path fill="none" stroke="#c0c0c0" stroke-width="2" d="M741.6697,-1943.9111C726.7185,-1933.9298 708.3437,-1920.9577 693,-1908 669.2018,-1887.9025 644.4712,-1862.4678 627.1372,-1843.7682"/>
<polygon fill="#c0c0c0" stroke="#c0c0c0" stroke-width="2" points="629.5285,-1841.1976 620.1855,-1836.2017 624.3737,-1845.9336 629.5285,-1841.1976"/>
</g>
<!-- 54 -->
<g id="node55" class="node">
<title>54</title>
<path fill="none" stroke="#d8bc56" stroke-width="2" d="M826,-1908C826,-1908 714,-1908 714,-1908 708,-1908 702,-1902 702,-1896 702,-1896 702,-1884 702,-1884 702,-1878 708,-1872 714,-1872 714,-1872 826,-1872 826,-1872 832,-1872 838,-1878 838,-1884 838,-1884 838,-1896 838,-1896 838,-1902 832,-1908 826,-1908"/>
<text text-anchor="middle" x="770" y="-1887.5" font-family="sans" font-size="10.00" fill="#000000">CAT_prepare_ORFS_host</text>
</g>
<!-- 51&#45;&gt;54 -->
<g id="edge95" class="edge">
<title>51&#45;&gt;54</title>
<path fill="none" stroke="#c0c0c0" stroke-width="2" d="M770,-1943.8314C770,-1936.131 770,-1926.9743 770,-1918.4166"/>
<polygon fill="#c0c0c0" stroke="#c0c0c0" stroke-width="2" points="773.5001,-1918.4132 770,-1908.4133 766.5001,-1918.4133 773.5001,-1918.4132"/>
</g>
<!-- 52&#45;&gt;50 -->
<g id="edge88" class="edge">
<title>52&#45;&gt;50</title>
<path fill="none" stroke="#c0c0c0" stroke-width="2" d="M620.4022,-1727.8314C628.0415,-1719.3694 637.2683,-1709.1489 645.6207,-1699.8971"/>
<polygon fill="#c0c0c0" stroke="#c0c0c0" stroke-width="2" points="648.2738,-1702.1813 652.3769,-1692.4133 643.0779,-1697.4906 648.2738,-1702.1813"/>
</g>
<!-- 53&#45;&gt;52 -->
<g id="edge89" class="edge">
<title>53&#45;&gt;52</title>
<path fill="none" stroke="#c0c0c0" stroke-width="2" d="M604,-1799.8314C604,-1792.131 604,-1782.9743 604,-1774.4166"/>
<polygon fill="#c0c0c0" stroke="#c0c0c0" stroke-width="2" points="607.5001,-1774.4132 604,-1764.4133 600.5001,-1774.4133 607.5001,-1774.4132"/>
</g>
<!-- 54&#45;&gt;53 -->
<g id="edge91" class="edge">
<title>54&#45;&gt;53</title>
<path fill="none" stroke="#c0c0c0" stroke-width="2" d="M728.1112,-1871.8314C705.9097,-1862.2018 678.4578,-1850.295 655.0216,-1840.1299"/>
<polygon fill="#c0c0c0" stroke="#c0c0c0" stroke-width="2" points="656.1545,-1836.8062 645.5876,-1836.038 653.3691,-1843.2282 656.1545,-1836.8062"/>
</g>
</g>
</svg>
