<?xml version="1.0" encoding="UTF-8" standalone="no"?>
<!DOCTYPE svg PUBLIC "-//W3C//DTD SVG 1.1//EN"
 "http://www.w3.org/Graphics/SVG/1.1/DTD/svg11.dtd">
<!-- Generated by graphviz version 2.40.1 (20161225.0304)
 -->
<!-- Title: snakemake_dag Pages: 1 -->
<svg width="1414pt" height="1412pt"
 viewBox="0.00 0.00 1414.00 1412.00" xmlns="http://www.w3.org/2000/svg" xmlns:xlink="http://www.w3.org/1999/xlink">
<g id="graph0" class="graph" transform="scale(1 1) rotate(0) translate(4 1408)">
<title>snakemake_dag</title>
<polygon fill="#ffffff" stroke="transparent" points="-4,4 -4,-1408 1410,-1408 1410,4 -4,4"/>
<!-- 0 -->
<g id="node1" class="node">
<title>0</title>
<path fill="none" stroke="#5663d8" stroke-width="2" d="M617,-540C617,-540 587,-540 587,-540 581,-540 575,-534 575,-528 575,-528 575,-516 575,-516 575,-510 581,-504 587,-504 587,-504 617,-504 617,-504 623,-504 629,-510 629,-516 629,-516 629,-528 629,-528 629,-534 623,-540 617,-540"/>
<text text-anchor="middle" x="602" y="-519.5" font-family="sans" font-size="10.00" fill="#000000">all</text>
</g>
<!-- 1 -->
<g id="node2" class="node">
<title>1</title>
<path fill="none" stroke="#d8d356" stroke-width="2" d="M186,-1116C186,-1116 40,-1116 40,-1116 34,-1116 28,-1110 28,-1104 28,-1104 28,-1092 28,-1092 28,-1086 34,-1080 40,-1080 40,-1080 186,-1080 186,-1080 192,-1080 198,-1086 198,-1092 198,-1092 198,-1104 198,-1104 198,-1110 192,-1116 186,-1116"/>
<text text-anchor="middle" x="113" y="-1095.5" font-family="sans" font-size="10.00" fill="#000000">collect_assembly_stats_singles</text>
</g>
<!-- 1&#45;&gt;0 -->
<g id="edge6" class="edge">
<title>1&#45;&gt;0</title>
<path fill="none" stroke="#c0c0c0" stroke-width="2" d="M97.2428,-1079.8597C76.3256,-1053.8524 42,-1003.6151 42,-954 42,-954 42,-954 42,-810 42,-675.7535 115.3552,-640.6671 233,-576 289.7336,-544.8146 483.012,-529.3988 564.8789,-524.1455"/>
<polygon fill="#c0c0c0" stroke="#c0c0c0" stroke-width="2" points="565.2196,-527.6312 574.9812,-523.5129 564.782,-520.6448 565.2196,-527.6312"/>
</g>
<!-- 2 -->
<g id="node3" class="node">
<title>2</title>
<path fill="none" stroke="#59d856" stroke-width="2" d="M1148,-684C1148,-684 1074,-684 1074,-684 1068,-684 1062,-678 1062,-672 1062,-672 1062,-660 1062,-660 1062,-654 1068,-648 1074,-648 1074,-648 1148,-648 1148,-648 1154,-648 1160,-654 1160,-660 1160,-660 1160,-672 1160,-672 1160,-678 1154,-684 1148,-684"/>
<text text-anchor="middle" x="1111" y="-663.5" font-family="sans" font-size="10.00" fill="#000000">BAT_add_names</text>
</g>
<!-- 2&#45;&gt;0 -->
<g id="edge5" class="edge">
<title>2&#45;&gt;0</title>
<path fill="none" stroke="#c0c0c0" stroke-width="2" d="M1078.3959,-647.8865C1035.6828,-624.4281 962.8363,-585.4225 934,-576 830.6291,-542.2227 701.9643,-529.0121 639.5073,-524.3201"/>
<polygon fill="#c0c0c0" stroke="#c0c0c0" stroke-width="2" points="639.5757,-520.816 629.3502,-523.589 639.0731,-527.798 639.5757,-520.816"/>
</g>
<!-- 39 -->
<g id="node40" class="node">
<title>39</title>
<path fill="none" stroke="#56d87b" stroke-width="2" d="M1170,-612C1170,-612 1036,-612 1036,-612 1030,-612 1024,-606 1024,-600 1024,-600 1024,-588 1024,-588 1024,-582 1030,-576 1036,-576 1036,-576 1170,-576 1170,-576 1176,-576 1182,-582 1182,-588 1182,-588 1182,-600 1182,-600 1182,-606 1176,-612 1170,-612"/>
<text text-anchor="middle" x="1103" y="-591.5" font-family="sans" font-size="10.00" fill="#000000">BAT_filter_contignames_bins</text>
</g>
<!-- 2&#45;&gt;39 -->
<g id="edge67" class="edge">
<title>2&#45;&gt;39</title>
<path fill="none" stroke="#c0c0c0" stroke-width="2" d="M1108.9813,-647.8314C1108.1257,-640.131 1107.1083,-630.9743 1106.1574,-622.4166"/>
<polygon fill="#c0c0c0" stroke="#c0c0c0" stroke-width="2" points="1109.6289,-621.9656 1105.0459,-612.4133 1102.6717,-622.7386 1109.6289,-621.9656"/>
</g>
<!-- 3 -->
<g id="node4" class="node">
<title>3</title>
<path fill="none" stroke="#ced856" stroke-width="2" d="M673.5,-612C673.5,-612 642.5,-612 642.5,-612 636.5,-612 630.5,-606 630.5,-600 630.5,-600 630.5,-588 630.5,-588 630.5,-582 636.5,-576 642.5,-576 642.5,-576 673.5,-576 673.5,-576 679.5,-576 685.5,-582 685.5,-588 685.5,-588 685.5,-600 685.5,-600 685.5,-606 679.5,-612 673.5,-612"/>
<text text-anchor="middle" x="658" y="-591.5" font-family="sans" font-size="10.00" fill="#000000">checkm</text>
</g>
<!-- 3&#45;&gt;0 -->
<g id="edge7" class="edge">
<title>3&#45;&gt;0</title>
<path fill="none" stroke="#c0c0c0" stroke-width="2" d="M643.8688,-575.8314C637.4189,-567.5386 629.6555,-557.557 622.5748,-548.4533"/>
<polygon fill="#c0c0c0" stroke="#c0c0c0" stroke-width="2" points="625.2236,-546.158 616.3214,-540.4133 619.6981,-550.4556 625.2236,-546.158"/>
</g>
<!-- 4 -->
<g id="node5" class="node">
<title>4</title>
<path fill="none" stroke="#88d856" stroke-width="2" d="M217,-900C217,-900 129,-900 129,-900 123,-900 117,-894 117,-888 117,-888 117,-876 117,-876 117,-870 123,-864 129,-864 129,-864 217,-864 217,-864 223,-864 229,-870 229,-876 229,-876 229,-888 229,-888 229,-894 223,-900 217,-900"/>
<text text-anchor="middle" x="173" y="-879.5" font-family="sans" font-size="10.00" fill="#000000">anvi_run_ncbi_cogs</text>
</g>
<!-- 4&#45;&gt;0 -->
<g id="edge2" class="edge">
<title>4&#45;&gt;0</title>
<path fill="none" stroke="#c0c0c0" stroke-width="2" d="M175.4864,-863.855C179.0013,-836.5902 185,-783.4068 185,-738 185,-738 185,-738 185,-666 185,-586.0167 462.5627,-540.6938 564.7867,-526.714"/>
<polygon fill="#c0c0c0" stroke="#c0c0c0" stroke-width="2" points="565.5157,-530.1476 574.9608,-525.3474 564.5838,-523.2099 565.5157,-530.1476"/>
</g>
<!-- 5 -->
<g id="node6" class="node">
<title>5</title>
<path fill="none" stroke="#d8c356" stroke-width="2" d="M507,-612C507,-612 381,-612 381,-612 375,-612 369,-606 369,-600 369,-600 369,-588 369,-588 369,-582 375,-576 381,-576 381,-576 507,-576 507,-576 513,-576 519,-582 519,-588 519,-588 519,-600 519,-600 519,-606 513,-612 507,-612"/>
<text text-anchor="middle" x="444" y="-591.5" font-family="sans" font-size="10.00" fill="#000000">anvi_import_cat_taxonomy</text>
</g>
<!-- 5&#45;&gt;0 -->
<g id="edge4" class="edge">
<title>5&#45;&gt;0</title>
<path fill="none" stroke="#c0c0c0" stroke-width="2" d="M483.8701,-575.8314C508.8887,-564.4305 540.9122,-549.8375 565.3041,-538.7222"/>
<polygon fill="#c0c0c0" stroke="#c0c0c0" stroke-width="2" points="566.9317,-541.8268 574.58,-534.4952 564.0289,-535.457 566.9317,-541.8268"/>
</g>
<!-- 6 -->
<g id="node7" class="node">
<title>6</title>
<path fill="none" stroke="#61d856" stroke-width="2" d="M708,-684C708,-684 604,-684 604,-684 598,-684 592,-678 592,-672 592,-672 592,-660 592,-660 592,-654 598,-648 604,-648 604,-648 708,-648 708,-648 714,-648 720,-654 720,-660 720,-660 720,-672 720,-672 720,-678 714,-684 708,-684"/>
<text text-anchor="middle" x="656" y="-663.5" font-family="sans" font-size="10.00" fill="#000000">anvi_import_metabat2</text>
</g>
<!-- 6&#45;&gt;0 -->
<g id="edge3" class="edge">
<title>6&#45;&gt;0</title>
<path fill="none" stroke="#c0c0c0" stroke-width="2" d="M641.8968,-647.9479C634.6638,-637.8743 626.2869,-624.8047 621,-612 612.7977,-592.1341 607.9684,-568.2814 605.2325,-550.1244"/>
<polygon fill="#c0c0c0" stroke="#c0c0c0" stroke-width="2" points="608.6921,-549.5908 603.8539,-540.1652 601.7582,-550.5507 608.6921,-549.5908"/>
</g>
<!-- 7 -->
<g id="node8" class="node">
<title>7</title>
<path fill="none" stroke="#d85e56" stroke-width="2" d="M970.5,-1260C970.5,-1260 827.5,-1260 827.5,-1260 821.5,-1260 815.5,-1254 815.5,-1248 815.5,-1248 815.5,-1236 815.5,-1236 815.5,-1230 821.5,-1224 827.5,-1224 827.5,-1224 970.5,-1224 970.5,-1224 976.5,-1224 982.5,-1230 982.5,-1236 982.5,-1236 982.5,-1248 982.5,-1248 982.5,-1254 976.5,-1260 970.5,-1260"/>
<text text-anchor="middle" x="899" y="-1239.5" font-family="sans" font-size="10.00" fill="#000000">collect_assembly_stats_hybrid</text>
</g>
<!-- 7&#45;&gt;0 -->
<g id="edge1" class="edge">
<title>7&#45;&gt;0</title>
<path fill="none" stroke="#c0c0c0" stroke-width="2" d="M958.4249,-1223.9989C1013.1812,-1203.296 1086,-1163.4584 1086,-1098 1086,-1098 1086,-1098 1086,-1026 1086,-883.7278 1090.5686,-822.5944 992,-720 888.8712,-612.6591 715.002,-553.6097 639.2007,-531.8346"/>
<polygon fill="#c0c0c0" stroke="#c0c0c0" stroke-width="2" points="639.7478,-528.3525 629.1733,-529.0082 637.8487,-535.0899 639.7478,-528.3525"/>
</g>
<!-- 8 -->
<g id="node9" class="node">
<title>8</title>
<path fill="none" stroke="#56a9d8" stroke-width="2" d="M380,-1404C380,-1404 254,-1404 254,-1404 248,-1404 242,-1398 242,-1392 242,-1392 242,-1380 242,-1380 242,-1374 248,-1368 254,-1368 254,-1368 380,-1368 380,-1368 386,-1368 392,-1374 392,-1380 392,-1380 392,-1392 392,-1392 392,-1398 386,-1404 380,-1404"/>
<text text-anchor="middle" x="317" y="-1383.5" font-family="sans" font-size="10.00" fill="#000000">CAT_add_names_assembly</text>
</g>
<!-- 8&#45;&gt;1 -->
<g id="edge8" class="edge">
<title>8&#45;&gt;1</title>
<path fill="none" stroke="#c0c0c0" stroke-width="2" d="M264.9737,-1367.8994C246.3558,-1359.3557 226.4308,-1347.5523 212,-1332 155.6539,-1271.2752 128.7007,-1173.7184 118.3384,-1126.0467"/>
<polygon fill="#c0c0c0" stroke="#c0c0c0" stroke-width="2" points="121.7366,-1125.1974 116.2664,-1116.1239 114.8844,-1126.6283 121.7366,-1125.1974"/>
</g>
<!-- 8&#45;&gt;7 -->
<g id="edge17" class="edge">
<title>8&#45;&gt;7</title>
<path fill="none" stroke="#c0c0c0" stroke-width="2" d="M392.0027,-1371.2508C442.7131,-1360.9856 511.0965,-1346.573 571,-1332 659.8196,-1310.3924 761.1579,-1282.0074 827.3969,-1262.9427"/>
<polygon fill="#c0c0c0" stroke="#c0c0c0" stroke-width="2" points="828.6756,-1266.2167 837.3141,-1260.0826 826.7358,-1259.4908 828.6756,-1266.2167"/>
</g>
<!-- 12 -->
<g id="node13" class="node">
<title>12</title>
<path fill="none" stroke="#56d8a2" stroke-width="2" d="M400.5,-684C400.5,-684 231.5,-684 231.5,-684 225.5,-684 219.5,-678 219.5,-672 219.5,-672 219.5,-660 219.5,-660 219.5,-654 225.5,-648 231.5,-648 231.5,-648 400.5,-648 400.5,-648 406.5,-648 412.5,-654 412.5,-660 412.5,-660 412.5,-672 412.5,-672 412.5,-678 406.5,-684 400.5,-684"/>
<text text-anchor="middle" x="316" y="-663.5" font-family="sans" font-size="10.00" fill="#000000">prepare_anvi_import_cat_taxonomy</text>
</g>
<!-- 8&#45;&gt;12 -->
<g id="edge22" class="edge">
<title>8&#45;&gt;12</title>
<path fill="none" stroke="#c0c0c0" stroke-width="2" d="M282.2976,-1367.8708C268.3483,-1358.887 253.3785,-1346.7728 244,-1332 222.1369,-1297.5616 226,-1282.7922 226,-1242 226,-1242 226,-1242 226,-1098 226,-1017.2674 287.0023,-776.6562 308.5619,-694.1395"/>
<polygon fill="#c0c0c0" stroke="#c0c0c0" stroke-width="2" points="312.0103,-694.7875 311.1612,-684.2267 305.2392,-693.0119 312.0103,-694.7875"/>
</g>
<!-- 31 -->
<g id="node32" class="node">
<title>31</title>
<path fill="none" stroke="#56d863" stroke-width="2" d="M550.5,-1332C550.5,-1332 265.5,-1332 265.5,-1332 259.5,-1332 253.5,-1326 253.5,-1320 253.5,-1320 253.5,-1308 253.5,-1308 253.5,-1302 259.5,-1296 265.5,-1296 265.5,-1296 550.5,-1296 550.5,-1296 556.5,-1296 562.5,-1302 562.5,-1308 562.5,-1308 562.5,-1320 562.5,-1320 562.5,-1326 556.5,-1332 550.5,-1332"/>
<text text-anchor="middle" x="408" y="-1311.5" font-family="sans" font-size="10.00" fill="#000000">CAT_filter_unclassified_and_eukaryotic_scaffolds_for_anvio</text>
</g>
<!-- 8&#45;&gt;31 -->
<g id="edge56" class="edge">
<title>8&#45;&gt;31</title>
<path fill="none" stroke="#c0c0c0" stroke-width="2" d="M339.9631,-1367.8314C351.1715,-1358.9632 364.8209,-1348.1637 376.9439,-1338.5718"/>
<polygon fill="#c0c0c0" stroke="#c0c0c0" stroke-width="2" points="379.3737,-1341.1125 385.0442,-1332.1628 375.0303,-1335.6229 379.3737,-1341.1125"/>
</g>
<!-- 40 -->
<g id="node41" class="node">
<title>40</title>
<path fill="none" stroke="#9fd856" stroke-width="2" d="M1134,-1332C1134,-1332 908,-1332 908,-1332 902,-1332 896,-1326 896,-1320 896,-1320 896,-1308 896,-1308 896,-1302 902,-1296 908,-1296 908,-1296 1134,-1296 1134,-1296 1140,-1296 1146,-1302 1146,-1308 1146,-1308 1146,-1320 1146,-1320 1146,-1326 1140,-1332 1134,-1332"/>
<text text-anchor="middle" x="1021" y="-1311.5" font-family="sans" font-size="10.00" fill="#000000">CAT_filter_contignames_first_spades_assembly</text>
</g>
<!-- 8&#45;&gt;40 -->
<g id="edge68" class="edge">
<title>8&#45;&gt;40</title>
<path fill="none" stroke="#c0c0c0" stroke-width="2" d="M392.0068,-1378.3289C509.5878,-1366.3035 739.0122,-1342.8397 885.8859,-1327.8185"/>
<polygon fill="#c0c0c0" stroke="#c0c0c0" stroke-width="2" points="886.2849,-1331.296 895.8769,-1326.7967 885.5727,-1324.3323 886.2849,-1331.296"/>
</g>
<!-- 9 -->
<g id="node10" class="node">
<title>9</title>
<path fill="none" stroke="#56d8b1" stroke-width="2" d="M1130,-756C1130,-756 1092,-756 1092,-756 1086,-756 1080,-750 1080,-744 1080,-744 1080,-732 1080,-732 1080,-726 1086,-720 1092,-720 1092,-720 1130,-720 1130,-720 1136,-720 1142,-726 1142,-732 1142,-732 1142,-744 1142,-744 1142,-750 1136,-756 1130,-756"/>
<text text-anchor="middle" x="1111" y="-735.5" font-family="sans" font-size="10.00" fill="#000000">CAT_bins</text>
</g>
<!-- 9&#45;&gt;2 -->
<g id="edge9" class="edge">
<title>9&#45;&gt;2</title>
<path fill="none" stroke="#c0c0c0" stroke-width="2" d="M1111,-719.8314C1111,-712.131 1111,-702.9743 1111,-694.4166"/>
<polygon fill="#c0c0c0" stroke="#c0c0c0" stroke-width="2" points="1114.5001,-694.4132 1111,-684.4133 1107.5001,-694.4133 1114.5001,-694.4132"/>
</g>
<!-- 10 -->
<g id="node11" class="node">
<title>10</title>
<path fill="none" stroke="#56d8a9" stroke-width="2" d="M469,-972C469,-972 341,-972 341,-972 335,-972 329,-966 329,-960 329,-960 329,-948 329,-948 329,-942 335,-936 341,-936 341,-936 469,-936 469,-936 475,-936 481,-942 481,-948 481,-948 481,-960 481,-960 481,-966 475,-972 469,-972"/>
<text text-anchor="middle" x="405" y="-951.5" font-family="sans" font-size="10.00" fill="#000000">anvi_gen_contigs_database</text>
</g>
<!-- 10&#45;&gt;4 -->
<g id="edge10" class="edge">
<title>10&#45;&gt;4</title>
<path fill="none" stroke="#c0c0c0" stroke-width="2" d="M346.7561,-935.9243C314.0158,-925.7635 273.0343,-913.0451 239.095,-902.5122"/>
<polygon fill="#c0c0c0" stroke="#c0c0c0" stroke-width="2" points="239.8529,-899.0828 229.2648,-899.4615 237.778,-905.7683 239.8529,-899.0828"/>
</g>
<!-- 10&#45;&gt;6 -->
<g id="edge15" class="edge">
<title>10&#45;&gt;6</title>
<path fill="none" stroke="#c0c0c0" stroke-width="2" d="M481.3814,-945.4184C586.9024,-933.1953 765.4599,-911.0335 775,-900 831.9918,-834.0868 737.4877,-736.1133 685.9811,-690.7283"/>
<polygon fill="#c0c0c0" stroke="#c0c0c0" stroke-width="2" points="688.2628,-688.0742 678.4151,-684.166 683.6763,-693.3623 688.2628,-688.0742"/>
</g>
<!-- 13 -->
<g id="node14" class="node">
<title>13</title>
<path fill="none" stroke="#8fd856" stroke-width="2" d="M469,-756C469,-756 419,-756 419,-756 413,-756 407,-750 407,-744 407,-744 407,-732 407,-732 407,-726 413,-720 419,-720 419,-720 469,-720 469,-720 475,-720 481,-726 481,-732 481,-732 481,-744 481,-744 481,-750 475,-756 469,-756"/>
<text text-anchor="middle" x="444" y="-735.5" font-family="sans" font-size="10.00" fill="#000000">anvi_merge</text>
</g>
<!-- 10&#45;&gt;13 -->
<g id="edge25" class="edge">
<title>10&#45;&gt;13</title>
<path fill="none" stroke="#c0c0c0" stroke-width="2" d="M392.6519,-935.9772C373.0679,-904.9563 339.58,-840.1668 365,-792 372.2452,-778.2715 384.7257,-767.3708 397.6548,-759.0625"/>
<polygon fill="#c0c0c0" stroke="#c0c0c0" stroke-width="2" points="399.8191,-761.8472 406.6184,-753.7219 396.2362,-755.8336 399.8191,-761.8472"/>
</g>
<!-- 19 -->
<g id="node20" class="node">
<title>19</title>
<path fill="none" stroke="#5692d8" stroke-width="2" d="M507.5,-828C507.5,-828 386.5,-828 386.5,-828 380.5,-828 374.5,-822 374.5,-816 374.5,-816 374.5,-804 374.5,-804 374.5,-798 380.5,-792 386.5,-792 386.5,-792 507.5,-792 507.5,-792 513.5,-792 519.5,-798 519.5,-804 519.5,-804 519.5,-816 519.5,-816 519.5,-822 513.5,-828 507.5,-828"/>
<text text-anchor="middle" x="447" y="-807.5" font-family="sans" font-size="10.00" fill="#000000">anvi_profile_binningsignal</text>
</g>
<!-- 10&#45;&gt;19 -->
<g id="edge39" class="edge">
<title>10&#45;&gt;19</title>
<path fill="none" stroke="#c0c0c0" stroke-width="2" d="M396.173,-935.6956C388.4538,-916.985 379.9229,-887.4279 390,-864 394.7491,-852.9589 402.9885,-843.1176 411.7506,-834.9593"/>
<polygon fill="#c0c0c0" stroke="#c0c0c0" stroke-width="2" points="414.245,-837.4291 419.5106,-828.2354 409.661,-832.1388 414.245,-837.4291"/>
</g>
<!-- 26 -->
<g id="node27" class="node">
<title>26</title>
<path fill="none" stroke="#68d856" stroke-width="2" d="M482.5,-900C482.5,-900 411.5,-900 411.5,-900 405.5,-900 399.5,-894 399.5,-888 399.5,-888 399.5,-876 399.5,-876 399.5,-870 405.5,-864 411.5,-864 411.5,-864 482.5,-864 482.5,-864 488.5,-864 494.5,-870 494.5,-876 494.5,-876 494.5,-888 494.5,-888 494.5,-894 488.5,-900 482.5,-900"/>
<text text-anchor="middle" x="447" y="-879.5" font-family="sans" font-size="10.00" fill="#000000">anvi_run_hmms</text>
</g>
<!-- 10&#45;&gt;26 -->
<g id="edge50" class="edge">
<title>10&#45;&gt;26</title>
<path fill="none" stroke="#c0c0c0" stroke-width="2" d="M415.5984,-935.8314C420.2877,-927.7925 425.9028,-918.1666 431.0798,-909.2918"/>
<polygon fill="#c0c0c0" stroke="#c0c0c0" stroke-width="2" points="434.2434,-910.8146 436.2589,-900.4133 428.1969,-907.2875 434.2434,-910.8146"/>
</g>
<!-- 11 -->
<g id="node12" class="node">
<title>11</title>
<path fill="none" stroke="#56c1d8" stroke-width="2" d="M219.5,-972C219.5,-972 120.5,-972 120.5,-972 114.5,-972 108.5,-966 108.5,-960 108.5,-960 108.5,-948 108.5,-948 108.5,-942 114.5,-936 120.5,-936 120.5,-936 219.5,-936 219.5,-936 225.5,-936 231.5,-942 231.5,-948 231.5,-948 231.5,-960 231.5,-960 231.5,-966 225.5,-972 219.5,-972"/>
<text text-anchor="middle" x="170" y="-951.5" font-family="sans" font-size="10.00" fill="#000000">anvi_setup_ncbi_cogs</text>
</g>
<!-- 11&#45;&gt;4 -->
<g id="edge11" class="edge">
<title>11&#45;&gt;4</title>
<path fill="none" stroke="#c0c0c0" stroke-width="2" d="M170.757,-935.8314C171.0779,-928.131 171.4594,-918.9743 171.816,-910.4166"/>
<polygon fill="#c0c0c0" stroke="#c0c0c0" stroke-width="2" points="175.3133,-910.5503 172.2328,-900.4133 168.3194,-910.2589 175.3133,-910.5503"/>
</g>
<!-- 12&#45;&gt;5 -->
<g id="edge12" class="edge">
<title>12&#45;&gt;5</title>
<path fill="none" stroke="#c0c0c0" stroke-width="2" d="M348.2998,-647.8314C364.8234,-638.5368 385.1186,-627.1208 402.7607,-617.1971"/>
<polygon fill="#c0c0c0" stroke="#c0c0c0" stroke-width="2" points="404.7107,-620.116 411.7105,-612.1628 401.2788,-614.015 404.7107,-620.116"/>
</g>
<!-- 13&#45;&gt;5 -->
<g id="edge13" class="edge">
<title>13&#45;&gt;5</title>
<path fill="none" stroke="#c0c0c0" stroke-width="2" d="M444,-719.7623C444,-695.201 444,-651.2474 444,-622.3541"/>
<polygon fill="#c0c0c0" stroke="#c0c0c0" stroke-width="2" points="447.5001,-622.0896 444,-612.0896 440.5001,-622.0897 447.5001,-622.0896"/>
</g>
<!-- 13&#45;&gt;6 -->
<g id="edge14" class="edge">
<title>13&#45;&gt;6</title>
<path fill="none" stroke="#c0c0c0" stroke-width="2" d="M481.4133,-725.2936C512.2938,-714.8059 556.7841,-699.696 593.1231,-687.3544"/>
<polygon fill="#c0c0c0" stroke="#c0c0c0" stroke-width="2" points="594.311,-690.6474 602.6542,-684.1174 592.0598,-684.0192 594.311,-690.6474"/>
</g>
<!-- 13&#45;&gt;12 -->
<g id="edge23" class="edge">
<title>13&#45;&gt;12</title>
<path fill="none" stroke="#c0c0c0" stroke-width="2" d="M411.7002,-719.8314C395.1766,-710.5368 374.8814,-699.1208 357.2393,-689.1971"/>
<polygon fill="#c0c0c0" stroke="#c0c0c0" stroke-width="2" points="358.7212,-686.015 348.2895,-684.1628 355.2893,-692.116 358.7212,-686.015"/>
</g>
<!-- 14 -->
<g id="node15" class="node">
<title>14</title>
<path fill="none" stroke="#d6d856" stroke-width="2" d="M971,-756C971,-756 825,-756 825,-756 819,-756 813,-750 813,-744 813,-744 813,-732 813,-732 813,-726 819,-720 825,-720 825,-720 971,-720 971,-720 977,-720 983,-726 983,-732 983,-732 983,-744 983,-744 983,-750 977,-756 971,-756"/>
<text text-anchor="middle" x="898" y="-735.5" font-family="sans" font-size="10.00" fill="#000000">prepare_anvi_import_metabat2</text>
</g>
<!-- 14&#45;&gt;6 -->
<g id="edge16" class="edge">
<title>14&#45;&gt;6</title>
<path fill="none" stroke="#c0c0c0" stroke-width="2" d="M837.2455,-719.9243C803.5874,-709.9103 761.5793,-697.412 726.4826,-686.97"/>
<polygon fill="#c0c0c0" stroke="#c0c0c0" stroke-width="2" points="727.3623,-683.5802 716.7794,-684.0831 725.3661,-690.2896 727.3623,-683.5802"/>
</g>
<!-- 15 -->
<g id="node16" class="node">
<title>15</title>
<path fill="none" stroke="#56d8d0" stroke-width="2" d="M1277,-36C1277,-36 1129,-36 1129,-36 1123,-36 1117,-30 1117,-24 1117,-24 1117,-12 1117,-12 1117,-6 1123,0 1129,0 1129,0 1277,0 1277,0 1283,0 1289,-6 1289,-12 1289,-12 1289,-24 1289,-24 1289,-30 1283,-36 1277,-36"/>
<text text-anchor="middle" x="1203" y="-15.5" font-family="sans" font-size="10.00" fill="#000000">CAT_classify_contigs_assembly</text>
</g>
<!-- 15&#45;&gt;8 -->
<g id="edge18" class="edge">
<title>15&#45;&gt;8</title>
<path fill="none" stroke="#c0c0c0" stroke-width="2" d="M1116.966,-19.26C841.6285,-24.4194 0,-49.3996 0,-162 0,-1242 0,-1242 0,-1242 0,-1293.2291 138.9717,-1339.7482 232.8845,-1365.3357"/>
<polygon fill="#c0c0c0" stroke="#c0c0c0" stroke-width="2" points="232.1114,-1368.7522 242.6776,-1367.9729 233.9317,-1361.993 232.1114,-1368.7522"/>
</g>
<!-- 16 -->
<g id="node17" class="node">
<title>16</title>
<path fill="none" stroke="#56d892" stroke-width="2" d="M971,-828C971,-828 931,-828 931,-828 925,-828 919,-822 919,-816 919,-816 919,-804 919,-804 919,-798 925,-792 931,-792 931,-792 971,-792 971,-792 977,-792 983,-798 983,-804 983,-804 983,-816 983,-816 983,-822 977,-828 971,-828"/>
<text text-anchor="middle" x="951" y="-807.5" font-family="sans" font-size="10.00" fill="#000000">metabat2</text>
</g>
<!-- 16&#45;&gt;9 -->
<g id="edge19" class="edge">
<title>16&#45;&gt;9</title>
<path fill="none" stroke="#c0c0c0" stroke-width="2" d="M983.3784,-795.4297C1008.5367,-784.1085 1043.5741,-768.3417 1070.5733,-756.192"/>
<polygon fill="#c0c0c0" stroke="#c0c0c0" stroke-width="2" points="1072.0757,-759.354 1079.7587,-752.0586 1069.2031,-752.9706 1072.0757,-759.354"/>
</g>
<!-- 16&#45;&gt;14 -->
<g id="edge27" class="edge">
<title>16&#45;&gt;14</title>
<path fill="none" stroke="#c0c0c0" stroke-width="2" d="M937.6259,-791.8314C931.5838,-783.6232 924.3237,-773.7606 917.6779,-764.7323"/>
<polygon fill="#c0c0c0" stroke="#c0c0c0" stroke-width="2" points="920.3011,-762.3918 911.5542,-756.4133 914.6637,-766.5415 920.3011,-762.3918"/>
</g>
<!-- 17 -->
<g id="node18" class="node">
<title>17</title>
<path fill="none" stroke="#56d873" stroke-width="2" d="M1262.5,-828C1262.5,-828 1221.5,-828 1221.5,-828 1215.5,-828 1209.5,-822 1209.5,-816 1209.5,-816 1209.5,-804 1209.5,-804 1209.5,-798 1215.5,-792 1221.5,-792 1221.5,-792 1262.5,-792 1262.5,-792 1268.5,-792 1274.5,-798 1274.5,-804 1274.5,-804 1274.5,-816 1274.5,-816 1274.5,-822 1268.5,-828 1262.5,-828"/>
<text text-anchor="middle" x="1242" y="-807.5" font-family="sans" font-size="10.00" fill="#000000">CAT_build</text>
</g>
<!-- 17&#45;&gt;9 -->
<g id="edge20" class="edge">
<title>17&#45;&gt;9</title>
<path fill="none" stroke="#c0c0c0" stroke-width="2" d="M1209.2811,-792.0171C1191.6969,-782.3525 1169.8658,-770.3537 1151.2485,-760.1213"/>
<polygon fill="#c0c0c0" stroke="#c0c0c0" stroke-width="2" points="1152.8493,-757.0074 1142.3999,-755.258 1149.4776,-763.1419 1152.8493,-757.0074"/>
</g>
<!-- 17&#45;&gt;15 -->
<g id="edge30" class="edge">
<title>17&#45;&gt;15</title>
<path fill="none" stroke="#c0c0c0" stroke-width="2" d="M1246.9728,-791.9753C1254.0026,-764.864 1266,-711.8742 1266,-666 1266,-666 1266,-666 1266,-594 1266,-505.5958 1280.7729,-484.3031 1285,-396 1288.8252,-316.0915 1296.8184,-295.1222 1285,-216 1275.1137,-149.8133 1270.4018,-132.1162 1241,-72 1236.316,-62.4229 1230.0202,-52.6776 1223.9019,-44.1503"/>
<polygon fill="#c0c0c0" stroke="#c0c0c0" stroke-width="2" points="1226.681,-42.0219 1217.909,-36.0802 1221.0611,-46.1953 1226.681,-42.0219"/>
</g>
<!-- 18 -->
<g id="node19" class="node">
<title>18</title>
<path fill="none" stroke="#56d88a" stroke-width="2" d="M477,-1188C477,-1188 339,-1188 339,-1188 333,-1188 327,-1182 327,-1176 327,-1176 327,-1164 327,-1164 327,-1158 333,-1152 339,-1152 339,-1152 477,-1152 477,-1152 483,-1152 489,-1158 489,-1164 489,-1164 489,-1176 489,-1176 489,-1182 483,-1188 477,-1188"/>
<text text-anchor="middle" x="408" y="-1167.5" font-family="sans" font-size="10.00" fill="#000000">shorten_scaffold_names_anvi</text>
</g>
<!-- 18&#45;&gt;10 -->
<g id="edge21" class="edge">
<title>18&#45;&gt;10</title>
<path fill="none" stroke="#c0c0c0" stroke-width="2" d="M407.7494,-1151.9555C407.2277,-1114.3938 406.0216,-1027.5541 405.3946,-982.4103"/>
<polygon fill="#c0c0c0" stroke="#c0c0c0" stroke-width="2" points="408.8906,-982.0955 405.252,-972.1451 401.8913,-982.1927 408.8906,-982.0955"/>
</g>
<!-- 18&#45;&gt;12 -->
<g id="edge24" class="edge">
<title>18&#45;&gt;12</title>
<path fill="none" stroke="#c0c0c0" stroke-width="2" d="M396.8347,-1151.7619C376.7929,-1117.8585 335.3742,-1042.1846 320,-972 298.0443,-871.7701 306.9387,-748.618 312.6321,-694.1704"/>
<polygon fill="#c0c0c0" stroke="#c0c0c0" stroke-width="2" points="316.1119,-694.5449 313.718,-684.2241 309.1533,-693.7851 316.1119,-694.5449"/>
</g>
<!-- 18&#45;&gt;16 -->
<g id="edge35" class="edge">
<title>18&#45;&gt;16</title>
<path fill="none" stroke="#c0c0c0" stroke-width="2" d="M489.2514,-1166.161C645.5984,-1156.5446 973,-1124.6321 973,-1026 973,-1026 973,-1026 973,-954 973,-913.2316 964.2765,-866.7078 957.8159,-837.8425"/>
<polygon fill="#c0c0c0" stroke="#c0c0c0" stroke-width="2" points="961.2155,-837.0083 955.5584,-828.0502 954.3944,-838.5809 961.2155,-837.0083"/>
</g>
<!-- 36 -->
<g id="node37" class="node">
<title>36</title>
<path fill="none" stroke="#80d856" stroke-width="2" d="M742.5,-1116C742.5,-1116 595.5,-1116 595.5,-1116 589.5,-1116 583.5,-1110 583.5,-1104 583.5,-1104 583.5,-1092 583.5,-1092 583.5,-1086 589.5,-1080 595.5,-1080 595.5,-1080 742.5,-1080 742.5,-1080 748.5,-1080 754.5,-1086 754.5,-1092 754.5,-1092 754.5,-1104 754.5,-1104 754.5,-1110 748.5,-1116 742.5,-1116"/>
<text text-anchor="middle" x="669" y="-1095.5" font-family="sans" font-size="10.00" fill="#000000">bwa_index_assembly_scaffolds</text>
</g>
<!-- 18&#45;&gt;36 -->
<g id="edge62" class="edge">
<title>18&#45;&gt;36</title>
<path fill="none" stroke="#c0c0c0" stroke-width="2" d="M473.5244,-1151.9243C509.9803,-1141.8675 555.5188,-1129.3052 593.4685,-1118.8363"/>
<polygon fill="#c0c0c0" stroke="#c0c0c0" stroke-width="2" points="594.7395,-1122.1165 603.4486,-1116.0831 592.8779,-1115.3685 594.7395,-1122.1165"/>
</g>
<!-- 19&#45;&gt;13 -->
<g id="edge26" class="edge">
<title>19&#45;&gt;13</title>
<path fill="none" stroke="#c0c0c0" stroke-width="2" d="M446.243,-791.8314C445.9221,-784.131 445.5406,-774.9743 445.184,-766.4166"/>
<polygon fill="#c0c0c0" stroke="#c0c0c0" stroke-width="2" points="448.6806,-766.2589 444.7672,-756.4133 441.6867,-766.5503 448.6806,-766.2589"/>
</g>
<!-- 20 -->
<g id="node21" class="node">
<title>20</title>
<path fill="none" stroke="#565bd8" stroke-width="2" d="M1080.5,-180C1080.5,-180 961.5,-180 961.5,-180 955.5,-180 949.5,-174 949.5,-168 949.5,-168 949.5,-156 949.5,-156 949.5,-150 955.5,-144 961.5,-144 961.5,-144 1080.5,-144 1080.5,-144 1086.5,-144 1092.5,-150 1092.5,-156 1092.5,-156 1092.5,-168 1092.5,-168 1092.5,-174 1086.5,-180 1080.5,-180"/>
<text text-anchor="middle" x="1021" y="-159.5" font-family="sans" font-size="10.00" fill="#000000">spades_second_assembly</text>
</g>
<!-- 20&#45;&gt;15 -->
<g id="edge32" class="edge">
<title>20&#45;&gt;15</title>
<path fill="none" stroke="#c0c0c0" stroke-width="2" d="M1033.1827,-143.9456C1047.0913,-124.349 1071.3854,-93.0443 1098,-72 1113.4663,-59.7707 1132.1336,-49.1078 1149.413,-40.5607"/>
<polygon fill="#c0c0c0" stroke="#c0c0c0" stroke-width="2" points="1151.3413,-43.5175 1158.8407,-36.0335 1148.3111,-37.2073 1151.3413,-43.5175"/>
</g>
<!-- 21 -->
<g id="node22" class="node">
<title>21</title>
<path fill="none" stroke="#56c9d8" stroke-width="2" d="M1205,-108C1205,-108 1119,-108 1119,-108 1113,-108 1107,-102 1107,-96 1107,-96 1107,-84 1107,-84 1107,-78 1113,-72 1119,-72 1119,-72 1205,-72 1205,-72 1211,-72 1217,-78 1217,-84 1217,-84 1217,-96 1217,-96 1217,-102 1211,-108 1205,-108"/>
<text text-anchor="middle" x="1162" y="-87.5" font-family="sans" font-size="10.00" fill="#000000">CAT_prepare_ORFS</text>
</g>
<!-- 20&#45;&gt;21 -->
<g id="edge43" class="edge">
<title>20&#45;&gt;21</title>
<path fill="none" stroke="#c0c0c0" stroke-width="2" d="M1056.5803,-143.8314C1075.0325,-134.4089 1097.7545,-122.8062 1117.373,-112.7883"/>
<polygon fill="#c0c0c0" stroke="#c0c0c0" stroke-width="2" points="1119.1168,-115.8278 1126.4311,-108.1628 1115.9333,-109.5935 1119.1168,-115.8278"/>
</g>
<!-- 25 -->
<g id="node26" class="node">
<title>25</title>
<path fill="none" stroke="#569ad8" stroke-width="2" d="M489,-1260C489,-1260 327,-1260 327,-1260 321,-1260 315,-1254 315,-1248 315,-1248 315,-1236 315,-1236 315,-1230 321,-1224 327,-1224 327,-1224 489,-1224 489,-1224 495,-1224 501,-1230 501,-1236 501,-1236 501,-1248 501,-1248 501,-1254 495,-1260 489,-1260"/>
<text text-anchor="middle" x="408" y="-1239.5" font-family="sans" font-size="10.00" fill="#000000">filter_unclassfied_filter_eukaryotic</text>
</g>
<!-- 20&#45;&gt;25 -->
<g id="edge48" class="edge">
<title>20&#45;&gt;25</title>
<path fill="none" stroke="#c0c0c0" stroke-width="2" d="M949.4997,-165.4147C729.9034,-176.8446 80,-218.0971 80,-306 80,-882 80,-882 80,-882 80,-922.8816 79.394,-936.1264 99,-972 101.0489,-975.7489 314.6236,-1185.3825 318,-1188 332.446,-1199.1992 349.3897,-1209.913 364.6556,-1218.8022"/>
<polygon fill="#c0c0c0" stroke="#c0c0c0" stroke-width="2" points="363.0004,-1221.8876 373.4184,-1223.8151 366.4763,-1215.8115 363.0004,-1221.8876"/>
</g>
<!-- 21&#45;&gt;15 -->
<g id="edge31" class="edge">
<title>21&#45;&gt;15</title>
<path fill="none" stroke="#c0c0c0" stroke-width="2" d="M1172.346,-71.8314C1176.9237,-63.7925 1182.4052,-54.1666 1187.4588,-45.2918"/>
<polygon fill="#c0c0c0" stroke="#c0c0c0" stroke-width="2" points="1190.6077,-46.8351 1192.5147,-36.4133 1184.5248,-43.3712 1190.6077,-46.8351"/>
</g>
<!-- 22 -->
<g id="node23" class="node">
<title>22</title>
<path fill="none" stroke="#d8cb56" stroke-width="2" d="M1394,-1260C1394,-1260 1290,-1260 1290,-1260 1284,-1260 1278,-1254 1278,-1248 1278,-1248 1278,-1236 1278,-1236 1278,-1230 1284,-1224 1290,-1224 1290,-1224 1394,-1224 1394,-1224 1400,-1224 1406,-1230 1406,-1236 1406,-1236 1406,-1248 1406,-1248 1406,-1254 1400,-1260 1394,-1260"/>
<text text-anchor="middle" x="1342" y="-1239.5" font-family="sans" font-size="10.00" fill="#000000">spades_first_assembly</text>
</g>
<!-- 22&#45;&gt;15 -->
<g id="edge29" class="edge">
<title>22&#45;&gt;15</title>
<path fill="none" stroke="#c0c0c0" stroke-width="2" d="M1350.0588,-1223.7668C1361.2134,-1196.8248 1380,-1144.5405 1380,-1098 1380,-1098 1380,-1098 1380,-162 1380,-101.5853 1317.183,-62.0474 1266.3933,-39.9533"/>
<polygon fill="#c0c0c0" stroke="#c0c0c0" stroke-width="2" points="1267.6424,-36.6817 1257.0676,-36.0297 1264.9277,-43.1339 1267.6424,-36.6817"/>
</g>
<!-- 22&#45;&gt;21 -->
<g id="edge42" class="edge">
<title>22&#45;&gt;21</title>
<path fill="none" stroke="#c0c0c0" stroke-width="2" d="M1342,-1223.8146C1342,-1196.4983 1342,-1143.25 1342,-1098 1342,-1098 1342,-1098 1342,-378 1342,-268.233 1333.9404,-227.7631 1263,-144 1252.039,-131.0578 1237.1696,-120.7451 1222.2131,-112.7466"/>
<polygon fill="#c0c0c0" stroke="#c0c0c0" stroke-width="2" points="1223.4284,-109.4397 1212.9235,-108.0626 1220.2768,-115.6901 1223.4284,-109.4397"/>
</g>
<!-- 24 -->
<g id="node25" class="node">
<title>24</title>
<path fill="none" stroke="#56d85b" stroke-width="2" d="M1301.5,-1188C1301.5,-1188 1164.5,-1188 1164.5,-1188 1158.5,-1188 1152.5,-1182 1152.5,-1176 1152.5,-1176 1152.5,-1164 1152.5,-1164 1152.5,-1158 1158.5,-1152 1164.5,-1152 1164.5,-1152 1301.5,-1152 1301.5,-1152 1307.5,-1152 1313.5,-1158 1313.5,-1164 1313.5,-1164 1313.5,-1176 1313.5,-1176 1313.5,-1182 1307.5,-1188 1301.5,-1188"/>
<text text-anchor="middle" x="1233" y="-1167.5" font-family="sans" font-size="10.00" fill="#000000">shorten_scaffold_names_awk</text>
</g>
<!-- 22&#45;&gt;24 -->
<g id="edge46" class="edge">
<title>22&#45;&gt;24</title>
<path fill="none" stroke="#c0c0c0" stroke-width="2" d="M1314.4947,-1223.8314C1300.682,-1214.7074 1283.7744,-1203.539 1268.9471,-1193.7449"/>
<polygon fill="#c0c0c0" stroke="#c0c0c0" stroke-width="2" points="1270.7696,-1190.7541 1260.4965,-1188.1628 1266.9114,-1196.5949 1270.7696,-1190.7541"/>
</g>
<!-- 23 -->
<g id="node24" class="node">
<title>23</title>
<path fill="none" stroke="#56b1d8" stroke-width="2" d="M932.5,-900C932.5,-900 835.5,-900 835.5,-900 829.5,-900 823.5,-894 823.5,-888 823.5,-888 823.5,-876 823.5,-876 823.5,-870 829.5,-864 835.5,-864 835.5,-864 932.5,-864 932.5,-864 938.5,-864 944.5,-870 944.5,-876 944.5,-876 944.5,-888 944.5,-888 944.5,-894 938.5,-900 932.5,-900"/>
<text text-anchor="middle" x="884" y="-879.5" font-family="sans" font-size="10.00" fill="#000000">jgi_summarize_script</text>
</g>
<!-- 23&#45;&gt;16 -->
<g id="edge34" class="edge">
<title>23&#45;&gt;16</title>
<path fill="none" stroke="#c0c0c0" stroke-width="2" d="M900.9069,-863.8314C908.7813,-855.3694 918.292,-845.1489 926.9013,-835.8971"/>
<polygon fill="#c0c0c0" stroke="#c0c0c0" stroke-width="2" points="929.6153,-838.1183 933.8654,-828.4133 924.4908,-833.3497 929.6153,-838.1183"/>
</g>
<!-- 24&#45;&gt;16 -->
<g id="edge33" class="edge">
<title>24&#45;&gt;16</title>
<path fill="none" stroke="#c0c0c0" stroke-width="2" d="M1218.6279,-1151.6526C1172.2372,-1092.4305 1026.3371,-906.175 971.8216,-836.5808"/>
<polygon fill="#c0c0c0" stroke="#c0c0c0" stroke-width="2" points="974.2651,-834.0244 965.3432,-828.3104 968.7545,-838.3411 974.2651,-834.0244"/>
</g>
<!-- 24&#45;&gt;36 -->
<g id="edge61" class="edge">
<title>24&#45;&gt;36</title>
<path fill="none" stroke="#c0c0c0" stroke-width="2" d="M1152.4922,-1159.7224C1050.225,-1146.667 873.9522,-1124.1641 764.8546,-1110.2368"/>
<polygon fill="#c0c0c0" stroke="#c0c0c0" stroke-width="2" points="765.2004,-1106.7526 754.8377,-1108.958 764.3139,-1113.6962 765.2004,-1106.7526"/>
</g>
<!-- 37 -->
<g id="node38" class="node">
<title>37</title>
<path fill="none" stroke="#56d882" stroke-width="2" d="M1255.5,-468C1255.5,-468 1056.5,-468 1056.5,-468 1050.5,-468 1044.5,-462 1044.5,-456 1044.5,-456 1044.5,-444 1044.5,-444 1044.5,-438 1050.5,-432 1056.5,-432 1056.5,-432 1255.5,-432 1255.5,-432 1261.5,-432 1267.5,-438 1267.5,-444 1267.5,-444 1267.5,-456 1267.5,-456 1267.5,-462 1261.5,-468 1255.5,-468"/>
<text text-anchor="middle" x="1156" y="-447.5" font-family="sans" font-size="10.00" fill="#000000">create_filter_fasta_first_spades_assembly</text>
</g>
<!-- 24&#45;&gt;37 -->
<g id="edge63" class="edge">
<title>24&#45;&gt;37</title>
<path fill="none" stroke="#c0c0c0" stroke-width="2" d="M1248.7572,-1151.8597C1269.6744,-1125.8524 1304,-1075.6151 1304,-1026 1304,-1026 1304,-1026 1304,-594 1304,-537.9393 1248.7761,-496.6363 1205.795,-472.9797"/>
<polygon fill="#c0c0c0" stroke="#c0c0c0" stroke-width="2" points="1207.3041,-469.818 1196.8334,-468.2006 1204.0101,-475.9945 1207.3041,-469.818"/>
</g>
<!-- 25&#45;&gt;18 -->
<g id="edge36" class="edge">
<title>25&#45;&gt;18</title>
<path fill="none" stroke="#c0c0c0" stroke-width="2" d="M408,-1223.8314C408,-1216.131 408,-1206.9743 408,-1198.4166"/>
<polygon fill="#c0c0c0" stroke="#c0c0c0" stroke-width="2" points="411.5001,-1198.4132 408,-1188.4133 404.5001,-1198.4133 411.5001,-1198.4132"/>
</g>
<!-- 26&#45;&gt;19 -->
<g id="edge37" class="edge">
<title>26&#45;&gt;19</title>
<path fill="none" stroke="#c0c0c0" stroke-width="2" d="M447,-863.8314C447,-856.131 447,-846.9743 447,-838.4166"/>
<polygon fill="#c0c0c0" stroke="#c0c0c0" stroke-width="2" points="450.5001,-838.4132 447,-828.4133 443.5001,-838.4133 450.5001,-838.4132"/>
</g>
<!-- 27 -->
<g id="node28" class="node">
<title>27</title>
<path fill="none" stroke="#d8a456" stroke-width="2" d="M715,-972C715,-972 603,-972 603,-972 597,-972 591,-966 591,-960 591,-960 591,-948 591,-948 591,-942 597,-936 603,-936 603,-936 715,-936 715,-936 721,-936 727,-942 727,-948 727,-948 727,-960 727,-960 727,-966 721,-972 715,-972"/>
<text text-anchor="middle" x="659" y="-951.5" font-family="sans" font-size="10.00" fill="#000000">backmap_samtools_sort</text>
</g>
<!-- 27&#45;&gt;19 -->
<g id="edge38" class="edge">
<title>27&#45;&gt;19</title>
<path fill="none" stroke="#c0c0c0" stroke-width="2" d="M610.7173,-935.9115C588.85,-926.6837 563.2078,-914.366 542,-900 538.148,-897.3907 500.3199,-861.2624 473.5794,-835.5849"/>
<polygon fill="#c0c0c0" stroke="#c0c0c0" stroke-width="2" points="475.6637,-832.7338 466.028,-828.3287 470.8136,-837.7812 475.6637,-832.7338"/>
</g>
<!-- 27&#45;&gt;23 -->
<g id="edge45" class="edge">
<title>27&#45;&gt;23</title>
<path fill="none" stroke="#c0c0c0" stroke-width="2" d="M715.4866,-935.9243C746.5129,-925.9959 785.1703,-913.6255 817.6306,-903.2382"/>
<polygon fill="#c0c0c0" stroke="#c0c0c0" stroke-width="2" points="819.0327,-906.4645 827.4902,-900.0831 816.8992,-899.7975 819.0327,-906.4645"/>
</g>
<!-- 28 -->
<g id="node29" class="node">
<title>28</title>
<path fill="none" stroke="#568ad8" stroke-width="2" d="M754.5,-900C754.5,-900 563.5,-900 563.5,-900 557.5,-900 551.5,-894 551.5,-888 551.5,-888 551.5,-876 551.5,-876 551.5,-870 557.5,-864 563.5,-864 563.5,-864 754.5,-864 754.5,-864 760.5,-864 766.5,-870 766.5,-876 766.5,-876 766.5,-888 766.5,-888 766.5,-894 760.5,-900 754.5,-900"/>
<text text-anchor="middle" x="659" y="-879.5" font-family="sans" font-size="10.00" fill="#000000">backmap_samtools_index_binningsignal</text>
</g>
<!-- 27&#45;&gt;28 -->
<g id="edge53" class="edge">
<title>27&#45;&gt;28</title>
<path fill="none" stroke="#c0c0c0" stroke-width="2" d="M659,-935.8314C659,-928.131 659,-918.9743 659,-910.4166"/>
<polygon fill="#c0c0c0" stroke="#c0c0c0" stroke-width="2" points="662.5001,-910.4132 659,-900.4133 655.5001,-910.4133 662.5001,-910.4132"/>
</g>
<!-- 28&#45;&gt;19 -->
<g id="edge40" class="edge">
<title>28&#45;&gt;19</title>
<path fill="none" stroke="#c0c0c0" stroke-width="2" d="M605.7771,-863.9243C576.6694,-854.0387 540.4334,-841.7321 509.9306,-831.3726"/>
<polygon fill="#c0c0c0" stroke="#c0c0c0" stroke-width="2" points="510.8392,-827.9849 500.2448,-828.0831 508.5881,-834.6131 510.8392,-827.9849"/>
</g>
<!-- 29 -->
<g id="node30" class="node">
<title>29</title>
<path fill="none" stroke="#d8ac56" stroke-width="2" d="M1241.5,-180C1241.5,-180 1122.5,-180 1122.5,-180 1116.5,-180 1110.5,-174 1110.5,-168 1110.5,-168 1110.5,-156 1110.5,-156 1110.5,-150 1116.5,-144 1122.5,-144 1122.5,-144 1241.5,-144 1241.5,-144 1247.5,-144 1253.5,-150 1253.5,-156 1253.5,-156 1253.5,-168 1253.5,-168 1253.5,-174 1247.5,-180 1241.5,-180"/>
<text text-anchor="middle" x="1182" y="-159.5" font-family="sans" font-size="10.00" fill="#000000">SPADES_hybrid_assembly</text>
</g>
<!-- 29&#45;&gt;15 -->
<g id="edge28" class="edge">
<title>29&#45;&gt;15</title>
<path fill="none" stroke="#c0c0c0" stroke-width="2" d="M1202.4026,-143.5625C1211.4941,-133.9675 1221.2162,-121.4441 1226,-108 1233.2986,-87.4882 1226.5034,-63.5817 1218.4492,-45.565"/>
<polygon fill="#c0c0c0" stroke="#c0c0c0" stroke-width="2" points="1221.4336,-43.6971 1213.9267,-36.2206 1215.1327,-46.7466 1221.4336,-43.6971"/>
</g>
<!-- 29&#45;&gt;21 -->
<g id="edge44" class="edge">
<title>29&#45;&gt;21</title>
<path fill="none" stroke="#c0c0c0" stroke-width="2" d="M1176.9532,-143.8314C1174.7906,-136.0463 1172.2147,-126.7729 1169.8152,-118.1347"/>
<polygon fill="#c0c0c0" stroke="#c0c0c0" stroke-width="2" points="1173.1636,-117.1117 1167.1148,-108.4133 1166.419,-118.9852 1173.1636,-117.1117"/>
</g>
<!-- 29&#45;&gt;25 -->
<g id="edge49" class="edge">
<title>29&#45;&gt;25</title>
<path fill="none" stroke="#c0c0c0" stroke-width="2" d="M1122.8929,-180.0942C1068.4294,-200.8691 996,-240.7611 996,-306 996,-594 996,-594 996,-594 996,-690.2312 1011,-713.7688 1011,-810 1011,-1098 1011,-1098 1011,-1098 1011,-1199.5057 683.6577,-1229.6064 511.3367,-1238.4197"/>
<polygon fill="#c0c0c0" stroke="#c0c0c0" stroke-width="2" points="511.0412,-1234.93 501.227,-1238.9215 511.3882,-1241.9214 511.0412,-1234.93"/>
</g>
<!-- 30 -->
<g id="node31" class="node">
<title>30</title>
<path fill="none" stroke="#d87556" stroke-width="2" d="M1196.5,-324C1196.5,-324 1109.5,-324 1109.5,-324 1103.5,-324 1097.5,-318 1097.5,-312 1097.5,-312 1097.5,-300 1097.5,-300 1097.5,-294 1103.5,-288 1109.5,-288 1109.5,-288 1196.5,-288 1196.5,-288 1202.5,-288 1208.5,-294 1208.5,-300 1208.5,-300 1208.5,-312 1208.5,-312 1208.5,-318 1202.5,-324 1196.5,-324"/>
<text text-anchor="middle" x="1153" y="-303.5" font-family="sans" font-size="10.00" fill="#000000">filter_for_assembly</text>
</g>
<!-- 30&#45;&gt;20 -->
<g id="edge41" class="edge">
<title>30&#45;&gt;20</title>
<path fill="none" stroke="#c0c0c0" stroke-width="2" d="M1103.2261,-287.9726C1085.3622,-279.413 1066.3544,-267.5797 1053,-252 1037.9749,-234.4712 1029.828,-209.3906 1025.5218,-190.1559"/>
<polygon fill="#c0c0c0" stroke="#c0c0c0" stroke-width="2" points="1028.9132,-189.2673 1023.5054,-180.1565 1022.0513,-190.6511 1028.9132,-189.2673"/>
</g>
<!-- 33 -->
<g id="node34" class="node">
<title>33</title>
<path fill="none" stroke="#d8bc56" stroke-width="2" d="M1264,-252C1264,-252 1074,-252 1074,-252 1068,-252 1062,-246 1062,-240 1062,-240 1062,-228 1062,-228 1062,-222 1068,-216 1074,-216 1074,-216 1264,-216 1264,-216 1270,-216 1276,-222 1276,-228 1276,-228 1276,-240 1276,-240 1276,-246 1270,-252 1264,-252"/>
<text text-anchor="middle" x="1169" y="-231.5" font-family="sans" font-size="10.00" fill="#000000">concatenate_fastq_for_hybrid_assembly</text>
</g>
<!-- 30&#45;&gt;33 -->
<g id="edge58" class="edge">
<title>30&#45;&gt;33</title>
<path fill="none" stroke="#c0c0c0" stroke-width="2" d="M1157.0375,-287.8314C1158.7487,-280.131 1160.7835,-270.9743 1162.6852,-262.4166"/>
<polygon fill="#c0c0c0" stroke="#c0c0c0" stroke-width="2" points="1166.1554,-262.9344 1164.9082,-252.4133 1159.3221,-261.4159 1166.1554,-262.9344"/>
</g>
<!-- 31&#45;&gt;25 -->
<g id="edge47" class="edge">
<title>31&#45;&gt;25</title>
<path fill="none" stroke="#c0c0c0" stroke-width="2" d="M408,-1295.8314C408,-1288.131 408,-1278.9743 408,-1270.4166"/>
<polygon fill="#c0c0c0" stroke="#c0c0c0" stroke-width="2" points="411.5001,-1270.4132 408,-1260.4133 404.5001,-1270.4133 411.5001,-1270.4132"/>
</g>
<!-- 32 -->
<g id="node33" class="node">
<title>32</title>
<path fill="none" stroke="#567bd8" stroke-width="2" d="M626,-1044C626,-1044 532,-1044 532,-1044 526,-1044 520,-1038 520,-1032 520,-1032 520,-1020 520,-1020 520,-1014 526,-1008 532,-1008 532,-1008 626,-1008 626,-1008 632,-1008 638,-1014 638,-1020 638,-1020 638,-1032 638,-1032 638,-1038 632,-1044 626,-1044"/>
<text text-anchor="middle" x="579" y="-1023.5" font-family="sans" font-size="10.00" fill="#000000">backmap_bwa_mem</text>
</g>
<!-- 32&#45;&gt;27 -->
<g id="edge52" class="edge">
<title>32&#45;&gt;27</title>
<path fill="none" stroke="#c0c0c0" stroke-width="2" d="M599.1874,-1007.8314C608.8514,-999.1337 620.5796,-988.5783 631.0816,-979.1265"/>
<polygon fill="#c0c0c0" stroke="#c0c0c0" stroke-width="2" points="633.7275,-981.454 638.8191,-972.1628 629.0447,-976.251 633.7275,-981.454"/>
</g>
<!-- 33&#45;&gt;29 -->
<g id="edge54" class="edge">
<title>33&#45;&gt;29</title>
<path fill="none" stroke="#c0c0c0" stroke-width="2" d="M1172.2804,-215.8314C1173.6708,-208.131 1175.3241,-198.9743 1176.8692,-190.4166"/>
<polygon fill="#c0c0c0" stroke="#c0c0c0" stroke-width="2" points="1180.3428,-190.8761 1178.6754,-180.4133 1173.4542,-189.6322 1180.3428,-190.8761"/>
</g>
<!-- 34 -->
<g id="node35" class="node">
<title>34</title>
<path fill="none" stroke="#d86e56" stroke-width="2" d="M1264,-396C1264,-396 1042,-396 1042,-396 1036,-396 1030,-390 1030,-384 1030,-384 1030,-372 1030,-372 1030,-366 1036,-360 1042,-360 1042,-360 1264,-360 1264,-360 1270,-360 1276,-366 1276,-372 1276,-372 1276,-384 1276,-384 1276,-390 1270,-396 1264,-396"/>
<text text-anchor="middle" x="1153" y="-375.5" font-family="sans" font-size="10.00" fill="#000000">create_first_spades_assembly_filter_bt2_index</text>
</g>
<!-- 34&#45;&gt;30 -->
<g id="edge55" class="edge">
<title>34&#45;&gt;30</title>
<path fill="none" stroke="#c0c0c0" stroke-width="2" d="M1153,-359.8314C1153,-352.131 1153,-342.9743 1153,-334.4166"/>
<polygon fill="#c0c0c0" stroke="#c0c0c0" stroke-width="2" points="1156.5001,-334.4132 1153,-324.4133 1149.5001,-334.4133 1156.5001,-334.4132"/>
</g>
<!-- 35 -->
<g id="node36" class="node">
<title>35</title>
<path fill="none" stroke="#56d8b9" stroke-width="2" d="M847.5,-1044C847.5,-1044 668.5,-1044 668.5,-1044 662.5,-1044 656.5,-1038 656.5,-1032 656.5,-1032 656.5,-1020 656.5,-1020 656.5,-1014 662.5,-1008 668.5,-1008 668.5,-1008 847.5,-1008 847.5,-1008 853.5,-1008 859.5,-1014 859.5,-1020 859.5,-1020 859.5,-1032 859.5,-1032 859.5,-1038 853.5,-1044 847.5,-1044"/>
<text text-anchor="middle" x="758" y="-1023.5" font-family="sans" font-size="10.00" fill="#000000">backmap_bwa_mem_assemblysource</text>
</g>
<!-- 35&#45;&gt;27 -->
<g id="edge51" class="edge">
<title>35&#45;&gt;27</title>
<path fill="none" stroke="#c0c0c0" stroke-width="2" d="M733.0181,-1007.8314C720.7072,-998.8779 705.6893,-987.9558 692.4063,-978.2955"/>
<polygon fill="#c0c0c0" stroke="#c0c0c0" stroke-width="2" points="694.1199,-975.214 683.9739,-972.1628 690.0027,-980.8752 694.1199,-975.214"/>
</g>
<!-- 36&#45;&gt;32 -->
<g id="edge57" class="edge">
<title>36&#45;&gt;32</title>
<path fill="none" stroke="#c0c0c0" stroke-width="2" d="M646.2892,-1079.8314C635.204,-1070.9632 621.7046,-1060.1637 609.7148,-1050.5718"/>
<polygon fill="#c0c0c0" stroke="#c0c0c0" stroke-width="2" points="611.6987,-1047.6768 601.7035,-1044.1628 607.3258,-1053.1429 611.6987,-1047.6768"/>
</g>
<!-- 36&#45;&gt;35 -->
<g id="edge60" class="edge">
<title>36&#45;&gt;35</title>
<path fill="none" stroke="#c0c0c0" stroke-width="2" d="M691.4585,-1079.8314C702.4205,-1070.9632 715.7699,-1060.1637 727.6265,-1050.5718"/>
<polygon fill="#c0c0c0" stroke="#c0c0c0" stroke-width="2" points="729.9755,-1053.1734 735.5487,-1044.1628 725.5729,-1047.7313 729.9755,-1053.1734"/>
</g>
<!-- 37&#45;&gt;34 -->
<g id="edge59" class="edge">
<title>37&#45;&gt;34</title>
<path fill="none" stroke="#c0c0c0" stroke-width="2" d="M1155.243,-431.8314C1154.9221,-424.131 1154.5406,-414.9743 1154.184,-406.4166"/>
<polygon fill="#c0c0c0" stroke="#c0c0c0" stroke-width="2" points="1157.6806,-406.2589 1153.7672,-396.4133 1150.6867,-406.5503 1157.6806,-406.2589"/>
</g>
<!-- 38 -->
<g id="node39" class="node">
<title>38</title>
<path fill="none" stroke="#5673d8" stroke-width="2" d="M1221.5,-540C1221.5,-540 1090.5,-540 1090.5,-540 1084.5,-540 1078.5,-534 1078.5,-528 1078.5,-528 1078.5,-516 1078.5,-516 1078.5,-510 1084.5,-504 1090.5,-504 1090.5,-504 1221.5,-504 1221.5,-504 1227.5,-504 1233.5,-510 1233.5,-516 1233.5,-516 1233.5,-528 1233.5,-528 1233.5,-534 1227.5,-540 1221.5,-540"/>
<text text-anchor="middle" x="1156" y="-519.5" font-family="sans" font-size="10.00" fill="#000000">combine_filter_contignames</text>
</g>
<!-- 38&#45;&gt;37 -->
<g id="edge64" class="edge">
<title>38&#45;&gt;37</title>
<path fill="none" stroke="#c0c0c0" stroke-width="2" d="M1156,-503.8314C1156,-496.131 1156,-486.9743 1156,-478.4166"/>
<polygon fill="#c0c0c0" stroke="#c0c0c0" stroke-width="2" points="1159.5001,-478.4132 1156,-468.4133 1152.5001,-478.4133 1159.5001,-478.4132"/>
</g>
<!-- 39&#45;&gt;38 -->
<g id="edge66" class="edge">
<title>39&#45;&gt;38</title>
<path fill="none" stroke="#c0c0c0" stroke-width="2" d="M1116.3741,-575.8314C1122.4162,-567.6232 1129.6763,-557.7606 1136.3221,-548.7323"/>
<polygon fill="#c0c0c0" stroke="#c0c0c0" stroke-width="2" points="1139.3363,-550.5415 1142.4458,-540.4133 1133.6989,-546.3918 1139.3363,-550.5415"/>
</g>
<!-- 40&#45;&gt;38 -->
<g id="edge65" class="edge">
<title>40&#45;&gt;38</title>
<path fill="none" stroke="#c0c0c0" stroke-width="2" d="M1045.6711,-1295.8169C1076.1427,-1271.0584 1124,-1223.6361 1124,-1170 1124,-1170 1124,-1170 1124,-1098 1124,-879.9571 1176.0761,-829.5316 1191,-612 1192.0951,-596.0375 1195.5374,-591.3431 1191,-576 1188.1312,-566.2994 1182.9132,-556.7055 1177.3667,-548.3563"/>
<polygon fill="#c0c0c0" stroke="#c0c0c0" stroke-width="2" points="1180.1909,-546.2881 1171.5525,-540.1538 1174.4801,-550.3362 1180.1909,-546.2881"/>
</g>
</g>
</svg>
