<?xml version="1.0" encoding="UTF-8" standalone="no"?>
<!DOCTYPE svg PUBLIC "-//W3C//DTD SVG 1.1//EN"
 "http://www.w3.org/Graphics/SVG/1.1/DTD/svg11.dtd">
<!-- Generated by graphviz version 2.40.1 (20161225.0304)
 -->
<!-- Title: snakemake_dag Pages: 1 -->
<svg width="719pt" height="980pt"
 viewBox="0.00 0.00 718.50 980.00" xmlns="http://www.w3.org/2000/svg" xmlns:xlink="http://www.w3.org/1999/xlink">
<g id="graph0" class="graph" transform="scale(1 1) rotate(0) translate(4 976)">
<title>snakemake_dag</title>
<polygon fill="#ffffff" stroke="transparent" points="-4,4 -4,-976 714.5,-976 714.5,4 -4,4"/>
<!-- 0 -->
<g id="node1" class="node">
<title>0</title>
<path fill="none" stroke="#56d8c9" stroke-width="2" d="M185.5,-540C185.5,-540 78.5,-540 78.5,-540 72.5,-540 66.5,-534 66.5,-528 66.5,-528 66.5,-516 66.5,-516 66.5,-510 72.5,-504 78.5,-504 78.5,-504 185.5,-504 185.5,-504 191.5,-504 197.5,-510 197.5,-516 197.5,-516 197.5,-528 197.5,-528 197.5,-534 191.5,-540 185.5,-540"/>
<text text-anchor="middle" x="132" y="-519.5" font-family="sans" font-size="10.00" fill="#000000">collect_assembly_stats</text>
</g>
<!-- 1 -->
<g id="node2" class="node">
<title>1</title>
<path fill="none" stroke="#78d856" stroke-width="2" d="M179.5,-612C179.5,-612 54.5,-612 54.5,-612 48.5,-612 42.5,-606 42.5,-600 42.5,-600 42.5,-588 42.5,-588 42.5,-582 48.5,-576 54.5,-576 54.5,-576 179.5,-576 179.5,-576 185.5,-576 191.5,-582 191.5,-588 191.5,-588 191.5,-600 191.5,-600 191.5,-606 185.5,-612 179.5,-612"/>
<text text-anchor="middle" x="117" y="-591.5" font-family="sans" font-size="10.00" fill="#000000">CAT_add_names_assembly</text>
</g>
<!-- 1&#45;&gt;0 -->
<g id="edge1" class="edge">
<title>1&#45;&gt;0</title>
<path fill="none" stroke="#c0c0c0" stroke-width="2" d="M120.7851,-575.8314C122.3894,-568.131 124.297,-558.9743 126.0799,-550.4166"/>
<polygon fill="#c0c0c0" stroke="#c0c0c0" stroke-width="2" points="129.5507,-550.9169 128.1639,-540.4133 122.6979,-549.4892 129.5507,-550.9169"/>
</g>
<!-- 17 -->
<g id="node18" class="node">
<title>17</title>
<path fill="none" stroke="#d8ac56" stroke-width="2" d="M452,-540C452,-540 228,-540 228,-540 222,-540 216,-534 216,-528 216,-528 216,-516 216,-516 216,-510 222,-504 228,-504 228,-504 452,-504 452,-504 458,-504 464,-510 464,-516 464,-516 464,-528 464,-528 464,-534 458,-540 452,-540"/>
<text text-anchor="middle" x="340" y="-519.5" font-family="sans" font-size="10.00" fill="#000000">CAT_filter_contignames_first_spades_assembly</text>
</g>
<!-- 1&#45;&gt;17 -->
<g id="edge24" class="edge">
<title>1&#45;&gt;17</title>
<path fill="none" stroke="#c0c0c0" stroke-width="2" d="M172.9845,-575.9243C203.735,-565.9959 242.0488,-553.6255 274.2205,-543.2382"/>
<polygon fill="#c0c0c0" stroke="#c0c0c0" stroke-width="2" points="275.5516,-546.4864 283.9925,-540.0831 273.4008,-539.825 275.5516,-546.4864"/>
</g>
<!-- 2 -->
<g id="node3" class="node">
<title>2</title>
<path fill="none" stroke="#d6d856" stroke-width="2" d="M83,-684C83,-684 19,-684 19,-684 13,-684 7,-678 7,-672 7,-672 7,-660 7,-660 7,-654 13,-648 19,-648 19,-648 83,-648 83,-648 89,-648 95,-654 95,-660 95,-660 95,-672 95,-672 95,-678 89,-684 83,-684"/>
<text text-anchor="middle" x="51" y="-663.5" font-family="sans" font-size="10.00" fill="#000000">CAT_download</text>
</g>
<!-- 2&#45;&gt;1 -->
<g id="edge2" class="edge">
<title>2&#45;&gt;1</title>
<path fill="none" stroke="#c0c0c0" stroke-width="2" d="M67.6546,-647.8314C75.4114,-639.3694 84.7802,-629.1489 93.261,-619.8971"/>
<polygon fill="#c0c0c0" stroke="#c0c0c0" stroke-width="2" points="95.9439,-622.1499 100.1212,-612.4133 90.7838,-617.4198 95.9439,-622.1499"/>
</g>
<!-- 3 -->
<g id="node4" class="node">
<title>3</title>
<path fill="none" stroke="#56d8b9" stroke-width="2" d="M409.5,-36C409.5,-36 262.5,-36 262.5,-36 256.5,-36 250.5,-30 250.5,-24 250.5,-24 250.5,-12 250.5,-12 250.5,-6 256.5,0 262.5,0 262.5,0 409.5,0 409.5,0 415.5,0 421.5,-6 421.5,-12 421.5,-12 421.5,-24 421.5,-24 421.5,-30 415.5,-36 409.5,-36"/>
<text text-anchor="middle" x="336" y="-15.5" font-family="sans" font-size="10.00" fill="#000000">CAT_classify_contigs_assembly</text>
</g>
<!-- 2&#45;&gt;3 -->
<g id="edge6" class="edge">
<title>2&#45;&gt;3</title>
<path fill="none" stroke="#c0c0c0" stroke-width="2" d="M39.9338,-647.6389C24.9342,-620.961 0,-569.4737 0,-522 0,-522 0,-522 0,-162 0,-107.2846 36.3945,-98.9721 84,-72 110.5881,-56.9358 180.5498,-42.5732 240.0281,-32.4524"/>
<polygon fill="#c0c0c0" stroke="#c0c0c0" stroke-width="2" points="240.9524,-35.8463 250.2351,-30.7392 239.7936,-28.9429 240.9524,-35.8463"/>
</g>
<!-- 3&#45;&gt;1 -->
<g id="edge3" class="edge">
<title>3&#45;&gt;1</title>
<path fill="none" stroke="#c0c0c0" stroke-width="2" d="M268.7514,-36.0395C180.8594,-61.6372 38,-111.0763 38,-162 38,-450 38,-450 38,-450 38,-490.8816 36.5797,-504.5836 57,-540 63.3438,-551.0025 72.7153,-560.9824 82.1758,-569.2848"/>
<polygon fill="#c0c0c0" stroke="#c0c0c0" stroke-width="2" points="80.1504,-572.1524 90.0791,-575.85 84.6233,-566.7678 80.1504,-572.1524"/>
</g>
<!-- 4 -->
<g id="node5" class="node">
<title>4</title>
<path fill="none" stroke="#56b1d8" stroke-width="2" d="M636,-540C636,-540 532,-540 532,-540 526,-540 520,-534 520,-528 520,-528 520,-516 520,-516 520,-510 526,-504 532,-504 532,-504 636,-504 636,-504 642,-504 648,-510 648,-516 648,-516 648,-528 648,-528 648,-534 642,-540 636,-540"/>
<text text-anchor="middle" x="584" y="-519.5" font-family="sans" font-size="10.00" fill="#000000">spades_first_assembly</text>
</g>
<!-- 4&#45;&gt;3 -->
<g id="edge7" class="edge">
<title>4&#45;&gt;3</title>
<path fill="none" stroke="#c0c0c0" stroke-width="2" d="M583.1712,-503.8191C581.9996,-476.5085 580,-423.2675 580,-378 580,-378 580,-378 580,-162 580,-89.9184 500.0461,-53.1747 431.6748,-34.9314"/>
<polygon fill="#c0c0c0" stroke="#c0c0c0" stroke-width="2" points="432.2379,-31.4627 421.6822,-32.372 430.501,-38.2438 432.2379,-31.4627"/>
</g>
<!-- 5 -->
<g id="node6" class="node">
<title>5</title>
<path fill="none" stroke="#56d87b" stroke-width="2" d="M461.5,-108C461.5,-108 376.5,-108 376.5,-108 370.5,-108 364.5,-102 364.5,-96 364.5,-96 364.5,-84 364.5,-84 364.5,-78 370.5,-72 376.5,-72 376.5,-72 461.5,-72 461.5,-72 467.5,-72 473.5,-78 473.5,-84 473.5,-84 473.5,-96 473.5,-96 473.5,-102 467.5,-108 461.5,-108"/>
<text text-anchor="middle" x="419" y="-87.5" font-family="sans" font-size="10.00" fill="#000000">CAT_prepare_ORFS</text>
</g>
<!-- 4&#45;&gt;5 -->
<g id="edge10" class="edge">
<title>4&#45;&gt;5</title>
<path fill="none" stroke="#c0c0c0" stroke-width="2" d="M573.1507,-503.611C558.4453,-476.8991 534,-425.3709 534,-378 534,-378 534,-378 534,-234 534,-182.9747 489.3672,-139.6374 455.7128,-114.2126"/>
<polygon fill="#c0c0c0" stroke="#c0c0c0" stroke-width="2" points="457.5619,-111.2285 447.427,-108.1409 453.4243,-116.8748 457.5619,-111.2285"/>
</g>
<!-- 15 -->
<g id="node16" class="node">
<title>15</title>
<path fill="none" stroke="#5673d8" stroke-width="2" d="M439.5,-468C439.5,-468 242.5,-468 242.5,-468 236.5,-468 230.5,-462 230.5,-456 230.5,-456 230.5,-444 230.5,-444 230.5,-438 236.5,-432 242.5,-432 242.5,-432 439.5,-432 439.5,-432 445.5,-432 451.5,-438 451.5,-444 451.5,-444 451.5,-456 451.5,-456 451.5,-462 445.5,-468 439.5,-468"/>
<text text-anchor="middle" x="341" y="-447.5" font-family="sans" font-size="10.00" fill="#000000">create_filter_fasta_first_spades_assembly</text>
</g>
<!-- 4&#45;&gt;15 -->
<g id="edge21" class="edge">
<title>4&#45;&gt;15</title>
<path fill="none" stroke="#c0c0c0" stroke-width="2" d="M522.9945,-503.9243C489.1972,-493.9103 447.0156,-481.412 411.7738,-470.97"/>
<polygon fill="#c0c0c0" stroke="#c0c0c0" stroke-width="2" points="412.6129,-467.5683 402.0306,-468.0831 410.6243,-474.2799 412.6129,-467.5683"/>
</g>
<!-- 5&#45;&gt;3 -->
<g id="edge5" class="edge">
<title>5&#45;&gt;3</title>
<path fill="none" stroke="#c0c0c0" stroke-width="2" d="M398.0556,-71.8314C387.9309,-63.0485 375.6223,-52.3712 364.6452,-42.8489"/>
<polygon fill="#c0c0c0" stroke="#c0c0c0" stroke-width="2" points="366.7851,-40.0718 356.9377,-36.1628 362.1981,-45.3595 366.7851,-40.0718"/>
</g>
<!-- 6 -->
<g id="node7" class="node">
<title>6</title>
<path fill="none" stroke="#5692d8" stroke-width="2" d="M437.5,-180C437.5,-180 318.5,-180 318.5,-180 312.5,-180 306.5,-174 306.5,-168 306.5,-168 306.5,-156 306.5,-156 306.5,-150 312.5,-144 318.5,-144 318.5,-144 437.5,-144 437.5,-144 443.5,-144 449.5,-150 449.5,-156 449.5,-156 449.5,-168 449.5,-168 449.5,-174 443.5,-180 437.5,-180"/>
<text text-anchor="middle" x="378" y="-159.5" font-family="sans" font-size="10.00" fill="#000000">spades_second_assembly</text>
</g>
<!-- 6&#45;&gt;3 -->
<g id="edge4" class="edge">
<title>6&#45;&gt;3</title>
<path fill="none" stroke="#c0c0c0" stroke-width="2" d="M369.2166,-143.8405C364.4919,-133.5181 358.8599,-120.2454 355,-108 348.6088,-87.7242 343.7267,-64.1982 340.5125,-46.2853"/>
<polygon fill="#c0c0c0" stroke="#c0c0c0" stroke-width="2" points="343.921,-45.4549 338.7711,-36.1959 337.023,-46.6455 343.921,-45.4549"/>
</g>
<!-- 6&#45;&gt;5 -->
<g id="edge9" class="edge">
<title>6&#45;&gt;5</title>
<path fill="none" stroke="#c0c0c0" stroke-width="2" d="M388.346,-143.8314C392.9237,-135.7925 398.4052,-126.1666 403.4588,-117.2918"/>
<polygon fill="#c0c0c0" stroke="#c0c0c0" stroke-width="2" points="406.6077,-118.8351 408.5147,-108.4133 400.5248,-115.3712 406.6077,-118.8351"/>
</g>
<!-- 7 -->
<g id="node8" class="node">
<title>7</title>
<path fill="none" stroke="#c6d856" stroke-width="2" d="M575,-612C575,-612 501,-612 501,-612 495,-612 489,-606 489,-600 489,-600 489,-588 489,-588 489,-582 495,-576 501,-576 501,-576 575,-576 575,-576 581,-576 587,-582 587,-588 587,-588 587,-600 587,-600 587,-606 581,-612 575,-612"/>
<text text-anchor="middle" x="538" y="-591.5" font-family="sans" font-size="10.00" fill="#000000">spades_hammer</text>
</g>
<!-- 7&#45;&gt;4 -->
<g id="edge8" class="edge">
<title>7&#45;&gt;4</title>
<path fill="none" stroke="#c0c0c0" stroke-width="2" d="M549.6077,-575.8314C554.7978,-567.7079 561.0232,-557.9637 566.7425,-549.0118"/>
<polygon fill="#c0c0c0" stroke="#c0c0c0" stroke-width="2" points="569.8015,-550.7246 572.236,-540.4133 563.9026,-546.9559 569.8015,-550.7246"/>
</g>
<!-- 10 -->
<g id="node11" class="node">
<title>10</title>
<path fill="none" stroke="#56d89a" stroke-width="2" d="M421,-324C421,-324 335,-324 335,-324 329,-324 323,-318 323,-312 323,-312 323,-300 323,-300 323,-294 329,-288 335,-288 335,-288 421,-288 421,-288 427,-288 433,-294 433,-300 433,-300 433,-312 433,-312 433,-318 427,-324 421,-324"/>
<text text-anchor="middle" x="378" y="-303.5" font-family="sans" font-size="10.00" fill="#000000">filter_for_assembly</text>
</g>
<!-- 7&#45;&gt;10 -->
<g id="edge15" class="edge">
<title>7&#45;&gt;10</title>
<path fill="none" stroke="#c0c0c0" stroke-width="2" d="M527.284,-575.5222C521.7521,-565.3239 515.2835,-552.271 511,-540 484.053,-462.8048 521.2357,-426.0193 473,-360 463.6354,-347.1829 450.2438,-336.9755 436.458,-329.0411"/>
<polygon fill="#c0c0c0" stroke="#c0c0c0" stroke-width="2" points="437.844,-325.8122 427.3802,-324.1508 434.524,-331.9749 437.844,-325.8122"/>
</g>
<!-- 8 -->
<g id="node9" class="node">
<title>8</title>
<path fill="none" stroke="#d89556" stroke-width="2" d="M456,-252C456,-252 300,-252 300,-252 294,-252 288,-246 288,-240 288,-240 288,-228 288,-228 288,-222 294,-216 300,-216 300,-216 456,-216 456,-216 462,-216 468,-222 468,-228 468,-228 468,-240 468,-240 468,-246 462,-252 456,-252"/>
<text text-anchor="middle" x="378" y="-231.5" font-family="sans" font-size="10.00" fill="#000000">rename_filtered_sequencing_files</text>
</g>
<!-- 8&#45;&gt;6 -->
<g id="edge11" class="edge">
<title>8&#45;&gt;6</title>
<path fill="none" stroke="#c0c0c0" stroke-width="2" d="M378,-215.8314C378,-208.131 378,-198.9743 378,-190.4166"/>
<polygon fill="#c0c0c0" stroke="#c0c0c0" stroke-width="2" points="381.5001,-190.4132 378,-180.4133 374.5001,-190.4133 381.5001,-190.4132"/>
</g>
<!-- 9 -->
<g id="node10" class="node">
<title>9</title>
<path fill="none" stroke="#56d0d8" stroke-width="2" d="M589.5,-684C589.5,-684 486.5,-684 486.5,-684 480.5,-684 474.5,-678 474.5,-672 474.5,-672 474.5,-660 474.5,-660 474.5,-654 480.5,-648 486.5,-648 486.5,-648 589.5,-648 589.5,-648 595.5,-648 601.5,-654 601.5,-660 601.5,-660 601.5,-672 601.5,-672 601.5,-678 595.5,-684 589.5,-684"/>
<text text-anchor="middle" x="538" y="-663.5" font-family="sans" font-size="10.00" fill="#000000">filter_for_host_rename</text>
</g>
<!-- 9&#45;&gt;7 -->
<g id="edge12" class="edge">
<title>9&#45;&gt;7</title>
<path fill="none" stroke="#c0c0c0" stroke-width="2" d="M538,-647.8314C538,-640.131 538,-630.9743 538,-622.4166"/>
<polygon fill="#c0c0c0" stroke="#c0c0c0" stroke-width="2" points="541.5001,-622.4132 538,-612.4133 534.5001,-622.4133 541.5001,-622.4132"/>
</g>
<!-- 10&#45;&gt;8 -->
<g id="edge13" class="edge">
<title>10&#45;&gt;8</title>
<path fill="none" stroke="#c0c0c0" stroke-width="2" d="M378,-287.8314C378,-280.131 378,-270.9743 378,-262.4166"/>
<polygon fill="#c0c0c0" stroke="#c0c0c0" stroke-width="2" points="381.5001,-262.4132 378,-252.4133 374.5001,-262.4133 381.5001,-262.4132"/>
</g>
<!-- 11 -->
<g id="node12" class="node">
<title>11</title>
<path fill="none" stroke="#d87556" stroke-width="2" d="M568,-756C568,-756 508,-756 508,-756 502,-756 496,-750 496,-744 496,-744 496,-732 496,-732 496,-726 502,-720 508,-720 508,-720 568,-720 568,-720 574,-720 580,-726 580,-732 580,-732 580,-744 580,-744 580,-750 574,-756 568,-756"/>
<text text-anchor="middle" x="538" y="-735.5" font-family="sans" font-size="10.00" fill="#000000">filter_for_host</text>
</g>
<!-- 11&#45;&gt;9 -->
<g id="edge14" class="edge">
<title>11&#45;&gt;9</title>
<path fill="none" stroke="#c0c0c0" stroke-width="2" d="M538,-719.8314C538,-712.131 538,-702.9743 538,-694.4166"/>
<polygon fill="#c0c0c0" stroke="#c0c0c0" stroke-width="2" points="541.5001,-694.4132 538,-684.4133 534.5001,-694.4133 541.5001,-694.4132"/>
</g>
<!-- 12 -->
<g id="node13" class="node">
<title>12</title>
<path fill="none" stroke="#5663d8" stroke-width="2" d="M451.5,-396C451.5,-396 230.5,-396 230.5,-396 224.5,-396 218.5,-390 218.5,-384 218.5,-384 218.5,-372 218.5,-372 218.5,-366 224.5,-360 230.5,-360 230.5,-360 451.5,-360 451.5,-360 457.5,-360 463.5,-366 463.5,-372 463.5,-372 463.5,-384 463.5,-384 463.5,-390 457.5,-396 451.5,-396"/>
<text text-anchor="middle" x="341" y="-375.5" font-family="sans" font-size="10.00" fill="#000000">create_first_spades_assembly_filter_bt2_index</text>
</g>
<!-- 12&#45;&gt;10 -->
<g id="edge16" class="edge">
<title>12&#45;&gt;10</title>
<path fill="none" stroke="#c0c0c0" stroke-width="2" d="M350.3367,-359.8314C354.4243,-351.8771 359.3104,-342.369 363.8309,-333.5723"/>
<polygon fill="#c0c0c0" stroke="#c0c0c0" stroke-width="2" points="367.0799,-334.9074 368.5376,-324.4133 360.8539,-331.7078 367.0799,-334.9074"/>
</g>
<!-- 13 -->
<g id="node14" class="node">
<title>13</title>
<path fill="none" stroke="#d8bc56" stroke-width="2" d="M525,-828C525,-828 361,-828 361,-828 355,-828 349,-822 349,-816 349,-816 349,-804 349,-804 349,-798 355,-792 361,-792 361,-792 525,-792 525,-792 531,-792 537,-798 537,-804 537,-804 537,-816 537,-816 537,-822 531,-828 525,-828"/>
<text text-anchor="middle" x="443" y="-807.5" font-family="sans" font-size="10.00" fill="#000000">trimmomatic_genomic_sequencing</text>
</g>
<!-- 13&#45;&gt;11 -->
<g id="edge18" class="edge">
<title>13&#45;&gt;11</title>
<path fill="none" stroke="#c0c0c0" stroke-width="2" d="M466.9725,-791.8314C478.7861,-782.8779 493.1972,-771.9558 505.9435,-762.2955"/>
<polygon fill="#c0c0c0" stroke="#c0c0c0" stroke-width="2" points="508.1795,-764.9925 514.0352,-756.1628 503.9514,-759.4137 508.1795,-764.9925"/>
</g>
<!-- 14 -->
<g id="node15" class="node">
<title>14</title>
<path fill="none" stroke="#d85656" stroke-width="2" d="M698.5,-828C698.5,-828 567.5,-828 567.5,-828 561.5,-828 555.5,-822 555.5,-816 555.5,-816 555.5,-804 555.5,-804 555.5,-798 561.5,-792 567.5,-792 567.5,-792 698.5,-792 698.5,-792 704.5,-792 710.5,-798 710.5,-804 710.5,-804 710.5,-816 710.5,-816 710.5,-822 704.5,-828 698.5,-828"/>
<text text-anchor="middle" x="633" y="-807.5" font-family="sans" font-size="10.00" fill="#000000">create_host_filter_bt2_index</text>
</g>
<!-- 14&#45;&gt;11 -->
<g id="edge17" class="edge">
<title>14&#45;&gt;11</title>
<path fill="none" stroke="#c0c0c0" stroke-width="2" d="M609.0275,-791.8314C597.2139,-782.8779 582.8028,-771.9558 570.0565,-762.2955"/>
<polygon fill="#c0c0c0" stroke="#c0c0c0" stroke-width="2" points="572.0486,-759.4137 561.9648,-756.1628 567.8205,-764.9925 572.0486,-759.4137"/>
</g>
<!-- 15&#45;&gt;12 -->
<g id="edge19" class="edge">
<title>15&#45;&gt;12</title>
<path fill="none" stroke="#c0c0c0" stroke-width="2" d="M341,-431.8314C341,-424.131 341,-414.9743 341,-406.4166"/>
<polygon fill="#c0c0c0" stroke="#c0c0c0" stroke-width="2" points="344.5001,-406.4132 341,-396.4133 337.5001,-406.4133 344.5001,-406.4132"/>
</g>
<!-- 16 -->
<g id="node17" class="node">
<title>16</title>
<path fill="none" stroke="#56d86b" stroke-width="2" d="M686.5,-900C686.5,-900 579.5,-900 579.5,-900 573.5,-900 567.5,-894 567.5,-888 567.5,-888 567.5,-876 567.5,-876 567.5,-870 573.5,-864 579.5,-864 579.5,-864 686.5,-864 686.5,-864 692.5,-864 698.5,-870 698.5,-876 698.5,-876 698.5,-888 698.5,-888 698.5,-894 692.5,-900 686.5,-900"/>
<text text-anchor="middle" x="633" y="-879.5" font-family="sans" font-size="10.00" fill="#000000">create_host_filter_fasta</text>
</g>
<!-- 16&#45;&gt;14 -->
<g id="edge20" class="edge">
<title>16&#45;&gt;14</title>
<path fill="none" stroke="#c0c0c0" stroke-width="2" d="M633,-863.8314C633,-856.131 633,-846.9743 633,-838.4166"/>
<polygon fill="#c0c0c0" stroke="#c0c0c0" stroke-width="2" points="636.5001,-838.4132 633,-828.4133 629.5001,-838.4133 636.5001,-838.4132"/>
</g>
<!-- 17&#45;&gt;15 -->
<g id="edge22" class="edge">
<title>17&#45;&gt;15</title>
<path fill="none" stroke="#c0c0c0" stroke-width="2" d="M340.2523,-503.8314C340.3593,-496.131 340.4865,-486.9743 340.6053,-478.4166"/>
<polygon fill="#c0c0c0" stroke="#c0c0c0" stroke-width="2" points="344.1049,-478.4609 340.7443,-468.4133 337.1056,-478.3637 344.1049,-478.4609"/>
</g>
<!-- 18 -->
<g id="node19" class="node">
<title>18</title>
<path fill="none" stroke="#56d85b" stroke-width="2" d="M686.5,-972C686.5,-972 579.5,-972 579.5,-972 573.5,-972 567.5,-966 567.5,-960 567.5,-960 567.5,-948 567.5,-948 567.5,-942 573.5,-936 579.5,-936 579.5,-936 686.5,-936 686.5,-936 692.5,-936 698.5,-942 698.5,-948 698.5,-948 698.5,-960 698.5,-960 698.5,-966 692.5,-972 686.5,-972"/>
<text text-anchor="middle" x="633" y="-951.5" font-family="sans" font-size="10.00" fill="#000000">CAT_filter_contignames</text>
</g>
<!-- 18&#45;&gt;16 -->
<g id="edge23" class="edge">
<title>18&#45;&gt;16</title>
<path fill="none" stroke="#c0c0c0" stroke-width="2" d="M633,-935.8314C633,-928.131 633,-918.9743 633,-910.4166"/>
<polygon fill="#c0c0c0" stroke="#c0c0c0" stroke-width="2" points="636.5001,-910.4132 633,-900.4133 629.5001,-910.4133 636.5001,-910.4132"/>
</g>
</g>
</svg>
